<?xml version="1.0" encoding="utf-8"?>
<!-- Generator: Adobe Illustrator 27.5.0, SVG Export Plug-In . SVG Version: 6.00 Build 0)  -->
<svg version="1.1" xmlns="http://www.w3.org/2000/svg" xmlns:xlink="http://www.w3.org/1999/xlink" x="0px" y="0px"
	 viewBox="0 100 750 400" style="enable-background:new 0 0 750 500;" xml:space="preserve">

<g id="Car">
	<ellipse style="fill:#EBEBEB;" cx="372.237" cy="424.681" rx="331.676" ry="7.679"/>
	<g>
		<path style="fill:#455A64;" d="M214.685,279.596c0,0,54.861-31.217,72.44-39.79c17.579-8.573,37.482-14.413,37.482-14.413
			l9.186,4.003l-48.378,26.332l-51.746,30.007L214.685,279.596z"/>
		<polygon style="fill:#263238;" points="209.032,275.289 221.01,276.01 238.671,280.161 223.852,283.582 210.517,278.635 		"/>
		<path style="fill:#455A64;" d="M543.912,228.187c0,0,67.21,30.203,87.035,34.236l-5.775,12.455l-33.565-8.84l-27.038-18.128
			l-27.345-11.414c0,0-7.067-8.06-6.145-8.309C532,227.939,543.912,228.187,543.912,228.187z"/>
		<path style="fill:#FF725E;" d="M90.624,387.267c5.247,1.689,394.07,0,394.07,0l165.787-10.535l-4.927-64.777l-521.731-0.79
			l-37.449,24.85v48.187"/>
		<path style="opacity:0.3;" d="M90.624,387.267c5.247,1.689,394.07,0,394.07,0l165.787-10.535l-4.927-64.777l-521.731-0.79
			l-37.449,24.85v48.187"/>
		<path style="fill:#FF725E;" d="M693.237,311.166c0,0-0.83-14.093-0.83-18.218c0-4.125-4.351-13.599-4.351-13.599l1.61-9.692
			c0-3.12-7.349-1.813-10.468-1.871c-25.758-0.485-48.252-5.362-48.252-5.362l-5.775,5.362c-11.55-2.475-86.21-36.711-86.21-36.711
			s3.712-2.475,4.95-2.887c1.237-0.412-23.099-9.487-103.534-13.612c-80.435-4.125-117.971,11.55-117.971,11.55l8.662,2.887
			c-33.824,8.25-92.397,51.148-92.397,51.148c-27.637,0-30.524-5.775-30.524-5.775c-70.948,3.712-134.883,23.512-148.495,29.699
			c-6.806,3.094-15.324,7.176-18.263,11.404c-2.939,4.228-2.031,8.379-2.361,13.758c-0.164,2.674-4.749,10.982-5.002,16.205
			c-0.796,16.429,3.555,34.787,3.555,34.787c0.029,0.911-10.175,5.006-6.094,6.237c12.641,3.811,51.105,7.22,58.277,7.531
			c1.261,0.055,3.828,0.102,7.378,0.142c-1.548-5.24-2.393-10.781-2.393-16.522c0-32.158,26.069-58.227,58.227-58.227
			c32.158,0,58.227,26.069,58.227,58.227c0,5.692-0.832,11.188-2.355,16.388c0.178-0.003,0.362-0.005,0.536-0.008
			c27.224-0.413,256.567-0.825,302.765-2.475c0.572-0.02,1.149-0.041,1.726-0.062c-1.083-4.438-1.669-9.071-1.669-13.843
			c0-32.158,26.069-58.227,58.227-58.227s58.227,26.069,58.227,58.227c0,3.04-0.235,6.025-0.684,8.94
			c0.166,0.005,0.32,0.01,0.494,0.015c13.2,0.413,57.748-7.837,57.748-7.837l14.849-15.674l3.897-34.632L693.237,311.166z"/>
		<g>
			<path style="fill:#263238;" d="M243.383,295.344c0,0.009-0.128,0.019-0.377,0.029c-0.276,0.008-0.642,0.018-1.108,0.032
				c-1.004,0.017-2.433,0.042-4.259,0.073c-3.698,0.077-9.05,0.041-15.66,0.272c-13.22,0.28-31.48,1.069-51.586,2.754
				c-20.11,1.711-38.249,3.968-51.314,6.002c-6.539,0.983-11.805,1.928-15.446,2.573c-1.795,0.335-3.199,0.596-4.186,0.78
				c-0.458,0.085-0.818,0.151-1.089,0.201c-0.246,0.044-0.372,0.062-0.374,0.053c-0.002-0.009,0.121-0.044,0.363-0.105
				c0.268-0.063,0.625-0.146,1.079-0.252c0.949-0.219,2.356-0.508,4.169-0.877c3.631-0.706,8.892-1.708,15.427-2.738
				c13.059-2.129,31.204-4.446,51.328-6.157c20.119-1.686,38.393-2.417,51.622-2.603c6.613-0.184,11.968-0.091,15.667-0.106
				c1.826,0.011,3.256,0.019,4.26,0.025c0.466,0.008,0.832,0.015,1.108,0.02C243.255,295.326,243.383,295.335,243.383,295.344z"/>
		</g>
		<path style="fill:#263238;" d="M74.386,384.203c0,0-7.794-25.98-11.691-26.305c-3.897-0.325-17.537-1.624-18.836,0
			c-1.299,1.624,0,19.81,0,19.81L74.386,384.203z"/>
		<g>
			<path style="fill:#263238;" d="M106.861,341.336c0,0.036-0.559,0.07-1.57,0.101c-1.104,0.021-2.545,0.049-4.282,0.083
				c-3.616,0.047-8.61,0.076-14.126,0.076c-1.379-0.002-2.725-0.004-4.027-0.005c-0.648,0-1.287,0.005-1.94-0.052
				c-0.639-0.091-1.266-0.214-1.837-0.45c-2.345-0.868-3.827-2.801-4.418-4.532c-0.301-0.876-0.422-1.715-0.414-2.447
				c0.002-0.722,0.025-1.338,0.038-1.844c0.031-1.011,0.065-1.57,0.101-1.57c0.036,0,0.07,0.559,0.101,1.57
				c0.078,1.005-0.121,2.51,0.519,4.165c0.605,1.63,2.035,3.421,4.24,4.208c0.537,0.216,1.125,0.323,1.722,0.405
				c0.595,0.047,1.234,0.04,1.887,0.036c1.302-0.002,2.648-0.004,4.027-0.005c5.516,0,10.511,0.029,14.126,0.076
				c1.737,0.034,3.178,0.061,4.282,0.083C106.302,341.266,106.861,341.3,106.861,341.336z"/>
		</g>
		<path style="fill:#455A64;" d="M258.359,280.638c0,0,47.551-30.553,67.903-39.213c20.351-8.66,39.62-12.341,51.961-13.64
			c12.341-1.299,30.96-1.17,42.218-1.343c11.258-0.173,48.28,2.425,61.27,4.157c12.99,1.732,27.987,3.464,46.144,11.908
			c18.157,8.444,48.035,28.362,48.035,30.31c0,1.949-1.516,1.082-1.516,1.082L258.359,280.638z"/>
		<polygon style="fill:#263238;" points="410.728,226.442 395.321,277.718 420.204,277.187 426.412,226.442 		"/>
		<g>
			<path style="opacity:0.3;" d="M386.496,304.752c0,3.938-3.192,7.13-7.129,7.13c-3.938,0-7.13-3.192-7.13-7.13
				c0-3.938,3.192-7.13,7.13-7.13C383.304,297.623,386.496,300.815,386.496,304.752z"/>
			<g>
				<path style="fill:#FF725E;" d="M391.826,308.151h-25.421c-1.741,0-3.153-1.412-3.153-3.153v-0.292
					c0-1.741,1.412-3.153,3.153-3.153h25.421c1.741,0,3.153,1.412,3.153,3.153v0.292
					C394.979,306.74,393.567,308.151,391.826,308.151z"/>
				<g>
					<path style="fill:#263238;" d="M391.826,308.151c-0.001-0.028,0.252-0.02,0.705-0.136c0.441-0.122,1.116-0.397,1.662-1.092
						c0.268-0.343,0.491-0.786,0.597-1.302c0.078-0.512,0.096-1.125-0.065-1.706c-0.298-1.177-1.552-2.302-3.136-2.178
						c-6.497,0.02-15.374,0.047-25.182,0.076c-1.138-0.013-2.213,0.709-2.648,1.724c-0.229,0.51-0.275,1.044-0.241,1.625
						c0.022,0.542,0.216,1.066,0.519,1.502c0.621,0.901,1.679,1.322,2.764,1.237c1.115,0.003,2.207,0.006,3.273,0.009
						c4.248,0.021,8.081,0.04,11.321,0.056c3.179,0.035,5.771,0.063,7.633,0.083c0.86,0.02,1.549,0.036,2.075,0.049
						C391.577,308.116,391.826,308.134,391.826,308.151c0,0.018-0.249,0.036-0.723,0.052c-0.526,0.012-1.215,0.029-2.075,0.049
						c-1.861,0.02-4.454,0.048-7.633,0.083c-3.24,0.016-7.074,0.035-11.321,0.056c-1.066,0.003-2.158,0.006-3.273,0.009
						c-0.536,0.022-1.203-0.027-1.755-0.28c-0.564-0.247-1.065-0.647-1.426-1.161c-0.359-0.511-0.587-1.13-0.616-1.767
						c-0.04-0.591,0.01-1.277,0.281-1.864c0.51-1.198,1.779-2.05,3.122-2.035c9.808,0.03,18.686,0.057,25.182,0.076
						c0.826-0.04,1.664,0.226,2.254,0.706c0.604,0.47,0.999,1.115,1.162,1.764c0.163,0.659,0.127,1.271,0.027,1.833
						c-0.13,0.556-0.385,1.024-0.683,1.379c-0.608,0.719-1.333,0.973-1.795,1.066C392.079,308.204,391.826,308.151,391.826,308.151z
						"/>
				</g>
			</g>
		</g>
		<g>
			<path style="opacity:0.3;" d="M525.234,304.826c0,3.938-3.192,7.13-7.13,7.13c-3.938,0-7.13-3.192-7.13-7.13
				c0-3.938,3.192-7.129,7.13-7.129C522.042,297.697,525.234,300.888,525.234,304.826z"/>
			<g>
				<path style="fill:#FF725E;" d="M530.565,308.225h-25.421c-1.741,0-3.153-1.412-3.153-3.153v-0.292
					c0-1.741,1.412-3.153,3.153-3.153h25.421c1.741,0,3.153,1.412,3.153,3.153v0.292
					C533.717,306.814,532.306,308.225,530.565,308.225z"/>
				<g>
					<path style="fill:#263238;" d="M530.565,308.225c-0.001-0.028,0.252-0.02,0.705-0.136c0.441-0.122,1.116-0.397,1.662-1.092
						c0.268-0.344,0.491-0.786,0.597-1.302c0.078-0.512,0.096-1.125-0.066-1.706c-0.297-1.177-1.552-2.302-3.136-2.178
						c-6.497,0.02-15.374,0.047-25.182,0.076c-1.138-0.013-2.213,0.709-2.648,1.724c-0.229,0.51-0.275,1.044-0.241,1.626
						c0.022,0.542,0.216,1.066,0.519,1.502c0.621,0.901,1.679,1.322,2.764,1.238c1.115,0.003,2.207,0.006,3.273,0.009
						c4.248,0.021,8.081,0.04,11.321,0.056c3.179,0.035,5.771,0.063,7.633,0.083c0.86,0.02,1.549,0.036,2.075,0.049
						C530.315,308.19,530.565,308.207,530.565,308.225c0,0.018-0.249,0.035-0.724,0.052c-0.526,0.012-1.215,0.029-2.075,0.049
						c-1.861,0.02-4.454,0.048-7.633,0.083c-3.24,0.016-7.074,0.035-11.321,0.056c-1.066,0.003-2.158,0.006-3.273,0.009
						c-0.536,0.022-1.203-0.027-1.755-0.28c-0.564-0.246-1.065-0.647-1.426-1.16c-0.359-0.511-0.587-1.13-0.616-1.767
						c-0.04-0.591,0.01-1.277,0.281-1.864c0.51-1.198,1.779-2.051,3.122-2.036c9.808,0.03,18.685,0.057,25.182,0.076
						c0.826-0.04,1.664,0.226,2.254,0.706c0.604,0.47,0.999,1.115,1.162,1.764c0.163,0.659,0.127,1.271,0.028,1.833
						c-0.13,0.556-0.385,1.024-0.683,1.38c-0.608,0.719-1.333,0.973-1.795,1.066C530.817,308.278,530.565,308.225,530.565,308.225z"
						/>
				</g>
			</g>
		</g>
		<g>
			<path style="fill:#263238;" d="M656.899,292.195c0,0-0.362,0.018-1.068,0.028c-0.718,0.007-1.765,0.017-3.134,0.031
				c-2.767,0.016-6.826,0.038-12.052,0.068c-10.477,0.066-25.617,0.162-44.323,0.28c-37.434,0.333-89.13,0.793-146.227,1.301
				c-57.121,0.538-108.827,0.978-146.254,1.149c-18.707,0.048-33.846,0.088-44.322,0.115c-5.225-0.013-9.284-0.023-12.05-0.03
				c-1.369-0.009-2.416-0.016-3.134-0.021c-0.706-0.008-1.068-0.025-1.068-0.025s0.362-0.019,1.068-0.028
				c0.718-0.007,1.764-0.017,3.134-0.031c2.766-0.016,6.825-0.038,12.05-0.068c10.476-0.066,25.615-0.162,44.32-0.28
				c37.434-0.333,89.135-0.793,146.251-1.302c57.101-0.538,108.802-0.978,146.229-1.149c18.707-0.048,33.847-0.088,44.325-0.115
				c5.225,0.013,9.285,0.023,12.052,0.03c1.37,0.009,2.417,0.016,3.134,0.021C656.538,292.178,656.899,292.195,656.899,292.195z"/>
		</g>
		<g>
			<path style="fill:#263238;" d="M675.792,290.913c-0.015,0.007-0.118-0.169-0.307-0.504c-0.193-0.334-0.481-0.824-0.869-1.444
				c-0.784-1.233-1.994-2.98-3.754-4.909c-1.757-1.923-4.078-4.03-7.017-5.828c-0.726-0.461-1.526-0.839-2.311-1.278
				c-0.823-0.363-1.658-0.75-2.529-1.088c-1.757-0.628-3.635-1.163-5.57-1.671c-7.732-2.052-14.825-3.556-19.956-4.64
				c-2.517-0.52-4.579-0.946-6.084-1.257c-0.672-0.143-1.219-0.26-1.653-0.352c-0.377-0.085-0.574-0.137-0.571-0.155
				c0.003-0.018,0.206,0,0.589,0.052c0.438,0.067,0.991,0.152,1.671,0.256c1.449,0.237,3.541,0.603,6.12,1.095
				c5.154,0.993,12.266,2.441,20.019,4.498c1.938,0.509,3.819,1.047,5.616,1.697c0.885,0.348,1.734,0.745,2.568,1.12
				c0.797,0.45,1.607,0.841,2.341,1.315c2.973,1.85,5.3,4.016,7.04,5.992c1.744,1.982,2.917,3.776,3.653,5.049
				c0.364,0.64,0.625,1.149,0.789,1.5C675.738,290.713,675.809,290.905,675.792,290.913z"/>
		</g>
		<g>
			<path style="fill:#263238;" d="M519.705,235.064c0,0,0.219,0.329,0.624,0.986c0.408,0.667,1.005,1.643,1.786,2.921
				c1.566,2.583,3.866,6.375,6.826,11.257c2.958,4.896,6.575,10.881,10.773,17.83c2.086,3.481,4.369,7.183,6.693,11.147
				c1.166,1.976,2.38,4.048,3.181,6.37c0.805,2.315,1.278,4.811,1.24,7.406l-0.062,0.504c-0.037,0.161-0.091,0.315-0.136,0.473
				c-0.094,0.315-0.182,0.633-0.315,0.931c-0.233,0.611-0.498,1.21-0.789,1.799c-0.565,1.187-1.2,2.352-1.857,3.52
				c-1.321,2.332-2.756,4.662-4.248,7.021c-3,4.708-6.247,9.522-9.668,14.464c-6.848,9.88-14.376,20.287-22.433,31.137
				c-2.028,2.702-4.082,5.438-6.159,8.205c-2.096,2.743-4.081,5.646-6.544,8.234c-2.46,2.593-5.589,4.586-8.97,5.897
				c-0.84,0.346-1.693,0.664-2.561,0.94c-0.859,0.307-1.737,0.552-2.615,0.806c-0.875,0.269-1.766,0.476-2.655,0.704
				c-0.88,0.255-1.801,0.39-2.719,0.539c-3.666,0.471-7.365,0.742-11.098,0.991c-3.732,0.261-7.496,0.462-11.288,0.674
				c-7.584,0.402-15.281,0.75-23.071,1.081c-31.172,1.298-60.877,2.219-87.894,3.03c-27.017,0.736-51.347,1.398-71.782,1.955
				c-20.428,0.472-36.961,0.853-48.398,1.117c-5.707,0.104-10.141,0.185-13.16,0.241c-1.497,0.017-2.641,0.03-3.423,0.039
				c-0.772,0.001-1.166-0.016-1.166-0.016c1.432-0.038,25.398-0.672,66.138-1.749c20.434-0.588,44.762-1.289,71.777-2.067
				c27.015-0.838,56.719-1.773,87.886-3.07c7.789-0.331,15.485-0.678,23.066-1.078c3.79-0.211,7.553-0.41,11.28-0.67
				c3.726-0.247,7.431-0.518,11.056-0.982c0.896-0.145,1.792-0.273,2.673-0.528c0.884-0.226,1.771-0.432,2.639-0.698
				c0.872-0.252,1.744-0.495,2.594-0.798c0.861-0.273,1.703-0.587,2.532-0.927c3.342-1.296,6.384-3.234,8.802-5.775
				c2.422-2.539,4.41-5.435,6.512-8.184c2.079-2.764,4.134-5.497,6.164-8.197c8.065-10.839,15.604-21.233,22.463-31.097
				c3.427-4.934,6.679-9.738,9.684-14.434c1.494-2.352,2.931-4.675,4.252-6.995c0.656-1.161,1.291-2.32,1.853-3.492
				c0.565-1.16,1.106-2.37,1.275-3.566c0.043-2.507-0.417-4.999-1.203-7.268c-0.783-2.288-1.973-4.335-3.137-6.319
				c-2.321-3.984-4.585-7.681-6.661-11.171c-4.168-6.964-7.758-12.963-10.695-17.87c-2.923-4.903-5.195-8.711-6.741-11.305
				c-0.762-1.289-1.344-2.274-1.742-2.947C519.894,235.412,519.705,235.064,519.705,235.064z"/>
		</g>
		<g>
			<path style="fill:#263238;" d="M582.097,272.319c0,0-0.043-0.094-0.112-0.28c-0.068-0.185-0.24-0.437-0.477-0.749
				c-0.482-0.627-1.322-1.461-2.492-2.47c-2.339-2.022-6-4.757-10.886-8.021c-4.887-3.262-10.996-7.062-18.276-11.147
				c-7.284-4.069-15.728-8.469-25.409-12.543c-1.2-0.537-2.463-0.944-3.718-1.42c-1.268-0.438-2.514-0.986-3.845-1.335
				c-2.634-0.776-5.313-1.614-8.113-2.23c-5.555-1.409-11.44-2.418-17.532-3.414c-12.211-1.862-25.369-3.079-39.231-3.953
				c-13.867-0.845-28.448-1.306-43.566-1.457c-15.101-0.19-30.794,0.74-46.531,3.777c-15.729,3.057-30.66,8.122-44.257,14.697
				c-13.579,6.64-26.017,14.315-37.749,21.746c-5.86,3.732-11.525,7.45-17.035,11.056c-2.755,1.802-5.472,3.577-8.178,5.28
				c-0.673,0.428-1.367,0.832-2.015,1.275c-0.638,0.454-1.273,0.906-1.906,1.356c-0.57,0.529-1.137,1.055-1.702,1.579
				c-0.525,0.563-1,1.17-1.5,1.748c-1.872,2.427-3.225,5.159-4.262,7.932c-1.052,2.776-1.719,5.628-2.241,8.437
				c-0.529,2.811-0.848,5.602-1.068,8.338c-0.229,2.736-0.345,5.422-0.415,8.047c-0.122,5.242,0.174,10.247,0.385,14.973
				c0.231,4.728,0.493,9.185,0.747,13.352c0.549,8.329,1.021,15.504,1.408,21.373c0.413,5.856,0.733,10.406,0.952,13.503
				c0.107,1.536,0.188,2.71,0.244,3.512c0.052,0.791,0.066,1.198,0.066,1.198s-0.05-0.404-0.12-1.194
				c-0.067-0.801-0.166-1.973-0.295-3.508c-0.241-3.096-0.594-7.643-1.049-13.496c-0.437-5.862-0.956-13.035-1.497-21.369
				c-0.268-4.167-0.544-8.624-0.787-13.353c-0.224-4.73-0.532-9.73-0.422-15c0.064-2.629,0.175-5.322,0.399-8.068
				c0.215-2.746,0.53-5.55,1.057-8.379c0.52-2.827,1.186-5.701,2.245-8.509c1.043-2.805,2.41-5.577,4.313-8.053
				c0.508-0.591,0.992-1.21,1.527-1.785c0.577-0.536,1.156-1.075,1.737-1.616c0.647-0.462,1.296-0.925,1.948-1.391
				c0.659-0.451,1.341-0.849,2.014-1.278c2.698-1.702,5.411-3.481,8.164-5.286c5.504-3.612,11.167-7.338,17.027-11.077
				c11.733-7.447,24.174-15.137,37.784-21.8c13.633-6.599,28.607-11.683,44.381-14.749c15.78-3.045,31.512-3.973,46.635-3.776
				c15.125,0.159,29.715,0.629,43.591,1.488c13.872,0.888,27.04,2.121,39.267,4.005c6.101,1.007,11.993,2.028,17.562,3.451
				c2.806,0.622,5.493,1.468,8.135,2.253c1.333,0.352,2.586,0.906,3.859,1.349c1.259,0.48,2.53,0.894,3.729,1.434
				c9.691,4.104,18.132,8.532,25.409,12.629c7.273,4.113,13.372,7.942,18.246,11.233c4.872,3.293,8.519,6.058,10.842,8.11
				c1.162,1.024,1.993,1.873,2.465,2.517C582.041,271.893,582.097,272.319,582.097,272.319z"/>
		</g>
		<g>
			<path style="fill:#263238;" d="M399.571,381.946c-0.009,0.001-0.025-0.139-0.047-0.413c-0.02-0.298-0.047-0.702-0.081-1.216
				c-0.068-1.07-0.141-2.648-0.227-4.682c-0.152-4.067-0.341-9.956-0.372-17.235c0.002-14.539,0.179-34.725,3.386-56.742
				c0.211-1.374,0.384-2.745,0.622-4.097c0.26-1.348,0.519-2.688,0.775-4.017c0.266-1.328,0.492-2.653,0.784-3.954
				c0.328-1.293,0.654-2.576,0.977-3.848c0.339-1.267,0.606-2.542,0.997-3.769c0.412-1.221,0.82-2.431,1.224-3.628
				c0.408-1.192,0.795-2.391,1.21-3.54c0.399-1.16,0.843-2.289,1.154-3.449c1.397-4.589,2.369-9.059,3.178-13.254
				c0.824-4.194,1.458-8.127,1.999-11.723c1.071-7.194,1.75-13.043,2.202-17.085c0.215-2.001,0.384-3.565,0.502-4.658
				c0.056-0.513,0.1-0.914,0.133-1.211c0.032-0.273,0.052-0.412,0.061-0.411c0.009,0.001,0.006,0.141-0.008,0.416
				c-0.02,0.298-0.047,0.701-0.081,1.216c-0.08,1.068-0.212,2.643-0.405,4.669c-0.39,4.051-1.014,9.91-2.039,17.118
				c-0.518,3.603-1.132,7.545-1.939,11.751c-0.793,4.207-1.751,8.691-3.143,13.313c-0.309,1.166-0.755,2.309-1.155,3.479
				c-0.419,1.169-0.795,2.344-1.199,3.535c-0.399,1.19-0.803,2.393-1.21,3.607c-0.387,1.221-0.651,2.492-0.987,3.753
				c-0.32,1.266-0.643,2.544-0.968,3.832c-0.29,1.296-0.515,2.619-0.778,3.942c-0.255,1.326-0.512,2.661-0.771,4.005
				c-0.237,1.348-0.41,2.717-0.62,4.087c-3.2,21.964-3.437,42.134-3.533,56.663c-0.016,7.275,0.118,13.161,0.207,17.229
				c0.055,2.012,0.099,3.585,0.129,4.684c0.012,0.516,0.022,0.919,0.029,1.218C399.582,381.804,399.58,381.945,399.571,381.946z"/>
		</g>
		<path style="fill:#263238;" d="M512.207,236.496c0,0,12.003,19.131,11.55,21.623c-0.453,2.491-0.906,16.76-0.906,16.76h20.652
			l-20.621-34.553"/>
		<g>
			<path style="fill:#455A64;" d="M418.048,228.077c0.141,0.028-1.969,11.104-4.713,24.734c-2.745,13.635-5.083,24.662-5.224,24.634
				c-0.141-0.028,1.969-11.101,4.713-24.737C415.568,239.078,417.907,228.049,418.048,228.077z"/>
		</g>
		<path style="opacity:0.3;fill:#FFFFFF;" d="M294.383,264.457c0,0,18.155-15.326,61.165-26.983
			c23.818-6.455,48.303-5.342,48.303-5.342l-2.122,8.28c0,0-10.823-1.717-14.258,4.809c-3.435,6.526,4.809,21.984,4.809,21.984
			s-1.718,8.244-3.092,8.244s-75.643,1.911-75.643,1.911s-3.08-9.464-9.184-12.516C300.747,263.037,294.383,264.457,294.383,264.457
			z"/>
		<path style="opacity:0.3;fill:#FFFFFF;" d="M424.271,273.81c0-0.216,5.615-40.778,6.083-40.563
			c0.468,0.216,48.195-1.079,78.142,6.904l9.358,15.535c0,0-3.275,18.771-3.977,18.124
			C513.175,273.162,424.271,273.81,424.271,273.81z"/>
		<g>
			<g>
				<g>
					<g>
						<g>
							<g>
								<g>
									<g>
										<g>
											<g>
												<g>
													<path style="fill:#263238;" d="M103.442,376.221c-0.401,27.802,21.812,50.666,49.615,51.067
														c27.803,0.401,50.666-21.813,51.068-49.614c0.401-27.802-21.812-50.666-49.615-51.067
														C126.706,326.206,103.843,348.419,103.442,376.221z"/>
												</g>
											</g>
										</g>
									</g>
								</g>
							</g>
						</g>
					</g>
				</g>
			</g>
			<g>
				<g>
					<g>
						<g>
							<g>
								<g>
									<g>
										<g>
											<g>
												<g>
													<path style="fill:#263238;" d="M103.451,376.091c-0.001,0.044-0.008,0.086-0.009,0.13
														c-0.401,27.802,21.812,50.666,49.615,51.067c27.803,0.401,50.666-21.813,51.068-49.614
														c0.001-0.044-0.005-0.086-0.005-0.13L103.451,376.091z"/>
												</g>
											</g>
										</g>
									</g>
								</g>
							</g>
						</g>
					</g>
				</g>
			</g>
			<g>
				<g>
					<g>
						<g>
							<g>
								<g>
									<g>
										<g>
											<g>
												<g>
													<path style="fill:#FAFAFA;" d="M118.44,376.438c-0.282,19.519,15.313,35.571,34.832,35.853
														c19.52,0.282,35.571-15.314,35.853-34.833c0.281-19.519-15.314-35.571-34.833-35.853
														C134.773,341.323,118.722,356.918,118.44,376.438z"/>
												</g>
											</g>
										</g>
									</g>
								</g>
							</g>
						</g>
					</g>
				</g>
			</g>
			<g>
				<g>
					<g>
						<g>
							<g>
								<g>
									<g>
										<g>
											<g>
												<g>
													<path style="fill:#E0E0E0;" d="M154.292,341.604c-19.519-0.281-35.57,15.314-35.852,34.833l70.685,1.02
														C189.407,357.938,173.812,341.886,154.292,341.604z"/>
												</g>
											</g>
										</g>
									</g>
								</g>
							</g>
						</g>
					</g>
				</g>
			</g>
			<g>
				<g>
					<g>
						<g>
							<g>
								<g>
									<g>
										<g>
											<g>
												<g>
													<path style="fill:#263238;" d="M132.254,376.637c-0.172,11.89,9.328,21.668,21.218,21.839
														c11.89,0.172,21.669-9.328,21.84-21.218c0.171-11.891-9.329-21.668-21.219-21.84
														C142.203,355.247,132.426,364.746,132.254,376.637z"/>
												</g>
											</g>
										</g>
									</g>
								</g>
							</g>
						</g>
					</g>
				</g>
			</g>
		</g>
		<g>
			<g>
				<g>
					<g>
						<g>
							<g>
								<g>
									<g>
										<g>
											<g>
												<g>
													<path style="fill:#263238;" d="M518.11,376.781c-0.415,28.825,22.615,52.53,51.44,52.945
														c28.826,0.416,52.531-22.615,52.946-51.44c0.416-28.825-22.615-52.53-51.441-52.946
														C542.231,324.925,518.526,347.955,518.11,376.781z"/>
												</g>
											</g>
										</g>
									</g>
								</g>
							</g>
						</g>
					</g>
				</g>
			</g>
			<g>
				<g>
					<g>
						<g>
							<g>
								<g>
									<g>
										<g>
											<g>
												<g>
													<path style="fill:#263238;" d="M518.119,376.646c-0.001,0.045-0.008,0.089-0.009,0.135
														c-0.415,28.825,22.615,52.53,51.44,52.945c28.826,0.416,52.531-22.615,52.946-51.44
														c0.001-0.045-0.005-0.09-0.005-0.135L518.119,376.646z"/>
												</g>
											</g>
										</g>
									</g>
								</g>
							</g>
						</g>
					</g>
				</g>
			</g>
			<g>
				<g>
					<g>
						<g>
							<g>
								<g>
									<g>
										<g>
											<g>
												<g>
													<path style="fill:#FAFAFA;" d="M533.661,377.005c-0.292,20.238,15.877,36.88,36.114,37.172
														c20.238,0.292,36.88-15.877,37.172-36.115c0.292-20.237-15.877-36.88-36.115-37.172
														C550.594,340.598,533.953,356.767,533.661,377.005z"/>
												</g>
											</g>
										</g>
									</g>
								</g>
							</g>
						</g>
					</g>
				</g>
			</g>
			<g>
				<g>
					<g>
						<g>
							<g>
								<g>
									<g>
										<g>
											<g>
												<g>
													<path style="fill:#E0E0E0;" d="M570.832,340.89c-20.237-0.292-36.879,15.877-37.171,36.115l73.286,1.057
														C607.238,357.825,591.069,341.182,570.832,340.89z"/>
												</g>
											</g>
										</g>
									</g>
								</g>
							</g>
						</g>
					</g>
				</g>
			</g>
			<g>
				<g>
					<g>
						<g>
							<g>
								<g>
									<g>
										<g>
											<g>
												<g>
													<path style="fill:#263238;" d="M547.983,377.211c-0.178,12.328,9.671,22.465,21.999,22.643
														c12.328,0.178,22.466-9.671,22.644-21.999c0.178-12.328-9.672-22.466-22-22.643
														C558.298,355.034,548.16,364.884,547.983,377.211z"/>
												</g>
											</g>
										</g>
									</g>
								</g>
							</g>
						</g>
					</g>
				</g>
			</g>
		</g>
		<path style="fill:#FFFFFF;" d="M654.494,290.913c0,0-1.305,2.089,0,3.394c1.305,1.305,11.095,15.403,17.361,15.794
			c6.265,0.392,21.382,0,21.382,0l-1.205-19.188H654.494z"/>
		<path style="opacity:0.3;" d="M701.069,363.071l-45.674,6.281c0,0-0.665,3.327,4.492,3.993c5.157,0.665,35.892-4.69,35.892-4.69
			L701.069,363.071z"/>
		<path style="opacity:0.3;" d="M220.34,381.946c1.127-0.236,15.214-8.4,32.118-8.544c16.904-0.144,246.568-12.37,244.878-10.635
			c-1.69,1.735-7.783,8.297-20.052,10.635C460.921,376.521,220.34,381.946,220.34,381.946z"/>
		<polygon style="fill:#263238;" points="287.183,262.771 298.026,280.638 258.359,280.638 		"/>
		<g>
			<path style="fill:#FF725E;" d="M273.971,274.184c-2.685,2.527-3.475,6.792,0,9.477s27.008,2.843,29.851,0
				c2.843-2.843,2.379-8.372-1.737-12.951c-2.623-2.918-10.74-6.16-14.215-5.844C284.395,265.182,276.665,271.648,273.971,274.184z"
				/>
			<g>
				<path style="fill:#263238;" d="M273.971,274.184c-0.006-0.007,0.044-0.065,0.149-0.174c0.129-0.128,0.285-0.283,0.475-0.472
					c0.427-0.405,1.062-0.997,1.909-1.726c1.706-1.439,4.162-3.567,7.609-5.638c0.87-0.501,1.8-1.013,2.88-1.332
					c1.106-0.356,2.299-0.176,3.457,0.018c2.335,0.449,4.722,1.322,7.116,2.477c1.191,0.59,2.386,1.262,3.504,2.12
					c1.134,0.865,2.032,2.015,2.827,3.23c0.782,1.231,1.403,2.608,1.743,4.09c0.328,1.475,0.361,3.083-0.136,4.59
					c-0.228,0.76-0.642,1.452-1.131,2.062c-0.132,0.147-0.253,0.298-0.395,0.44c-0.166,0.129-0.328,0.279-0.507,0.361
					c-0.348,0.205-0.711,0.338-1.072,0.461c-1.45,0.469-2.911,0.673-4.344,0.851c-2.87,0.329-5.65,0.426-8.295,0.431
					c-2.646,0.003-5.16-0.1-7.506-0.301c-2.344-0.208-4.529-0.486-6.476-1.034c-0.486-0.137-0.956-0.305-1.396-0.526
					c-0.456-0.224-0.8-0.563-1.14-0.866c-0.655-0.65-1.127-1.409-1.397-2.177c-0.556-1.555-0.284-3.023,0.117-4.064
					c0.416-1.056,0.96-1.765,1.358-2.198c0.186-0.23,0.369-0.368,0.474-0.476C273.905,274.227,273.965,274.178,273.971,274.184
					c0.018,0.018-0.204,0.235-0.572,0.688c-0.367,0.449-0.873,1.165-1.248,2.201c-0.362,1.023-0.587,2.435-0.034,3.894
					c0.548,1.418,1.803,2.92,3.762,3.315c1.905,0.513,4.081,0.77,6.41,0.958c2.333,0.181,4.836,0.267,7.468,0.251
					c2.631-0.018,5.399-0.125,8.236-0.458c1.413-0.178,2.863-0.387,4.239-0.836c0.339-0.115,0.681-0.243,0.976-0.418
					c0.165-0.074,0.273-0.189,0.407-0.285c0.122-0.122,0.237-0.266,0.356-0.398c0.446-0.558,0.828-1.189,1.037-1.893
					c0.46-1.392,0.436-2.908,0.125-4.314c-0.322-1.412-0.915-2.738-1.668-3.929c-0.77-1.181-1.633-2.292-2.7-3.11
					c-1.072-0.83-2.244-1.498-3.413-2.083c-2.348-1.148-4.708-2.027-6.983-2.482c-1.13-0.2-2.269-0.374-3.267-0.056
					c-1.019,0.289-1.945,0.781-2.805,1.265c-3.428,2.004-5.924,4.088-7.662,5.474c-0.828,0.693-1.484,1.243-1.969,1.649
					C274.22,273.999,273.984,274.198,273.971,274.184z"/>
			</g>
		</g>
		<path style="opacity:0.3;" d="M39.139,324.001c0,0,6.763-8.698,16.857-12.835c10.094-4.137,69.461-17.522,112.968-21.8
			c41.587-4.089,67.97-5.524,67.97-5.524l8.107,1.893c0,0-118.395,16.945-145.259,21.938c-20.093,3.734-62.063,25.712-62.063,25.712
			l0.998-2.688L39.139,324.001z"/>
		<path style="fill:#FFFFFF;" d="M57.65,312.028c-4.456,2.448-8.02,6.33-9.659,10.312c-1.827,4.438-1.436,7.571-0.131,7.832
			c1.305,0.261,25.192,1.436,29.369-0.914c4.177-2.35,20.754-21.145,20.754-21.145S65.469,307.732,57.65,312.028z"/>
		<g>
			<path style="fill:#263238;" d="M618.905,343.283c-0.004-0.017,0.291-0.1,0.856-0.241c0.61-0.146,1.436-0.343,2.477-0.592
				c2.153-0.504,5.274-1.207,9.137-2.05c7.725-1.685,18.422-3.914,30.301-6.042c11.884-2.123,22.703-3.688,30.555-4.632
				c3.926-0.474,7.107-0.82,9.31-1.02c1.066-0.094,1.911-0.169,2.536-0.225c0.58-0.046,0.886-0.061,0.888-0.043
				c0.002,0.018-0.3,0.068-0.877,0.147c-0.622,0.079-1.464,0.187-2.525,0.322c-2.195,0.261-5.368,0.663-9.285,1.184
				c-7.835,1.037-18.635,2.658-30.51,4.78c-11.87,2.126-22.573,4.296-30.316,5.889c-3.836,0.79-6.957,1.432-9.17,1.888
				c-1.049,0.208-1.882,0.374-2.498,0.496C619.211,343.253,618.909,343.301,618.905,343.283z"/>
		</g>
		<g>
			<path style="fill:#263238;" d="M693.237,311.166c-0.074,0-0.134-1.136-0.223-2.969c-0.098-1.998-0.217-4.451-0.35-7.164
				c-0.156-2.711-0.297-5.163-0.411-7.159c-0.066-0.914-0.116-1.655-0.168-2.162c-0.036-0.512-0.096-0.783-0.053-0.798
				c0.085-0.028,0.386,1.097,0.587,2.926c0.216,1.829,0.419,4.364,0.565,7.167c0.143,2.802,0.204,5.343,0.198,7.182
				C693.376,310.028,693.306,311.166,693.237,311.166z"/>
		</g>
	</g>
</g>
</svg>
