<?xml version="1.0" encoding="utf-8"?>
<!-- Generator: Adobe Illustrator 27.5.0, SVG Export Plug-In . SVG Version: 6.00 Build 0)  -->
<svg version="1.1" xmlns="http://www.w3.org/2000/svg" xmlns:xlink="http://www.w3.org/1999/xlink" x="0px" y="0px"
	 viewBox="0 0 750 500" style="enable-background:new 0 0 750 500;" xml:space="preserve">
<g id="Background_Complete">
	<g>
		<g>
			<g>
				<g>
					<path style="fill:#F5F5F5;" d="M77.39,131.108c-0.599-1.598-1.209-3.218-2.216-4.596c-1.007-1.378-2.478-2.506-4.171-2.713
						c-1.694-0.207-3.57,0.707-4.122,2.321c-0.243-3.638-0.759-7.371-2.58-10.53c-1.821-3.159-5.219-5.641-8.859-5.418
						c-3.432,0.21-6.37,2.759-8.003,5.785c-1.633,3.026-2.193,6.497-2.729,9.893c-1.301-1.596-4.048-1.095-5.405,0.454
						c-1.358,1.548-1.702,3.713-1.99,5.752h40.929L77.39,131.108z"/>
				</g>
			</g>
		</g>
	</g>
	<g>
		<g>
			<g>
				<g>
					<path style="fill:#F5F5F5;" d="M242.218,88.752c-1.001-2.672-2.021-5.381-3.705-7.684c-1.683-2.304-4.143-4.191-6.975-4.537
						c-2.832-0.347-5.969,1.182-6.892,3.881c-0.406-6.084-1.268-12.325-4.313-17.607c-3.045-5.282-8.727-9.432-14.813-9.059
						c-5.738,0.351-10.651,4.613-13.381,9.672c-2.73,5.059-3.667,10.863-4.563,16.541c-2.175-2.669-6.768-1.83-9.038,0.759
						c-2.27,2.589-2.845,6.207-3.328,9.616h68.433L242.218,88.752z"/>
				</g>
			</g>
		</g>
	</g>
	<g>
		<g>
			<g>
				<g>
					<path style="fill:#EBEBEB;" d="M466.424,88.752c-1.001-2.672-2.021-5.381-3.705-7.684c-1.683-2.304-4.143-4.191-6.975-4.537
						c-2.832-0.347-5.969,1.182-6.892,3.881c-0.406-6.084-1.268-12.325-4.314-17.607c-3.045-5.282-8.727-9.432-14.813-9.059
						c-5.738,0.351-10.651,4.613-13.381,9.672c-2.73,5.059-3.667,10.863-4.563,16.541c-2.175-2.669-6.768-1.83-9.038,0.759
						c-2.27,2.589-2.845,6.207-3.328,9.616h68.433L466.424,88.752z"/>
				</g>
			</g>
		</g>
	</g>
	<g>
		<g>
			<g>
				<g>
					<path style="fill:#EBEBEB;" d="M611.228,60.527c-0.708-1.89-1.43-3.807-2.621-5.436c-1.191-1.63-2.931-2.965-4.934-3.21
						c-2.003-0.245-4.223,0.836-4.876,2.746c-0.287-4.304-0.897-8.719-3.052-12.456c-2.154-3.737-6.174-6.673-10.479-6.409
						c-4.06,0.248-7.535,3.264-9.466,6.843c-1.931,3.579-2.594,7.685-3.228,11.702c-1.539-1.888-4.788-1.295-6.394,0.537
						c-1.606,1.831-2.013,4.391-2.354,6.803h48.414L611.228,60.527z"/>
				</g>
			</g>
		</g>
	</g>
	<g>
		<g>
			<g>
				<g>
					<path style="fill:#F5F5F5;" d="M482.833,120.065c-0.359-0.959-0.726-1.932-1.33-2.758c-0.604-0.827-1.487-1.504-2.504-1.629
						c-1.017-0.124-2.143,0.424-2.474,1.393c-0.146-2.184-0.455-4.424-1.548-6.32c-1.093-1.896-3.133-3.386-5.318-3.252
						c-2.06,0.126-3.823,1.656-4.803,3.472c-0.98,1.816-1.316,3.899-1.638,5.938c-0.781-0.958-2.43-0.657-3.244,0.272
						c-0.815,0.929-1.021,2.228-1.195,3.452h24.566L482.833,120.065z"/>
				</g>
			</g>
		</g>
	</g>
	<g>
		<g>
			<g>
				<g>
					<path style="fill:#F5F5F5;" d="M522.746,68.077c-0.359-0.959-0.726-1.932-1.33-2.758c-0.604-0.827-1.487-1.504-2.504-1.629
						c-1.016-0.124-2.143,0.424-2.474,1.394c-0.146-2.184-0.455-4.424-1.548-6.32c-1.093-1.896-3.133-3.386-5.317-3.252
						c-2.06,0.126-3.823,1.656-4.803,3.472c-0.98,1.816-1.316,3.899-1.638,5.938c-0.781-0.958-2.43-0.657-3.244,0.272
						c-0.815,0.929-1.021,2.228-1.195,3.452h24.566L522.746,68.077z"/>
				</g>
			</g>
		</g>
	</g>
	<g>
		<g>
			<g>
				<g>
					<path style="fill:#F5F5F5;" d="M705.242,93.093c-0.359-0.959-0.726-1.932-1.33-2.758c-0.604-0.827-1.487-1.504-2.504-1.629
						c-1.016-0.124-2.143,0.424-2.474,1.393c-0.146-2.184-0.455-4.424-1.549-6.321c-1.093-1.896-3.133-3.386-5.317-3.252
						c-2.06,0.126-3.823,1.656-4.803,3.472c-0.98,1.816-1.316,3.899-1.638,5.938c-0.781-0.958-2.43-0.657-3.245,0.272
						c-0.815,0.929-1.021,2.228-1.195,3.452h24.566L705.242,93.093z"/>
				</g>
			</g>
		</g>
	</g>
	<g>
		<g>
			<g>
				<g>
					<path style="fill:#F5F5F5;" d="M122.728,78.032c-0.359-0.959-0.726-1.932-1.33-2.758c-0.604-0.827-1.487-1.504-2.504-1.629
						c-1.017-0.124-2.143,0.424-2.474,1.394c-0.146-2.184-0.455-4.424-1.549-6.321c-1.093-1.896-3.133-3.386-5.317-3.252
						c-2.06,0.126-3.824,1.656-4.803,3.472c-0.98,1.816-1.316,3.899-1.638,5.938c-0.781-0.958-2.429-0.657-3.244,0.272
						c-0.815,0.929-1.021,2.228-1.195,3.452h24.566L122.728,78.032z"/>
				</g>
			</g>
		</g>
	</g>
	<g>
		<g>
			<g>
				<g>
					<g>
						<g>
							<g>
								
									<rect x="139.424" y="220.939" transform="matrix(-1 -1.224647e-16 1.224647e-16 -1 292.2074 487.8043)" style="fill:#EBEBEB;" width="13.36" height="45.926"/>
							</g>
						</g>
					</g>
				</g>
			</g>
		</g>
		<g>
			<g>
				<g>
					<g>
						<g>
							<g>
								<path style="fill:#EBEBEB;" d="M196.764,220.788c0,0-0.658-0.437,0.789-2.332c1.447-1.895-0.789-2.916-0.789-2.916
									c-6.314,3.645-15.126,0-15.126,0s10.391-3.207,11.706-6.269c0.982-2.287-0.75-2.54-1.69-2.522
									c1.061-0.111,3.357-0.487,4.057-1.706c0.921-1.604-2.696-3.499-2.696-3.499s0.591-0.875,0-2.478
									c-0.592-1.604-14.14-3.936-14.14-3.936c3.946,0.438,5.393-3.499,5.393-3.499s6.708,0.146,8.286-2.478
									c1.578-2.624-1.052-3.353-5.524-5.54c-4.472-2.187-14.337-10.351-14.337-10.351s6.182-0.583,7.892-2.041
									c1.71-1.458,0.132-1.749,0.132-1.749c7.366,0.729,4.867-3.207,4.867-3.207c-9.865-3.062-15.126-9.768-15.126-9.768
									s4.604-1.021,6.972-3.207c2.367-2.187-1.973-2.77-1.973-2.77s8.681-1.167,3.683-4.374
									c-3.799-2.438-9.877-5.717-11.766-6.702c2.071,0.761,6.768-0.15,6.768-0.15c5.525-2.478,0-6.123,0-6.123
									c-6.445-3.644-15.915-12.829-15.915-12.829s4.735,2.478,7.103,1.749c2.367-0.729-2.631-3.645-2.631-3.645
									s2.499,0.729,3.552,0c1.052-0.729-2.762-4.082-2.762-4.082c-5.67-3.684-12.66-13.354-15.584-17.507
									c-2.924,4.153-9.914,13.823-15.584,17.507c0,0-3.814,3.353-2.762,4.082c1.052,0.729,3.551,0,3.551,0
									s-4.998,2.916-2.63,3.645c2.367,0.729,7.103-1.749,7.103-1.749s-9.47,9.185-15.915,12.829c0,0-5.524,3.645,0,6.123
									c0,0,4.697,0.91,6.768,0.15c-1.889,0.985-7.967,4.265-11.766,6.702c-4.998,3.207,3.683,4.374,3.683,4.374
									s-4.34,0.583-1.973,2.77c2.368,2.187,6.971,3.207,6.971,3.207s-5.261,6.706-15.126,9.768c0,0-2.499,3.936,4.867,3.207
									c0,0-1.578,0.291,0.132,1.749c1.71,1.458,7.892,2.041,7.892,2.041s-9.865,8.164-14.337,10.351
									c-4.472,2.187-7.103,2.915-5.524,5.54c1.579,2.624,8.287,2.478,8.287,2.478s1.447,3.936,5.393,3.499
									c0,0-13.549,2.333-14.14,3.936c-0.592,1.604,0,2.478,0,2.478s-3.617,1.895-2.696,3.499c0.7,1.219,2.997,1.596,4.057,1.706
									c-0.94-0.018-2.672,0.235-1.69,2.522c1.315,3.061,11.706,6.269,11.706,6.269s-8.813,3.645-15.126,0
									c0,0-2.236,1.021-0.789,2.916c1.447,1.895,0.789,2.332,0.789,2.332s-3.288-2.478-1.841,1.312
									c1.446,3.791,9.076,6.123,9.076,6.123s-4.341,0.729-3.025,3.062c1.315,2.333,6.84,5.102,12.89,5.686
									c6.05,0.583,14.206-1.604,14.206-1.604s-5.524,2.916-1.71,4.519c3.815,1.604,8.155-2.041,8.155-2.041
									s-0.789,3.731,2.368,2.449c3.157-1.283,5.787-3.761,5.787-3.761s0.986,5.498,2.956,4.183
									c1.972,1.315,2.957-4.183,2.957-4.183s2.631,2.478,5.788,3.761c3.157,1.282,2.368-2.449,2.368-2.449s4.34,3.645,8.155,2.041
									c3.814-1.603-1.71-4.519-1.71-4.519s8.155,2.187,14.205,1.604c6.05-0.583,11.575-3.353,12.89-5.686
									c1.315-2.333-3.025-3.062-3.025-3.062s7.629-2.332,9.076-6.123C200.052,218.31,196.764,220.788,196.764,220.788z"/>
							</g>
						</g>
					</g>
				</g>
			</g>
		</g>
	</g>
	<g>
		<g>
			<g>
				<g>
					<g>
						<g>
							<g>
								
									<rect x="626.777" y="217.591" transform="matrix(-1 -1.224647e-16 1.224647e-16 -1 1268.4592 486.4214)" style="fill:#EBEBEB;" width="14.905" height="51.239"/>
							</g>
						</g>
					</g>
				</g>
			</g>
		</g>
		<g>
			<g>
				<g>
					<g>
						<g>
							<g>
								<path style="fill:#EBEBEB;" d="M690.75,217.423c0,0-0.733-0.488,0.881-2.602c1.614-2.115-0.881-3.253-0.881-3.253
									c-7.044,4.066-16.876,0-16.876,0s11.593-3.578,13.06-6.994c1.096-2.551-0.836-2.834-1.885-2.813
									c1.183-0.123,3.746-0.543,4.527-1.903c1.027-1.79-3.007-3.904-3.007-3.904s0.659-0.976,0-2.765
									c-0.66-1.789-15.776-4.392-15.776-4.392c4.403,0.488,6.017-3.904,6.017-3.904s7.484,0.163,9.245-2.765
									c1.761-2.928-1.174-3.741-6.163-6.181c-4.99-2.44-15.995-11.548-15.995-11.548s6.897-0.651,8.805-2.277
									c1.908-1.626,0.147-1.952,0.147-1.952c8.218,0.813,5.43-3.578,5.43-3.578c-11.006-3.416-16.876-10.898-16.876-10.898
									s5.136-1.139,7.778-3.578c2.641-2.44-2.202-3.09-2.202-3.09s9.686-1.302,4.109-4.88c-4.239-2.72-11.019-6.378-13.127-7.478
									c2.31,0.849,7.551-0.167,7.551-0.167c6.164-2.765,0-6.831,0-6.831c-7.19-4.066-17.756-14.313-17.756-14.313
									s5.283,2.765,7.925,1.951c2.641-0.813-2.935-4.066-2.935-4.066s2.788,0.813,3.962,0c1.174-0.813-3.082-4.554-3.082-4.554
									c-6.326-4.11-14.124-14.898-17.387-19.532c-3.262,4.634-11.061,15.422-17.387,19.532c0,0-4.255,3.741-3.081,4.554
									c1.174,0.813,3.962,0,3.962,0s-5.576,3.253-2.935,4.066c2.641,0.813,7.924-1.951,7.924-1.951s-10.566,10.247-17.757,14.313
									c0,0-6.163,4.067,0,6.831c0,0,5.241,1.016,7.551,0.167c-2.108,1.099-8.889,4.758-13.127,7.478
									c-5.577,3.578,4.109,4.88,4.109,4.88s-4.843,0.651-2.201,3.09c2.641,2.44,7.778,3.578,7.778,3.578
									s-5.87,7.482-16.876,10.898c0,0-2.788,4.391,5.43,3.578c0,0-1.761,0.325,0.147,1.952c1.908,1.627,8.805,2.277,8.805,2.277
									s-11.006,9.108-15.996,11.548c-4.99,2.439-7.924,3.253-6.164,6.181c1.761,2.927,9.245,2.765,9.245,2.765
									s1.614,4.392,6.016,3.904c0,0-15.116,2.602-15.776,4.392c-0.66,1.789,0,2.765,0,2.765s-4.035,2.114-3.008,3.904
									c0.781,1.36,3.344,1.78,4.527,1.903c-1.049-0.02-2.981,0.262-1.885,2.813c1.467,3.416,13.06,6.994,13.06,6.994
									s-9.832,4.066-16.876,0c0,0-2.495,1.138-0.881,3.253c1.614,2.114,0.881,2.602,0.881,2.602s-3.669-2.765-2.054,1.464
									c1.614,4.229,10.125,6.831,10.125,6.831s-4.843,0.813-3.375,3.416c1.467,2.602,7.631,5.693,14.381,6.343
									c6.75,0.651,15.849-1.789,15.849-1.789s-6.163,3.253-1.908,5.042c4.256,1.789,9.099-2.277,9.099-2.277
									s-0.881,4.163,2.641,2.732c3.522-1.431,6.457-4.196,6.457-4.196s1.1,6.134,3.299,4.667c2.199,1.468,3.299-4.667,3.299-4.667
									s2.935,2.765,6.457,4.196c3.522,1.431,2.641-2.732,2.641-2.732s4.843,4.066,9.098,2.277
									c4.256-1.789-1.908-5.042-1.908-5.042s9.098,2.44,15.849,1.789c6.75-0.651,12.914-3.741,14.381-6.343
									c1.467-2.602-3.375-3.416-3.375-3.416s8.511-2.602,10.126-6.831C694.418,214.658,690.75,217.423,690.75,217.423z"/>
							</g>
						</g>
					</g>
				</g>
			</g>
		</g>
	</g>
	<g>
		<g>
			<g>
				<g>
					<g>
						<g>
							<g>
								
									<rect x="525.747" y="220.939" transform="matrix(-1 -1.224647e-16 1.224647e-16 -1 1064.8528 487.8043)" style="fill:#EBEBEB;" width="13.36" height="45.926"/>
							</g>
						</g>
					</g>
				</g>
			</g>
		</g>
		<g>
			<g>
				<g>
					<g>
						<g>
							<g>
								<path style="fill:#EBEBEB;" d="M583.086,220.788c0,0-0.657-0.437,0.789-2.332c1.447-1.895-0.789-2.916-0.789-2.916
									c-6.313,3.645-15.126,0-15.126,0s10.391-3.207,11.706-6.269c0.982-2.287-0.75-2.54-1.69-2.522
									c1.06-0.111,3.357-0.487,4.057-1.706c0.921-1.604-2.696-3.499-2.696-3.499s0.591-0.875,0-2.478
									c-0.591-1.604-14.14-3.936-14.14-3.936c3.946,0.438,5.393-3.499,5.393-3.499s6.708,0.146,8.286-2.478
									c1.578-2.624-1.052-3.353-5.524-5.54c-4.472-2.187-14.337-10.351-14.337-10.351s6.182-0.583,7.892-2.041
									c1.71-1.458,0.132-1.749,0.132-1.749c7.366,0.729,4.867-3.207,4.867-3.207c-9.865-3.062-15.127-9.768-15.127-9.768
									s4.604-1.021,6.972-3.207c2.367-2.187-1.973-2.77-1.973-2.77s8.681-1.167,3.683-4.374
									c-3.799-2.438-9.877-5.717-11.766-6.702c2.071,0.761,6.768-0.15,6.768-0.15c5.525-2.478,0-6.123,0-6.123
									c-6.445-3.644-15.915-12.829-15.915-12.829s4.735,2.478,7.103,1.749c2.367-0.729-2.631-3.645-2.631-3.645
									s2.499,0.729,3.552,0c1.052-0.729-2.763-4.082-2.763-4.082c-5.67-3.684-12.66-13.354-15.584-17.507
									c-2.924,4.153-9.914,13.823-15.584,17.507c0,0-3.814,3.353-2.762,4.082c1.052,0.729,3.551,0,3.551,0
									s-4.998,2.916-2.63,3.645c2.367,0.729,7.103-1.749,7.103-1.749s-9.471,9.185-15.915,12.829c0,0-5.524,3.645,0,6.123
									c0,0,4.697,0.91,6.768,0.15c-1.889,0.985-7.967,4.265-11.766,6.702c-4.999,3.207,3.683,4.374,3.683,4.374
									s-4.341,0.583-1.973,2.77c2.368,2.187,6.971,3.207,6.971,3.207s-5.261,6.706-15.126,9.768c0,0-2.499,3.936,4.867,3.207
									c0,0-1.578,0.291,0.132,1.749c1.71,1.458,7.892,2.041,7.892,2.041s-9.865,8.164-14.337,10.351
									c-4.472,2.187-7.103,2.915-5.525,5.54c1.579,2.624,8.287,2.478,8.287,2.478s1.447,3.936,5.392,3.499
									c0,0-13.549,2.333-14.14,3.936c-0.592,1.604,0,2.478,0,2.478s-3.617,1.895-2.696,3.499c0.7,1.219,2.997,1.596,4.057,1.706
									c-0.94-0.018-2.672,0.235-1.69,2.522c1.315,3.061,11.706,6.269,11.706,6.269s-8.813,3.645-15.126,0
									c0,0-2.236,1.021-0.789,2.916c1.447,1.895,0.789,2.332,0.789,2.332s-3.288-2.478-1.841,1.312
									c1.446,3.791,9.076,6.123,9.076,6.123s-4.341,0.729-3.026,3.062c1.315,2.333,6.84,5.102,12.89,5.686
									c6.051,0.583,14.206-1.604,14.206-1.604s-5.524,2.916-1.71,4.519c3.815,1.604,8.155-2.041,8.155-2.041
									s-0.789,3.731,2.368,2.449c3.157-1.283,5.787-3.761,5.787-3.761s0.986,5.498,2.956,4.183
									c1.971,1.315,2.957-4.183,2.957-4.183s2.631,2.478,5.788,3.761c3.157,1.282,2.368-2.449,2.368-2.449s4.34,3.645,8.155,2.041
									c3.814-1.603-1.71-4.519-1.71-4.519s8.155,2.187,14.206,1.604c6.05-0.583,11.575-3.353,12.89-5.686
									c1.315-2.333-3.025-3.062-3.025-3.062s7.629-2.332,9.076-6.123C586.375,218.31,583.086,220.788,583.086,220.788z"/>
							</g>
						</g>
					</g>
				</g>
			</g>
		</g>
	</g>
	<g>
		<g>
			<g>
				<g>
					<g>
						<g>
							<path style="fill:#EBEBEB;" d="M453.093,223.528c0,0-0.568-0.378,0.682-2.015c1.25-1.637-0.682-2.519-0.682-2.519
								c-5.454,3.149-13.067,0-13.067,0s8.977-2.771,10.113-5.416c0.849-1.975-0.648-2.194-1.46-2.178
								c0.916-0.095,2.9-0.42,3.505-1.474c0.796-1.386-2.329-3.023-2.329-3.023s0.511-0.756,0-2.141
								c-0.511-1.385-12.216-3.401-12.216-3.401c3.409,0.378,4.659-3.023,4.659-3.023s5.795,0.126,7.159-2.141
								c1.363-2.267-0.909-2.897-4.772-4.786c-3.864-1.889-12.385-8.942-12.385-8.942s5.341-0.504,6.818-1.764
								c1.477-1.259,0.114-1.511,0.114-1.511c6.363,0.63,4.204-2.77,4.204-2.77c-8.522-2.645-13.068-8.438-13.068-8.438
								s3.977-0.882,6.023-2.771c2.045-1.889-1.705-2.393-1.705-2.393s7.5-1.008,3.182-3.778c-3.282-2.106-8.532-4.939-10.165-5.79
								c1.789,0.657,5.847-0.129,5.847-0.129c4.773-2.141,0-5.29,0-5.29c-5.568-3.148-13.749-11.083-13.749-11.083
								s4.091,2.141,6.136,1.511c2.045-0.63-2.273-3.149-2.273-3.149s2.159,0.63,3.068,0c0.909-0.63-2.387-3.526-2.387-3.526
								c-4.898-3.183-10.937-11.536-13.463-15.124c-2.526,3.588-8.564,11.941-13.463,15.124c0,0-3.295,2.896-2.386,3.526
								c0.909,0.63,3.068,0,3.068,0s-4.318,2.519-2.272,3.149c2.045,0.63,6.136-1.511,6.136-1.511s-8.181,7.934-13.749,11.083
								c0,0-4.772,3.149,0,5.29c0,0,4.058,0.786,5.847,0.129c-1.632,0.851-6.883,3.684-10.164,5.79
								c-4.318,2.771,3.181,3.778,3.181,3.778s-3.75,0.504-1.704,2.393c2.045,1.889,6.023,2.771,6.023,2.771
								s-4.545,5.793-13.068,8.438c0,0-2.159,3.4,4.204,2.77c0,0-1.363,0.252,0.114,1.511c1.477,1.26,6.818,1.764,6.818,1.764
								s-8.522,7.053-12.386,8.942c-3.864,1.889-6.136,2.519-4.773,4.786c1.364,2.267,7.159,2.141,7.159,2.141
								s1.25,3.401,4.659,3.023c0,0-11.704,2.015-12.215,3.401c-0.511,1.385,0,2.141,0,2.141s-3.124,1.637-2.329,3.023
								c0.605,1.054,2.589,1.378,3.505,1.474c-0.812-0.016-2.308,0.203-1.46,2.178c1.136,2.645,10.113,5.416,10.113,5.416
								s-7.613,3.149-13.067,0c0,0-1.932,0.882-0.682,2.519c1.25,1.637,0.682,2.015,0.682,2.015s-2.841-2.141-1.591,1.133
								c1.249,3.275,7.84,5.29,7.84,5.29s-3.75,0.63-2.614,2.645c1.136,2.015,5.909,4.408,11.136,4.912
								c5.227,0.504,12.272-1.385,12.272-1.385s-4.773,2.519-1.477,3.904c3.296,1.385,7.045-1.763,7.045-1.763
								s-0.682,3.223,2.045,2.116c2.727-1.108,5-3.249,5-3.249s0.852,4.75,2.554,3.614c1.703,1.136,2.554-3.614,2.554-3.614
								s2.273,2.141,5,3.249c2.727,1.108,2.045-2.116,2.045-2.116s3.75,3.148,7.045,1.763c3.295-1.385-1.477-3.904-1.477-3.904
								s7.045,1.889,12.272,1.385c5.227-0.504,9.999-2.897,11.136-4.912c1.136-2.015-2.614-2.645-2.614-2.645s6.59-2.015,7.84-5.29
								C455.933,221.387,453.093,223.528,453.093,223.528z"/>
						</g>
					</g>
				</g>
			</g>
		</g>
	</g>
	<g>
		<g>
			<g>
				<g>
					<g>
						<g>
							<path d="M167.122,133.613c-0.071-0.033-0.14-0.064-0.206-0.095C166.99,133.538,167.058,133.572,167.122,133.613z"/>
						</g>
					</g>
				</g>
			</g>
		</g>
	</g>
	<g>
		<g>
			<g>
				<g>
					<g>
						<g>
							<g>
								
									<rect x="265.073" y="215.066" transform="matrix(-1 -1.224647e-16 1.224647e-16 -1 545.2142 481.9314)" style="fill:#EBEBEB;" width="15.068" height="51.799"/>
							</g>
						</g>
					</g>
				</g>
			</g>
		</g>
		<g>
			<g>
				<g>
					<g>
						<g>
							<g>
								<path style="fill:#EBEBEB;" d="M329.745,214.896c0,0-0.742-0.493,0.89-2.631c1.632-2.138-0.89-3.289-0.89-3.289
									c-7.121,4.111-17.06,0-17.06,0s11.72-3.617,13.203-7.07c1.108-2.579-0.846-2.865-1.906-2.844
									c1.196-0.125,3.787-0.549,4.576-1.924c1.039-1.809-3.04-3.946-3.04-3.946s0.667-0.987,0-2.795
									c-0.667-1.809-15.949-4.44-15.949-4.44c4.451,0.494,6.083-3.946,6.083-3.946s7.566,0.164,9.346-2.795
									c1.78-2.96-1.187-3.782-6.231-6.248c-5.044-2.467-16.17-11.674-16.17-11.674s6.972-0.658,8.901-2.302
									c1.929-1.644,0.148-1.973,0.148-1.973c8.308,0.822,5.489-3.617,5.489-3.617c-11.126-3.453-17.061-11.017-17.061-11.017
									s5.193-1.151,7.863-3.618c2.67-2.466-2.226-3.124-2.226-3.124s9.792-1.316,4.154-4.933c-4.285-2.75-11.14-6.448-13.271-7.56
									c2.335,0.858,7.633-0.169,7.633-0.169c6.231-2.795,0-6.906,0-6.906c-7.269-4.11-17.951-14.469-17.951-14.469
									s5.341,2.795,8.011,1.973c2.67-0.822-2.967-4.111-2.967-4.111s2.819,0.822,4.006,0c1.187-0.822-3.116-4.604-3.116-4.604
									c-6.395-4.155-14.279-15.061-17.577-19.746c-3.298,4.684-11.182,15.59-17.577,19.746c0,0-4.302,3.781-3.115,4.604
									c1.187,0.822,4.005,0,4.005,0s-5.637,3.289-2.967,4.111c2.67,0.822,8.011-1.973,8.011-1.973s-10.681,10.359-17.951,14.469
									c0,0-6.231,4.111,0,6.906c0,0,5.298,1.027,7.633,0.169c-2.131,1.111-8.986,4.81-13.27,7.56
									c-5.638,3.617,4.154,4.933,4.154,4.933s-4.896,0.658-2.225,3.124c2.67,2.466,7.863,3.618,7.863,3.618
									s-5.934,7.564-17.061,11.017c0,0-2.818,4.439,5.489,3.617c0,0-1.78,0.329,0.148,1.973c1.928,1.644,8.901,2.302,8.901,2.302
									s-11.126,9.208-16.171,11.674c-5.044,2.466-8.011,3.288-6.231,6.248c1.781,2.959,9.346,2.795,9.346,2.795
									s1.632,4.44,6.082,3.946c0,0-15.281,2.631-15.948,4.44c-0.667,1.809,0,2.795,0,2.795s-4.079,2.137-3.041,3.946
									c0.79,1.376,3.38,1.8,4.576,1.924c-1.061-0.021-3.014,0.265-1.906,2.844c1.483,3.453,13.204,7.07,13.204,7.07
									s-9.94,4.111-17.061,0c0,0-2.522,1.151-0.89,3.289c1.632,2.137,0.89,2.631,0.89,2.631s-3.709-2.795-2.077,1.48
									c1.631,4.275,10.236,6.906,10.236,6.906s-4.896,0.822-3.412,3.453c1.483,2.631,7.714,5.755,14.538,6.413
									c6.824,0.658,16.022-1.809,16.022-1.809s-6.231,3.289-1.929,5.097c4.303,1.809,9.198-2.302,9.198-2.302
									s-0.89,4.208,2.67,2.762c3.561-1.447,6.527-4.242,6.527-4.242s1.112,6.201,3.335,4.718c2.223,1.484,3.335-4.718,3.335-4.718
									s2.967,2.795,6.528,4.242c3.56,1.446,2.671-2.762,2.671-2.762s4.895,4.111,9.198,2.302c4.302-1.808-1.929-5.097-1.929-5.097
									s9.198,2.466,16.022,1.809c6.824-0.658,13.055-3.782,14.539-6.413c1.483-2.631-3.412-3.453-3.412-3.453
									s8.604-2.631,10.236-6.906C333.454,212.101,329.745,214.896,329.745,214.896z"/>
							</g>
						</g>
					</g>
				</g>
			</g>
		</g>
		<g>
			<g>
				<g>
					<g>
						<g>
							<g>
								<path d="M296.313,116.573c-0.08-0.037-0.158-0.073-0.233-0.107C296.165,116.489,296.241,116.526,296.313,116.573z"/>
							</g>
						</g>
					</g>
				</g>
			</g>
		</g>
	</g>
	<g>
		<g>
			<g>
				<g>
					<g>
						<g>
							<g>
								
									<rect x="346.68" y="233.023" transform="matrix(-1 -1.224647e-16 1.224647e-16 -1 703.1557 499.6531)" style="fill:#E0E0E0;" width="9.795" height="33.608"/>
							</g>
						</g>
					</g>
				</g>
			</g>
		</g>
		<g>
			<g>
				<g>
					<g>
						<g>
							<g>
								<path style="fill:#E0E0E0;" d="M388.72,232.912c0,0-0.482-0.32,0.579-1.707c1.061-1.387-0.579-2.134-0.579-2.134
									c-4.629,2.667-11.09,0-11.09,0s7.618-2.347,8.582-4.587c0.72-1.674-0.55-1.859-1.239-1.845
									c0.778-0.081,2.461-0.356,2.975-1.248c0.675-1.174-1.976-2.561-1.976-2.561s0.433-0.64,0-1.813
									c-0.434-1.174-10.367-2.881-10.367-2.881c2.893,0.32,3.954-2.56,3.954-2.56s4.918,0.107,6.075-1.814
									c1.157-1.92-0.772-2.454-4.05-4.054c-3.279-1.6-10.511-7.575-10.511-7.575s4.532-0.427,5.786-1.494
									c1.254-1.067,0.097-1.28,0.097-1.28c5.4,0.533,3.568-2.347,3.568-2.347c-7.233-2.241-11.09-7.148-11.09-7.148
									s3.375-0.747,5.111-2.347c1.736-1.6-1.447-2.027-1.447-2.027s6.365-0.854,2.7-3.201c-2.785-1.784-7.241-4.184-8.626-4.905
									c1.518,0.557,4.962-0.109,4.962-0.109c4.05-1.814,0-4.481,0-4.481c-4.725-2.667-11.669-9.388-11.669-9.388
									s3.472,1.813,5.208,1.28c1.736-0.533-1.929-2.667-1.929-2.667s1.832,0.533,2.604,0c0.771-0.533-2.025-2.987-2.025-2.987
									c-4.157-2.696-9.282-9.772-11.426-12.811c-2.144,3.039-7.268,10.115-11.425,12.811c0,0-2.796,2.454-2.025,2.987
									c0.771,0.533,2.604,0,2.604,0s-3.664,2.134-1.928,2.667c1.736,0.533,5.207-1.28,5.207-1.28s-6.943,6.721-11.669,9.388
									c0,0-4.05,2.667,0,4.481c0,0,3.444,0.666,4.962,0.109c-1.385,0.721-5.841,3.121-8.626,4.905
									c-3.665,2.347,2.7,3.201,2.7,3.201s-3.182,0.427-1.446,2.027c1.736,1.6,5.111,2.347,5.111,2.347s-3.857,4.908-11.09,7.148
									c0,0-1.832,2.88,3.568,2.347c0,0-1.157,0.213,0.096,1.28c1.254,1.067,5.786,1.494,5.786,1.494s-7.233,5.974-10.512,7.575
									c-3.279,1.6-5.207,2.133-4.05,4.054c1.158,1.92,6.075,1.814,6.075,1.814s1.061,2.88,3.954,2.56
									c0,0-9.933,1.707-10.367,2.881c-0.434,1.173,0,1.813,0,1.813s-2.652,1.387-1.976,2.561c0.513,0.892,2.197,1.168,2.974,1.248
									c-0.689-0.013-1.959,0.172-1.239,1.845c0.964,2.24,8.583,4.587,8.583,4.587s-6.461,2.667-11.09,0
									c0,0-1.64,0.747-0.579,2.134c1.061,1.387,0.579,1.707,0.579,1.707s-2.411-1.813-1.35,0.96
									c1.06,2.774,6.654,4.481,6.654,4.481s-3.182,0.533-2.218,2.24c0.964,1.707,5.015,3.734,9.451,4.161
									c4.436,0.427,10.415-1.174,10.415-1.174s-4.05,2.134-1.254,3.307c2.797,1.173,5.979-1.493,5.979-1.493
									s-0.579,2.73,1.736,1.792c2.315-0.939,4.243-2.752,4.243-2.752s0.723,4.024,2.168,3.061
									c1.445,0.963,2.168-3.061,2.168-3.061s1.929,1.814,4.243,2.752c2.314,0.938,1.736-1.792,1.736-1.792
									s3.182,2.667,5.979,1.493c2.797-1.173-1.254-3.307-1.254-3.307s5.979,1.6,10.415,1.174c4.436-0.427,8.486-2.454,9.451-4.161
									c0.964-1.707-2.218-2.24-2.218-2.24s5.593-1.707,6.654-4.481C391.131,231.099,388.72,232.912,388.72,232.912z"/>
							</g>
						</g>
					</g>
				</g>
			</g>
		</g>
		<g>
			<g>
				<g>
					<g>
						<g>
							<g>
								<path style="fill:#E0E0E0;" d="M366.988,169.119c-0.052-0.024-0.103-0.047-0.151-0.07
									C366.891,169.064,366.941,169.089,366.988,169.119z"/>
							</g>
						</g>
					</g>
				</g>
			</g>
		</g>
	</g>
	<g>
		<g>
			<g>
				<g>
					<g>
						<g>
							<g>
								
									<rect x="61.191" y="237.581" transform="matrix(-1 -1.224647e-16 1.224647e-16 -1 130.7914 504.0687)" style="fill:#EBEBEB;" width="8.409" height="28.908"/>
							</g>
						</g>
					</g>
				</g>
			</g>
		</g>
		<g>
			<g>
				<g>
					<g>
						<g>
							<g>
								<path style="fill:#E0E0E0;" d="M97.283,237.485c0,0-0.414-0.275,0.497-1.468c0.911-1.193-0.497-1.835-0.497-1.835
									c-3.974,2.294-9.521,0-9.521,0s6.54-2.019,7.368-3.946c0.618-1.439-0.472-1.599-1.063-1.587
									c0.667-0.07,2.113-0.306,2.554-1.074c0.58-1.01-1.697-2.202-1.697-2.202s0.372-0.551,0-1.56
									c-0.372-1.01-8.901-2.478-8.901-2.478c2.484,0.275,3.395-2.202,3.395-2.202s4.222,0.092,5.216-1.56
									c0.993-1.652-0.662-2.111-3.477-3.487c-2.815-1.376-9.024-6.515-9.024-6.515s3.891-0.367,4.967-1.285
									c1.076-0.918,0.083-1.101,0.083-1.101c4.636,0.459,3.063-2.019,3.063-2.019c-6.209-1.927-9.521-6.148-9.521-6.148
									s2.898-0.642,4.388-2.019c1.49-1.376-1.242-1.743-1.242-1.743s5.464-0.734,2.318-2.753
									c-2.391-1.535-6.217-3.599-7.406-4.219c1.303,0.479,4.26-0.094,4.26-0.094c3.477-1.56,0-3.854,0-3.854
									c-4.057-2.294-10.018-8.075-10.018-8.075s2.981,1.56,4.471,1.101c1.49-0.459-1.656-2.294-1.656-2.294s1.573,0.459,2.235,0
									c0.662-0.459-1.739-2.569-1.739-2.569c-3.569-2.319-7.969-8.405-9.809-11.02c-1.84,2.614-6.24,8.701-9.809,11.02
									c0,0-2.401,2.11-1.739,2.569c0.662,0.459,2.235,0,2.235,0s-3.146,1.835-1.656,2.294c1.49,0.459,4.471-1.101,4.471-1.101
									s-5.961,5.781-10.018,8.075c0,0-3.477,2.294,0,3.854c0,0,2.957,0.573,4.26,0.094c-1.189,0.62-5.015,2.684-7.406,4.219
									c-3.146,2.019,2.318,2.753,2.318,2.753s-2.732,0.367-1.242,1.743c1.49,1.376,4.388,2.019,4.388,2.019
									s-3.312,4.221-9.521,6.148c0,0-1.573,2.478,3.063,2.019c0,0-0.993,0.184,0.083,1.101c1.076,0.918,4.968,1.285,4.968,1.285
									s-6.209,5.139-9.024,6.515c-2.815,1.376-4.471,1.835-3.477,3.487c0.994,1.652,5.216,1.56,5.216,1.56
									s0.911,2.478,3.394,2.202c0,0-8.528,1.468-8.9,2.478c-0.372,1.009,0,1.56,0,1.56s-2.276,1.193-1.697,2.202
									c0.441,0.768,1.886,1.004,2.554,1.074c-0.592-0.012-1.682,0.148-1.063,1.587c0.828,1.927,7.368,3.946,7.368,3.946
									s-5.547,2.294-9.521,0c0,0-1.408,0.642-0.497,1.835c0.911,1.193,0.497,1.468,0.497,1.468s-2.07-1.56-1.159,0.826
									c0.91,2.386,5.712,3.854,5.712,3.854s-2.732,0.459-1.904,1.927c0.828,1.468,4.305,3.212,8.113,3.579
									c3.809,0.367,8.942-1.009,8.942-1.009S52,248.497,54.4,249.506c2.401,1.01,5.133-1.285,5.133-1.285s-0.497,2.348,1.49,1.541
									c1.987-0.807,3.643-2.367,3.643-2.367s0.62,3.461,1.861,2.633c1.241,0.828,1.861-2.633,1.861-2.633s1.656,1.56,3.643,2.367
									c1.987,0.807,1.49-1.541,1.49-1.541s2.732,2.294,5.133,1.285c2.401-1.009-1.076-2.844-1.076-2.844s5.133,1.376,8.941,1.009
									c3.808-0.367,7.286-2.111,8.114-3.579c0.828-1.468-1.904-1.927-1.904-1.927s4.802-1.468,5.713-3.854
									C99.353,235.926,97.283,237.485,97.283,237.485z"/>
							</g>
						</g>
					</g>
				</g>
			</g>
		</g>
		<g>
			<g>
				<g>
					<g>
						<g>
							<g>
								<path d="M78.626,182.614c-0.045-0.02-0.088-0.04-0.13-0.06C78.543,182.567,78.586,182.588,78.626,182.614z"/>
							</g>
						</g>
					</g>
				</g>
			</g>
		</g>
	</g>
	<g>
		<g>
			<g>
				<g>
					<g>
						<g>
							<g>
								
									<rect x="684.33" y="237.581" transform="matrix(-1 -1.224647e-16 1.224647e-16 -1 1377.0684 504.0687)" style="fill:#EBEBEB;" width="8.409" height="28.908"/>
							</g>
						</g>
					</g>
				</g>
			</g>
		</g>
		<g>
			<g>
				<g>
					<g>
						<g>
							<g>
								<path style="fill:#E0E0E0;" d="M720.422,237.485c0,0-0.414-0.275,0.497-1.468c0.911-1.193-0.497-1.835-0.497-1.835
									c-3.974,2.294-9.521,0-9.521,0s6.54-2.019,7.368-3.946c0.618-1.439-0.472-1.599-1.063-1.587
									c0.667-0.07,2.113-0.306,2.554-1.074c0.58-1.01-1.697-2.202-1.697-2.202s0.372-0.551,0-1.56
									c-0.372-1.01-8.9-2.478-8.9-2.478c2.484,0.275,3.394-2.202,3.394-2.202s4.222,0.092,5.216-1.56
									c0.993-1.652-0.662-2.111-3.477-3.487c-2.815-1.376-9.024-6.515-9.024-6.515s3.891-0.367,4.967-1.285
									c1.076-0.918,0.083-1.101,0.083-1.101c4.636,0.459,3.063-2.019,3.063-2.019c-6.209-1.927-9.521-6.148-9.521-6.148
									s2.898-0.642,4.388-2.019c1.49-1.376-1.242-1.743-1.242-1.743s5.464-0.734,2.318-2.753
									c-2.391-1.535-6.217-3.599-7.406-4.219c1.303,0.479,4.26-0.094,4.26-0.094c3.477-1.56,0-3.854,0-3.854
									c-4.057-2.294-10.018-8.075-10.018-8.075s2.981,1.56,4.471,1.101c1.49-0.459-1.656-2.294-1.656-2.294s1.573,0.459,2.235,0
									c0.662-0.459-1.739-2.569-1.739-2.569c-3.569-2.319-7.969-8.405-9.809-11.02c-1.841,2.614-6.24,8.701-9.809,11.02
									c0,0-2.401,2.11-1.738,2.569c0.662,0.459,2.235,0,2.235,0s-3.146,1.835-1.656,2.294c1.49,0.459,4.471-1.101,4.471-1.101
									s-5.961,5.781-10.018,8.075c0,0-3.477,2.294,0,3.854c0,0,2.957,0.573,4.26,0.094c-1.189,0.62-5.015,2.684-7.406,4.219
									c-3.146,2.019,2.318,2.753,2.318,2.753s-2.732,0.367-1.242,1.743c1.49,1.376,4.388,2.019,4.388,2.019
									s-3.312,4.221-9.521,6.148c0,0-1.573,2.478,3.063,2.019c0,0-0.993,0.184,0.083,1.101c1.076,0.918,4.968,1.285,4.968,1.285
									s-6.209,5.139-9.024,6.515c-2.815,1.376-4.471,1.835-3.477,3.487c0.994,1.652,5.216,1.56,5.216,1.56
									s0.911,2.478,3.394,2.202c0,0-8.528,1.468-8.9,2.478c-0.372,1.009,0,1.56,0,1.56s-2.276,1.193-1.697,2.202
									c0.441,0.768,1.886,1.004,2.554,1.074c-0.592-0.012-1.682,0.148-1.064,1.587c0.828,1.927,7.369,3.946,7.369,3.946
									s-5.547,2.294-9.521,0c0,0-1.408,0.642-0.497,1.835c0.911,1.193,0.497,1.468,0.497,1.468s-2.07-1.56-1.159,0.826
									c0.91,2.386,5.712,3.854,5.712,3.854s-2.732,0.459-1.904,1.927c0.828,1.468,4.305,3.212,8.114,3.579
									c3.808,0.367,8.942-1.009,8.942-1.009s-3.477,1.835-1.077,2.844c2.401,1.01,5.133-1.285,5.133-1.285
									s-0.497,2.348,1.49,1.541c1.987-0.807,3.643-2.367,3.643-2.367s0.62,3.461,1.861,2.633c1.241,0.828,1.861-2.633,1.861-2.633
									s1.656,1.56,3.643,2.367c1.987,0.807,1.49-1.541,1.49-1.541s2.732,2.294,5.133,1.285c2.401-1.009-1.076-2.844-1.076-2.844
									s5.133,1.376,8.941,1.009c3.808-0.367,7.285-2.111,8.114-3.579c0.828-1.468-1.904-1.927-1.904-1.927
									s4.802-1.468,5.713-3.854C722.491,235.926,720.422,237.485,720.422,237.485z"/>
							</g>
						</g>
					</g>
				</g>
			</g>
		</g>
		<g>
			<g>
				<g>
					<g>
						<g>
							<g>
								<path d="M701.764,182.614c-0.045-0.02-0.089-0.04-0.13-0.06C701.681,182.567,701.724,182.588,701.764,182.614z"/>
							</g>
						</g>
					</g>
				</g>
			</g>
		</g>
	</g>
	<g>
		<g>
			<g>
				<g>
					<g>
						<g>
							<g>
								
									<rect x="483.188" y="237.581" transform="matrix(-1 -1.224647e-16 1.224647e-16 -1 974.7849 504.0687)" style="fill:#EBEBEB;" width="8.409" height="28.908"/>
							</g>
						</g>
					</g>
				</g>
			</g>
		</g>
		<g>
			<g>
				<g>
					<g>
						<g>
							<g>
								<path style="fill:#E0E0E0;" d="M519.28,237.485c0,0-0.414-0.275,0.497-1.468c0.911-1.193-0.497-1.835-0.497-1.835
									c-3.974,2.294-9.521,0-9.521,0s6.54-2.019,7.368-3.946c0.618-1.439-0.472-1.599-1.064-1.587
									c0.667-0.07,2.113-0.306,2.554-1.074c0.58-1.01-1.697-2.202-1.697-2.202s0.372-0.551,0-1.56
									c-0.372-1.01-8.9-2.478-8.9-2.478c2.484,0.275,3.395-2.202,3.395-2.202s4.222,0.092,5.216-1.56
									c0.993-1.652-0.662-2.111-3.477-3.487c-2.815-1.376-9.024-6.515-9.024-6.515s3.891-0.367,4.967-1.285
									c1.076-0.918,0.083-1.101,0.083-1.101c4.636,0.459,3.063-2.019,3.063-2.019c-6.209-1.927-9.521-6.148-9.521-6.148
									s2.898-0.642,4.388-2.019c1.49-1.376-1.242-1.743-1.242-1.743s5.464-0.734,2.318-2.753
									c-2.391-1.535-6.217-3.599-7.406-4.219c1.303,0.479,4.26-0.094,4.26-0.094c3.477-1.56,0-3.854,0-3.854
									c-4.057-2.294-10.018-8.075-10.018-8.075s2.981,1.56,4.471,1.101c1.49-0.459-1.656-2.294-1.656-2.294s1.573,0.459,2.236,0
									c0.662-0.459-1.739-2.569-1.739-2.569c-3.569-2.319-7.969-8.405-9.809-11.02c-1.84,2.614-6.24,8.701-9.809,11.02
									c0,0-2.401,2.11-1.739,2.569c0.662,0.459,2.235,0,2.235,0s-3.146,1.835-1.656,2.294c1.49,0.459,4.471-1.101,4.471-1.101
									s-5.961,5.781-10.018,8.075c0,0-3.477,2.294,0,3.854c0,0,2.956,0.573,4.26,0.094c-1.189,0.62-5.015,2.684-7.406,4.219
									c-3.146,2.019,2.318,2.753,2.318,2.753s-2.732,0.367-1.242,1.743c1.49,1.376,4.388,2.019,4.388,2.019
									s-3.312,4.221-9.521,6.148c0,0-1.573,2.478,3.063,2.019c0,0-0.993,0.184,0.083,1.101c1.076,0.918,4.968,1.285,4.968,1.285
									s-6.21,5.139-9.025,6.515c-2.815,1.376-4.471,1.835-3.477,3.487c0.994,1.652,5.216,1.56,5.216,1.56s0.911,2.478,3.394,2.202
									c0,0-8.528,1.468-8.9,2.478c-0.372,1.009,0,1.56,0,1.56s-2.276,1.193-1.697,2.202c0.441,0.768,1.886,1.004,2.554,1.074
									c-0.592-0.012-1.682,0.148-1.064,1.587c0.828,1.927,7.368,3.946,7.368,3.946s-5.547,2.294-9.521,0
									c0,0-1.408,0.642-0.497,1.835c0.911,1.193,0.497,1.468,0.497,1.468s-2.07-1.56-1.159,0.826
									c0.91,2.386,5.712,3.854,5.712,3.854s-2.732,0.459-1.904,1.927c0.828,1.468,4.305,3.212,8.114,3.579
									c3.808,0.367,8.942-1.009,8.942-1.009s-3.477,1.835-1.077,2.844c2.401,1.01,5.133-1.285,5.133-1.285
									s-0.497,2.348,1.49,1.541c1.987-0.807,3.643-2.367,3.643-2.367s0.62,3.461,1.861,2.633c1.241,0.828,1.861-2.633,1.861-2.633
									s1.656,1.56,3.643,2.367c1.987,0.807,1.49-1.541,1.49-1.541s2.732,2.294,5.133,1.285c2.401-1.009-1.076-2.844-1.076-2.844
									s5.133,1.376,8.941,1.009c3.808-0.367,7.286-2.111,8.114-3.579c0.828-1.468-1.904-1.927-1.904-1.927
									s4.802-1.468,5.713-3.854C521.35,235.926,519.28,237.485,519.28,237.485z"/>
							</g>
						</g>
					</g>
				</g>
			</g>
		</g>
		<g>
			<g>
				<g>
					<g>
						<g>
							<g>
								<path d="M500.622,182.614c-0.045-0.02-0.089-0.04-0.13-0.06C500.539,182.567,500.582,182.588,500.622,182.614z"/>
							</g>
						</g>
					</g>
				</g>
			</g>
		</g>
	</g>
	<g>
		<g>
			<g>
				<g>
					<g>
						<path style="fill:#E0E0E0;" d="M342.798,80.915c-0.011,0.032-0.559-0.193-1.593-0.423c-1.029-0.226-2.573-0.426-4.446-0.171
							c-1.859,0.249-4.063,0.996-5.991,2.584c-1.924,1.558-3.571,3.917-4.229,6.715c-0.007,0.026-0.013,0.051-0.019,0.074
							l-0.123,0.48l-0.184-0.455c-1.076-2.658-2.989-4.771-5.063-6.114c-2.08-1.368-4.317-1.934-6.183-2.062
							c-1.878-0.131-3.402,0.139-4.418,0.404c-1.02,0.269-1.559,0.506-1.57,0.476c-0.004-0.01,0.128-0.074,0.384-0.185
							c0.255-0.113,0.642-0.261,1.153-0.411c1.015-0.305,2.553-0.615,4.466-0.511c1.899,0.1,4.193,0.654,6.33,2.039
							c2.13,1.36,4.097,3.515,5.202,6.243l-0.307,0.025c0.006-0.024,0.013-0.05,0.02-0.077c0.677-2.877,2.374-5.289,4.356-6.873
							c1.987-1.615,4.253-2.356,6.149-2.579c1.911-0.23,3.474,0.009,4.504,0.275c0.518,0.13,0.912,0.265,1.172,0.371
							C342.668,80.845,342.802,80.905,342.798,80.915z"/>
					</g>
				</g>
			</g>
		</g>
		<g>
			<g>
				<g>
					<g>
						<path style="fill:#E0E0E0;" d="M372.249,90.722c-0.01,0.027-0.314-0.088-0.883-0.205c-0.565-0.115-1.411-0.216-2.432-0.071
							c-1.015,0.143-2.212,0.555-3.26,1.422c-1.046,0.851-1.94,2.136-2.297,3.658l-0.01,0.04l-0.123,0.48l-0.184-0.455
							c-0.586-1.447-1.625-2.599-2.754-3.334c-1.131-0.748-2.348-1.062-3.368-1.139c-1.026-0.078-1.86,0.061-2.419,0.199
							c-0.561,0.139-0.861,0.26-0.871,0.234c-0.004-0.01,0.066-0.05,0.206-0.116c0.139-0.067,0.351-0.152,0.632-0.24
							c0.558-0.177,1.408-0.356,2.467-0.305c1.052,0.049,2.326,0.351,3.515,1.117c1.184,0.752,2.278,1.947,2.892,3.463l-0.307,0.025
							l0.011-0.043c0.376-1.6,1.322-2.939,2.425-3.816c1.106-0.894,2.367-1.3,3.418-1.417c1.06-0.121,1.923,0.02,2.491,0.175
							c0.285,0.076,0.501,0.155,0.643,0.218C372.181,90.674,372.253,90.711,372.249,90.722z"/>
					</g>
				</g>
			</g>
		</g>
		<g>
			<g>
				<g>
					<g>
						<path style="fill:#E0E0E0;" d="M355.851,41.244c0.02,0.02-0.304,0.349-0.855,0.969c-0.551,0.62-1.302,1.561-2.086,2.817
							c-1.576,2.479-3.152,6.43-3.098,10.963c0,0.047-0.001,0.095-0.001,0.138l-0.321,0.027c-0.335-2.211-1.073-4.241-2.004-5.937
							c-0.929-1.701-2.021-3.083-3.052-4.123c-1.03-1.043-1.969-1.779-2.646-2.243c-0.675-0.467-1.066-0.702-1.052-0.727
							c0.005-0.01,0.108,0.04,0.299,0.143c0.188,0.109,0.479,0.248,0.822,0.48c0.702,0.436,1.673,1.151,2.737,2.187
							c1.065,1.032,2.192,2.419,3.151,4.14c0.961,1.715,1.722,3.779,2.064,6.034l-0.321,0.027c0-0.044,0.001-0.092,0.001-0.14
							c-0.055-4.612,1.585-8.615,3.228-11.089c0.817-1.254,1.603-2.182,2.186-2.779c0.281-0.309,0.531-0.518,0.689-0.67
							C355.755,41.309,355.844,41.236,355.851,41.244z"/>
					</g>
				</g>
			</g>
		</g>
	</g>
</g>
<g id="Background_Simple" style="display:none;">
	<path style="display:inline;fill:#F5F5F5;" d="M332.708,104.439l0.969,2.449c8.166,20.642,4.704,44.146-9.665,60.802
		c-1.847,2.141-3.849,4.149-5.996,6c-15.463,13.325-37.983,18.046-57.736,12.105c-11.617-3.494-22.763-10.459-34.808-9.508
		c-15.676,1.238-26.694,15.161-35.735,27.893c-9.041,12.731-20.103,26.636-35.785,27.805c-9.821,0.732-19.441-3.961-27.004-10.354
		c-20.023-16.925-27.658-45.606-22.914-71.125c4.744-25.519,20.416-47.917,39.835-65.06c27.204-24.015,63.333-39.077,99.854-36.906
		C280.245,50.71,316.376,71.642,332.708,104.439z"/>
	<path style="display:inline;fill:#F5F5F5;" d="M421.489,95.143l-0.969,2.449c-8.166,20.642-4.704,44.146,9.664,60.802
		c1.847,2.141,3.849,4.149,5.996,6c15.463,13.325,37.983,18.046,57.736,12.105c11.617-3.494,22.763-10.459,34.808-9.508
		c15.676,1.238,26.694,15.161,35.735,27.893c9.041,12.731,20.103,26.637,35.785,27.805c9.821,0.732,19.44-3.961,27.003-10.354
		c20.023-16.925,27.658-45.606,22.914-71.125c-4.744-25.519-20.416-47.917-39.835-65.06c-27.204-24.015-63.333-39.077-99.854-36.906
		C473.951,41.415,437.821,62.347,421.489,95.143z"/>
</g>
<g id="Floor">
	<g>
		<path style="fill:#263238;" d="M735.994,266.865c0,0.144-161.635,0.26-360.977,0.26c-199.41,0-361.011-0.117-361.011-0.26
			c0-0.144,161.601-0.26,361.011-0.26C574.358,266.605,735.994,266.721,735.994,266.865z"/>
	</g>
</g>
<g id="Car">
	<ellipse style="fill:#EBEBEB;" cx="372.237" cy="424.681" rx="331.676" ry="7.679"/>
	<g>
		<path style="fill:#455A64;" d="M214.685,279.596c0,0,54.861-31.217,72.44-39.79c17.579-8.573,37.482-14.413,37.482-14.413
			l9.186,4.003l-48.378,26.332l-51.746,30.007L214.685,279.596z"/>
		<polygon style="fill:#263238;" points="209.032,275.289 221.01,276.01 238.671,280.161 223.852,283.582 210.517,278.635 		"/>
		<path style="fill:#455A64;" d="M543.912,228.187c0,0,67.21,30.203,87.035,34.236l-5.775,12.455l-33.565-8.84l-27.038-18.128
			l-27.345-11.414c0,0-7.067-8.06-6.145-8.309C532,227.939,543.912,228.187,543.912,228.187z"/>
		<path style="fill:#FF725E;" d="M90.624,387.267c5.247,1.689,394.07,0,394.07,0l165.787-10.535l-4.927-64.777l-521.731-0.79
			l-37.449,24.85v48.187"/>
		<path style="opacity:0.3;" d="M90.624,387.267c5.247,1.689,394.07,0,394.07,0l165.787-10.535l-4.927-64.777l-521.731-0.79
			l-37.449,24.85v48.187"/>
		<path style="fill:#FF725E;" d="M693.237,311.166c0,0-0.83-14.093-0.83-18.218c0-4.125-4.351-13.599-4.351-13.599l1.61-9.692
			c0-3.12-7.349-1.813-10.468-1.871c-25.758-0.485-48.252-5.362-48.252-5.362l-5.775,5.362c-11.55-2.475-86.21-36.711-86.21-36.711
			s3.712-2.475,4.95-2.887c1.237-0.412-23.099-9.487-103.534-13.612c-80.435-4.125-117.971,11.55-117.971,11.55l8.662,2.887
			c-33.824,8.25-92.397,51.148-92.397,51.148c-27.637,0-30.524-5.775-30.524-5.775c-70.948,3.712-134.883,23.512-148.495,29.699
			c-6.806,3.094-15.324,7.176-18.263,11.404c-2.939,4.228-2.031,8.379-2.361,13.758c-0.164,2.674-4.749,10.982-5.002,16.205
			c-0.796,16.429,3.555,34.787,3.555,34.787c0.029,0.911-10.175,5.006-6.094,6.237c12.641,3.811,51.105,7.22,58.277,7.531
			c1.261,0.055,3.828,0.102,7.378,0.142c-1.548-5.24-2.393-10.781-2.393-16.522c0-32.158,26.069-58.227,58.227-58.227
			c32.158,0,58.227,26.069,58.227,58.227c0,5.692-0.832,11.188-2.355,16.388c0.178-0.003,0.362-0.005,0.536-0.008
			c27.224-0.413,256.567-0.825,302.765-2.475c0.572-0.02,1.149-0.041,1.726-0.062c-1.083-4.438-1.669-9.071-1.669-13.843
			c0-32.158,26.069-58.227,58.227-58.227s58.227,26.069,58.227,58.227c0,3.04-0.235,6.025-0.684,8.94
			c0.166,0.005,0.32,0.01,0.494,0.015c13.2,0.413,57.748-7.837,57.748-7.837l14.849-15.674l3.897-34.632L693.237,311.166z"/>
		<g>
			<path style="fill:#263238;" d="M243.383,295.344c0,0.009-0.128,0.019-0.377,0.029c-0.276,0.008-0.642,0.018-1.108,0.032
				c-1.004,0.017-2.433,0.042-4.259,0.073c-3.698,0.077-9.05,0.041-15.66,0.272c-13.22,0.28-31.48,1.069-51.586,2.754
				c-20.11,1.711-38.249,3.968-51.314,6.002c-6.539,0.983-11.805,1.928-15.446,2.573c-1.795,0.335-3.199,0.596-4.186,0.78
				c-0.458,0.085-0.818,0.151-1.089,0.201c-0.246,0.044-0.372,0.062-0.374,0.053c-0.002-0.009,0.121-0.044,0.363-0.105
				c0.268-0.063,0.625-0.146,1.079-0.252c0.949-0.219,2.356-0.508,4.169-0.877c3.631-0.706,8.892-1.708,15.427-2.738
				c13.059-2.129,31.204-4.446,51.328-6.157c20.119-1.686,38.393-2.417,51.622-2.603c6.613-0.184,11.968-0.091,15.667-0.106
				c1.826,0.011,3.256,0.019,4.26,0.025c0.466,0.008,0.832,0.015,1.108,0.02C243.255,295.326,243.383,295.335,243.383,295.344z"/>
		</g>
		<path style="fill:#263238;" d="M74.386,384.203c0,0-7.794-25.98-11.691-26.305c-3.897-0.325-17.537-1.624-18.836,0
			c-1.299,1.624,0,19.81,0,19.81L74.386,384.203z"/>
		<g>
			<path style="fill:#263238;" d="M106.861,341.336c0,0.036-0.559,0.07-1.57,0.101c-1.104,0.021-2.545,0.049-4.282,0.083
				c-3.616,0.047-8.61,0.076-14.126,0.076c-1.379-0.002-2.725-0.004-4.027-0.005c-0.648,0-1.287,0.005-1.94-0.052
				c-0.639-0.091-1.266-0.214-1.837-0.45c-2.345-0.868-3.827-2.801-4.418-4.532c-0.301-0.876-0.422-1.715-0.414-2.447
				c0.002-0.722,0.025-1.338,0.038-1.844c0.031-1.011,0.065-1.57,0.101-1.57c0.036,0,0.07,0.559,0.101,1.57
				c0.078,1.005-0.121,2.51,0.519,4.165c0.605,1.63,2.035,3.421,4.24,4.208c0.537,0.216,1.125,0.323,1.722,0.405
				c0.595,0.047,1.234,0.04,1.887,0.036c1.302-0.002,2.648-0.004,4.027-0.005c5.516,0,10.511,0.029,14.126,0.076
				c1.737,0.034,3.178,0.061,4.282,0.083C106.302,341.266,106.861,341.3,106.861,341.336z"/>
		</g>
		<path style="fill:#455A64;" d="M258.359,280.638c0,0,47.551-30.553,67.903-39.213c20.351-8.66,39.62-12.341,51.961-13.64
			c12.341-1.299,30.96-1.17,42.218-1.343c11.258-0.173,48.28,2.425,61.27,4.157c12.99,1.732,27.987,3.464,46.144,11.908
			c18.157,8.444,48.035,28.362,48.035,30.31c0,1.949-1.516,1.082-1.516,1.082L258.359,280.638z"/>
		<polygon style="fill:#263238;" points="410.728,226.442 395.321,277.718 420.204,277.187 426.412,226.442 		"/>
		<g>
			<path style="opacity:0.3;" d="M386.496,304.752c0,3.938-3.192,7.13-7.129,7.13c-3.938,0-7.13-3.192-7.13-7.13
				c0-3.938,3.192-7.13,7.13-7.13C383.304,297.623,386.496,300.815,386.496,304.752z"/>
			<g>
				<path style="fill:#FF725E;" d="M391.826,308.151h-25.421c-1.741,0-3.153-1.412-3.153-3.153v-0.292
					c0-1.741,1.412-3.153,3.153-3.153h25.421c1.741,0,3.153,1.412,3.153,3.153v0.292
					C394.979,306.74,393.567,308.151,391.826,308.151z"/>
				<g>
					<path style="fill:#263238;" d="M391.826,308.151c-0.001-0.028,0.252-0.02,0.705-0.136c0.441-0.122,1.116-0.397,1.662-1.092
						c0.268-0.343,0.491-0.786,0.597-1.302c0.078-0.512,0.096-1.125-0.065-1.706c-0.298-1.177-1.552-2.302-3.136-2.178
						c-6.497,0.02-15.374,0.047-25.182,0.076c-1.138-0.013-2.213,0.709-2.648,1.724c-0.229,0.51-0.275,1.044-0.241,1.625
						c0.022,0.542,0.216,1.066,0.519,1.502c0.621,0.901,1.679,1.322,2.764,1.237c1.115,0.003,2.207,0.006,3.273,0.009
						c4.248,0.021,8.081,0.04,11.321,0.056c3.179,0.035,5.771,0.063,7.633,0.083c0.86,0.02,1.549,0.036,2.075,0.049
						C391.577,308.116,391.826,308.134,391.826,308.151c0,0.018-0.249,0.036-0.723,0.052c-0.526,0.012-1.215,0.029-2.075,0.049
						c-1.861,0.02-4.454,0.048-7.633,0.083c-3.24,0.016-7.074,0.035-11.321,0.056c-1.066,0.003-2.158,0.006-3.273,0.009
						c-0.536,0.022-1.203-0.027-1.755-0.28c-0.564-0.247-1.065-0.647-1.426-1.161c-0.359-0.511-0.587-1.13-0.616-1.767
						c-0.04-0.591,0.01-1.277,0.281-1.864c0.51-1.198,1.779-2.05,3.122-2.035c9.808,0.03,18.686,0.057,25.182,0.076
						c0.826-0.04,1.664,0.226,2.254,0.706c0.604,0.47,0.999,1.115,1.162,1.764c0.163,0.659,0.127,1.271,0.027,1.833
						c-0.13,0.556-0.385,1.024-0.683,1.379c-0.608,0.719-1.333,0.973-1.795,1.066C392.079,308.204,391.826,308.151,391.826,308.151z
						"/>
				</g>
			</g>
		</g>
		<g>
			<path style="opacity:0.3;" d="M525.234,304.826c0,3.938-3.192,7.13-7.13,7.13c-3.938,0-7.13-3.192-7.13-7.13
				c0-3.938,3.192-7.129,7.13-7.129C522.042,297.697,525.234,300.888,525.234,304.826z"/>
			<g>
				<path style="fill:#FF725E;" d="M530.565,308.225h-25.421c-1.741,0-3.153-1.412-3.153-3.153v-0.292
					c0-1.741,1.412-3.153,3.153-3.153h25.421c1.741,0,3.153,1.412,3.153,3.153v0.292
					C533.717,306.814,532.306,308.225,530.565,308.225z"/>
				<g>
					<path style="fill:#263238;" d="M530.565,308.225c-0.001-0.028,0.252-0.02,0.705-0.136c0.441-0.122,1.116-0.397,1.662-1.092
						c0.268-0.344,0.491-0.786,0.597-1.302c0.078-0.512,0.096-1.125-0.066-1.706c-0.297-1.177-1.552-2.302-3.136-2.178
						c-6.497,0.02-15.374,0.047-25.182,0.076c-1.138-0.013-2.213,0.709-2.648,1.724c-0.229,0.51-0.275,1.044-0.241,1.626
						c0.022,0.542,0.216,1.066,0.519,1.502c0.621,0.901,1.679,1.322,2.764,1.238c1.115,0.003,2.207,0.006,3.273,0.009
						c4.248,0.021,8.081,0.04,11.321,0.056c3.179,0.035,5.771,0.063,7.633,0.083c0.86,0.02,1.549,0.036,2.075,0.049
						C530.315,308.19,530.565,308.207,530.565,308.225c0,0.018-0.249,0.035-0.724,0.052c-0.526,0.012-1.215,0.029-2.075,0.049
						c-1.861,0.02-4.454,0.048-7.633,0.083c-3.24,0.016-7.074,0.035-11.321,0.056c-1.066,0.003-2.158,0.006-3.273,0.009
						c-0.536,0.022-1.203-0.027-1.755-0.28c-0.564-0.246-1.065-0.647-1.426-1.16c-0.359-0.511-0.587-1.13-0.616-1.767
						c-0.04-0.591,0.01-1.277,0.281-1.864c0.51-1.198,1.779-2.051,3.122-2.036c9.808,0.03,18.685,0.057,25.182,0.076
						c0.826-0.04,1.664,0.226,2.254,0.706c0.604,0.47,0.999,1.115,1.162,1.764c0.163,0.659,0.127,1.271,0.028,1.833
						c-0.13,0.556-0.385,1.024-0.683,1.38c-0.608,0.719-1.333,0.973-1.795,1.066C530.817,308.278,530.565,308.225,530.565,308.225z"
						/>
				</g>
			</g>
		</g>
		<g>
			<path style="fill:#263238;" d="M656.899,292.195c0,0-0.362,0.018-1.068,0.028c-0.718,0.007-1.765,0.017-3.134,0.031
				c-2.767,0.016-6.826,0.038-12.052,0.068c-10.477,0.066-25.617,0.162-44.323,0.28c-37.434,0.333-89.13,0.793-146.227,1.301
				c-57.121,0.538-108.827,0.978-146.254,1.149c-18.707,0.048-33.846,0.088-44.322,0.115c-5.225-0.013-9.284-0.023-12.05-0.03
				c-1.369-0.009-2.416-0.016-3.134-0.021c-0.706-0.008-1.068-0.025-1.068-0.025s0.362-0.019,1.068-0.028
				c0.718-0.007,1.764-0.017,3.134-0.031c2.766-0.016,6.825-0.038,12.05-0.068c10.476-0.066,25.615-0.162,44.32-0.28
				c37.434-0.333,89.135-0.793,146.251-1.302c57.101-0.538,108.802-0.978,146.229-1.149c18.707-0.048,33.847-0.088,44.325-0.115
				c5.225,0.013,9.285,0.023,12.052,0.03c1.37,0.009,2.417,0.016,3.134,0.021C656.538,292.178,656.899,292.195,656.899,292.195z"/>
		</g>
		<g>
			<path style="fill:#263238;" d="M675.792,290.913c-0.015,0.007-0.118-0.169-0.307-0.504c-0.193-0.334-0.481-0.824-0.869-1.444
				c-0.784-1.233-1.994-2.98-3.754-4.909c-1.757-1.923-4.078-4.03-7.017-5.828c-0.726-0.461-1.526-0.839-2.311-1.278
				c-0.823-0.363-1.658-0.75-2.529-1.088c-1.757-0.628-3.635-1.163-5.57-1.671c-7.732-2.052-14.825-3.556-19.956-4.64
				c-2.517-0.52-4.579-0.946-6.084-1.257c-0.672-0.143-1.219-0.26-1.653-0.352c-0.377-0.085-0.574-0.137-0.571-0.155
				c0.003-0.018,0.206,0,0.589,0.052c0.438,0.067,0.991,0.152,1.671,0.256c1.449,0.237,3.541,0.603,6.12,1.095
				c5.154,0.993,12.266,2.441,20.019,4.498c1.938,0.509,3.819,1.047,5.616,1.697c0.885,0.348,1.734,0.745,2.568,1.12
				c0.797,0.45,1.607,0.841,2.341,1.315c2.973,1.85,5.3,4.016,7.04,5.992c1.744,1.982,2.917,3.776,3.653,5.049
				c0.364,0.64,0.625,1.149,0.789,1.5C675.738,290.713,675.809,290.905,675.792,290.913z"/>
		</g>
		<g>
			<path style="fill:#263238;" d="M519.705,235.064c0,0,0.219,0.329,0.624,0.986c0.408,0.667,1.005,1.643,1.786,2.921
				c1.566,2.583,3.866,6.375,6.826,11.257c2.958,4.896,6.575,10.881,10.773,17.83c2.086,3.481,4.369,7.183,6.693,11.147
				c1.166,1.976,2.38,4.048,3.181,6.37c0.805,2.315,1.278,4.811,1.24,7.406l-0.062,0.504c-0.037,0.161-0.091,0.315-0.136,0.473
				c-0.094,0.315-0.182,0.633-0.315,0.931c-0.233,0.611-0.498,1.21-0.789,1.799c-0.565,1.187-1.2,2.352-1.857,3.52
				c-1.321,2.332-2.756,4.662-4.248,7.021c-3,4.708-6.247,9.522-9.668,14.464c-6.848,9.88-14.376,20.287-22.433,31.137
				c-2.028,2.702-4.082,5.438-6.159,8.205c-2.096,2.743-4.081,5.646-6.544,8.234c-2.46,2.593-5.589,4.586-8.97,5.897
				c-0.84,0.346-1.693,0.664-2.561,0.94c-0.859,0.307-1.737,0.552-2.615,0.806c-0.875,0.269-1.766,0.476-2.655,0.704
				c-0.88,0.255-1.801,0.39-2.719,0.539c-3.666,0.471-7.365,0.742-11.098,0.991c-3.732,0.261-7.496,0.462-11.288,0.674
				c-7.584,0.402-15.281,0.75-23.071,1.081c-31.172,1.298-60.877,2.219-87.894,3.03c-27.017,0.736-51.347,1.398-71.782,1.955
				c-20.428,0.472-36.961,0.853-48.398,1.117c-5.707,0.104-10.141,0.185-13.16,0.241c-1.497,0.017-2.641,0.03-3.423,0.039
				c-0.772,0.001-1.166-0.016-1.166-0.016c1.432-0.038,25.398-0.672,66.138-1.749c20.434-0.588,44.762-1.289,71.777-2.067
				c27.015-0.838,56.719-1.773,87.886-3.07c7.789-0.331,15.485-0.678,23.066-1.078c3.79-0.211,7.553-0.41,11.28-0.67
				c3.726-0.247,7.431-0.518,11.056-0.982c0.896-0.145,1.792-0.273,2.673-0.528c0.884-0.226,1.771-0.432,2.639-0.698
				c0.872-0.252,1.744-0.495,2.594-0.798c0.861-0.273,1.703-0.587,2.532-0.927c3.342-1.296,6.384-3.234,8.802-5.775
				c2.422-2.539,4.41-5.435,6.512-8.184c2.079-2.764,4.134-5.497,6.164-8.197c8.065-10.839,15.604-21.233,22.463-31.097
				c3.427-4.934,6.679-9.738,9.684-14.434c1.494-2.352,2.931-4.675,4.252-6.995c0.656-1.161,1.291-2.32,1.853-3.492
				c0.565-1.16,1.106-2.37,1.275-3.566c0.043-2.507-0.417-4.999-1.203-7.268c-0.783-2.288-1.973-4.335-3.137-6.319
				c-2.321-3.984-4.585-7.681-6.661-11.171c-4.168-6.964-7.758-12.963-10.695-17.87c-2.923-4.903-5.195-8.711-6.741-11.305
				c-0.762-1.289-1.344-2.274-1.742-2.947C519.894,235.412,519.705,235.064,519.705,235.064z"/>
		</g>
		<g>
			<path style="fill:#263238;" d="M582.097,272.319c0,0-0.043-0.094-0.112-0.28c-0.068-0.185-0.24-0.437-0.477-0.749
				c-0.482-0.627-1.322-1.461-2.492-2.47c-2.339-2.022-6-4.757-10.886-8.021c-4.887-3.262-10.996-7.062-18.276-11.147
				c-7.284-4.069-15.728-8.469-25.409-12.543c-1.2-0.537-2.463-0.944-3.718-1.42c-1.268-0.438-2.514-0.986-3.845-1.335
				c-2.634-0.776-5.313-1.614-8.113-2.23c-5.555-1.409-11.44-2.418-17.532-3.414c-12.211-1.862-25.369-3.079-39.231-3.953
				c-13.867-0.845-28.448-1.306-43.566-1.457c-15.101-0.19-30.794,0.74-46.531,3.777c-15.729,3.057-30.66,8.122-44.257,14.697
				c-13.579,6.64-26.017,14.315-37.749,21.746c-5.86,3.732-11.525,7.45-17.035,11.056c-2.755,1.802-5.472,3.577-8.178,5.28
				c-0.673,0.428-1.367,0.832-2.015,1.275c-0.638,0.454-1.273,0.906-1.906,1.356c-0.57,0.529-1.137,1.055-1.702,1.579
				c-0.525,0.563-1,1.17-1.5,1.748c-1.872,2.427-3.225,5.159-4.262,7.932c-1.052,2.776-1.719,5.628-2.241,8.437
				c-0.529,2.811-0.848,5.602-1.068,8.338c-0.229,2.736-0.345,5.422-0.415,8.047c-0.122,5.242,0.174,10.247,0.385,14.973
				c0.231,4.728,0.493,9.185,0.747,13.352c0.549,8.329,1.021,15.504,1.408,21.373c0.413,5.856,0.733,10.406,0.952,13.503
				c0.107,1.536,0.188,2.71,0.244,3.512c0.052,0.791,0.066,1.198,0.066,1.198s-0.05-0.404-0.12-1.194
				c-0.067-0.801-0.166-1.973-0.295-3.508c-0.241-3.096-0.594-7.643-1.049-13.496c-0.437-5.862-0.956-13.035-1.497-21.369
				c-0.268-4.167-0.544-8.624-0.787-13.353c-0.224-4.73-0.532-9.73-0.422-15c0.064-2.629,0.175-5.322,0.399-8.068
				c0.215-2.746,0.53-5.55,1.057-8.379c0.52-2.827,1.186-5.701,2.245-8.509c1.043-2.805,2.41-5.577,4.313-8.053
				c0.508-0.591,0.992-1.21,1.527-1.785c0.577-0.536,1.156-1.075,1.737-1.616c0.647-0.462,1.296-0.925,1.948-1.391
				c0.659-0.451,1.341-0.849,2.014-1.278c2.698-1.702,5.411-3.481,8.164-5.286c5.504-3.612,11.167-7.338,17.027-11.077
				c11.733-7.447,24.174-15.137,37.784-21.8c13.633-6.599,28.607-11.683,44.381-14.749c15.78-3.045,31.512-3.973,46.635-3.776
				c15.125,0.159,29.715,0.629,43.591,1.488c13.872,0.888,27.04,2.121,39.267,4.005c6.101,1.007,11.993,2.028,17.562,3.451
				c2.806,0.622,5.493,1.468,8.135,2.253c1.333,0.352,2.586,0.906,3.859,1.349c1.259,0.48,2.53,0.894,3.729,1.434
				c9.691,4.104,18.132,8.532,25.409,12.629c7.273,4.113,13.372,7.942,18.246,11.233c4.872,3.293,8.519,6.058,10.842,8.11
				c1.162,1.024,1.993,1.873,2.465,2.517C582.041,271.893,582.097,272.319,582.097,272.319z"/>
		</g>
		<g>
			<path style="fill:#263238;" d="M399.571,381.946c-0.009,0.001-0.025-0.139-0.047-0.413c-0.02-0.298-0.047-0.702-0.081-1.216
				c-0.068-1.07-0.141-2.648-0.227-4.682c-0.152-4.067-0.341-9.956-0.372-17.235c0.002-14.539,0.179-34.725,3.386-56.742
				c0.211-1.374,0.384-2.745,0.622-4.097c0.26-1.348,0.519-2.688,0.775-4.017c0.266-1.328,0.492-2.653,0.784-3.954
				c0.328-1.293,0.654-2.576,0.977-3.848c0.339-1.267,0.606-2.542,0.997-3.769c0.412-1.221,0.82-2.431,1.224-3.628
				c0.408-1.192,0.795-2.391,1.21-3.54c0.399-1.16,0.843-2.289,1.154-3.449c1.397-4.589,2.369-9.059,3.178-13.254
				c0.824-4.194,1.458-8.127,1.999-11.723c1.071-7.194,1.75-13.043,2.202-17.085c0.215-2.001,0.384-3.565,0.502-4.658
				c0.056-0.513,0.1-0.914,0.133-1.211c0.032-0.273,0.052-0.412,0.061-0.411c0.009,0.001,0.006,0.141-0.008,0.416
				c-0.02,0.298-0.047,0.701-0.081,1.216c-0.08,1.068-0.212,2.643-0.405,4.669c-0.39,4.051-1.014,9.91-2.039,17.118
				c-0.518,3.603-1.132,7.545-1.939,11.751c-0.793,4.207-1.751,8.691-3.143,13.313c-0.309,1.166-0.755,2.309-1.155,3.479
				c-0.419,1.169-0.795,2.344-1.199,3.535c-0.399,1.19-0.803,2.393-1.21,3.607c-0.387,1.221-0.651,2.492-0.987,3.753
				c-0.32,1.266-0.643,2.544-0.968,3.832c-0.29,1.296-0.515,2.619-0.778,3.942c-0.255,1.326-0.512,2.661-0.771,4.005
				c-0.237,1.348-0.41,2.717-0.62,4.087c-3.2,21.964-3.437,42.134-3.533,56.663c-0.016,7.275,0.118,13.161,0.207,17.229
				c0.055,2.012,0.099,3.585,0.129,4.684c0.012,0.516,0.022,0.919,0.029,1.218C399.582,381.804,399.58,381.945,399.571,381.946z"/>
		</g>
		<path style="fill:#263238;" d="M512.207,236.496c0,0,12.003,19.131,11.55,21.623c-0.453,2.491-0.906,16.76-0.906,16.76h20.652
			l-20.621-34.553"/>
		<g>
			<path style="fill:#455A64;" d="M418.048,228.077c0.141,0.028-1.969,11.104-4.713,24.734c-2.745,13.635-5.083,24.662-5.224,24.634
				c-0.141-0.028,1.969-11.101,4.713-24.737C415.568,239.078,417.907,228.049,418.048,228.077z"/>
		</g>
		<path style="opacity:0.3;fill:#FFFFFF;" d="M294.383,264.457c0,0,18.155-15.326,61.165-26.983
			c23.818-6.455,48.303-5.342,48.303-5.342l-2.122,8.28c0,0-10.823-1.717-14.258,4.809c-3.435,6.526,4.809,21.984,4.809,21.984
			s-1.718,8.244-3.092,8.244s-75.643,1.911-75.643,1.911s-3.08-9.464-9.184-12.516C300.747,263.037,294.383,264.457,294.383,264.457
			z"/>
		<path style="opacity:0.3;fill:#FFFFFF;" d="M424.271,273.81c0-0.216,5.615-40.778,6.083-40.563
			c0.468,0.216,48.195-1.079,78.142,6.904l9.358,15.535c0,0-3.275,18.771-3.977,18.124
			C513.175,273.162,424.271,273.81,424.271,273.81z"/>
		<g>
			<g>
				<g>
					<g>
						<g>
							<g>
								<g>
									<g>
										<g>
											<g>
												<g>
													<path style="fill:#263238;" d="M103.442,376.221c-0.401,27.802,21.812,50.666,49.615,51.067
														c27.803,0.401,50.666-21.813,51.068-49.614c0.401-27.802-21.812-50.666-49.615-51.067
														C126.706,326.206,103.843,348.419,103.442,376.221z"/>
												</g>
											</g>
										</g>
									</g>
								</g>
							</g>
						</g>
					</g>
				</g>
			</g>
			<g>
				<g>
					<g>
						<g>
							<g>
								<g>
									<g>
										<g>
											<g>
												<g>
													<path style="fill:#263238;" d="M103.451,376.091c-0.001,0.044-0.008,0.086-0.009,0.13
														c-0.401,27.802,21.812,50.666,49.615,51.067c27.803,0.401,50.666-21.813,51.068-49.614
														c0.001-0.044-0.005-0.086-0.005-0.13L103.451,376.091z"/>
												</g>
											</g>
										</g>
									</g>
								</g>
							</g>
						</g>
					</g>
				</g>
			</g>
			<g>
				<g>
					<g>
						<g>
							<g>
								<g>
									<g>
										<g>
											<g>
												<g>
													<path style="fill:#FAFAFA;" d="M118.44,376.438c-0.282,19.519,15.313,35.571,34.832,35.853
														c19.52,0.282,35.571-15.314,35.853-34.833c0.281-19.519-15.314-35.571-34.833-35.853
														C134.773,341.323,118.722,356.918,118.44,376.438z"/>
												</g>
											</g>
										</g>
									</g>
								</g>
							</g>
						</g>
					</g>
				</g>
			</g>
			<g>
				<g>
					<g>
						<g>
							<g>
								<g>
									<g>
										<g>
											<g>
												<g>
													<path style="fill:#E0E0E0;" d="M154.292,341.604c-19.519-0.281-35.57,15.314-35.852,34.833l70.685,1.02
														C189.407,357.938,173.812,341.886,154.292,341.604z"/>
												</g>
											</g>
										</g>
									</g>
								</g>
							</g>
						</g>
					</g>
				</g>
			</g>
			<g>
				<g>
					<g>
						<g>
							<g>
								<g>
									<g>
										<g>
											<g>
												<g>
													<path style="fill:#263238;" d="M132.254,376.637c-0.172,11.89,9.328,21.668,21.218,21.839
														c11.89,0.172,21.669-9.328,21.84-21.218c0.171-11.891-9.329-21.668-21.219-21.84
														C142.203,355.247,132.426,364.746,132.254,376.637z"/>
												</g>
											</g>
										</g>
									</g>
								</g>
							</g>
						</g>
					</g>
				</g>
			</g>
		</g>
		<g>
			<g>
				<g>
					<g>
						<g>
							<g>
								<g>
									<g>
										<g>
											<g>
												<g>
													<path style="fill:#263238;" d="M518.11,376.781c-0.415,28.825,22.615,52.53,51.44,52.945
														c28.826,0.416,52.531-22.615,52.946-51.44c0.416-28.825-22.615-52.53-51.441-52.946
														C542.231,324.925,518.526,347.955,518.11,376.781z"/>
												</g>
											</g>
										</g>
									</g>
								</g>
							</g>
						</g>
					</g>
				</g>
			</g>
			<g>
				<g>
					<g>
						<g>
							<g>
								<g>
									<g>
										<g>
											<g>
												<g>
													<path style="fill:#263238;" d="M518.119,376.646c-0.001,0.045-0.008,0.089-0.009,0.135
														c-0.415,28.825,22.615,52.53,51.44,52.945c28.826,0.416,52.531-22.615,52.946-51.44
														c0.001-0.045-0.005-0.09-0.005-0.135L518.119,376.646z"/>
												</g>
											</g>
										</g>
									</g>
								</g>
							</g>
						</g>
					</g>
				</g>
			</g>
			<g>
				<g>
					<g>
						<g>
							<g>
								<g>
									<g>
										<g>
											<g>
												<g>
													<path style="fill:#FAFAFA;" d="M533.661,377.005c-0.292,20.238,15.877,36.88,36.114,37.172
														c20.238,0.292,36.88-15.877,37.172-36.115c0.292-20.237-15.877-36.88-36.115-37.172
														C550.594,340.598,533.953,356.767,533.661,377.005z"/>
												</g>
											</g>
										</g>
									</g>
								</g>
							</g>
						</g>
					</g>
				</g>
			</g>
			<g>
				<g>
					<g>
						<g>
							<g>
								<g>
									<g>
										<g>
											<g>
												<g>
													<path style="fill:#E0E0E0;" d="M570.832,340.89c-20.237-0.292-36.879,15.877-37.171,36.115l73.286,1.057
														C607.238,357.825,591.069,341.182,570.832,340.89z"/>
												</g>
											</g>
										</g>
									</g>
								</g>
							</g>
						</g>
					</g>
				</g>
			</g>
			<g>
				<g>
					<g>
						<g>
							<g>
								<g>
									<g>
										<g>
											<g>
												<g>
													<path style="fill:#263238;" d="M547.983,377.211c-0.178,12.328,9.671,22.465,21.999,22.643
														c12.328,0.178,22.466-9.671,22.644-21.999c0.178-12.328-9.672-22.466-22-22.643
														C558.298,355.034,548.16,364.884,547.983,377.211z"/>
												</g>
											</g>
										</g>
									</g>
								</g>
							</g>
						</g>
					</g>
				</g>
			</g>
		</g>
		<path style="fill:#FFFFFF;" d="M654.494,290.913c0,0-1.305,2.089,0,3.394c1.305,1.305,11.095,15.403,17.361,15.794
			c6.265,0.392,21.382,0,21.382,0l-1.205-19.188H654.494z"/>
		<path style="opacity:0.3;" d="M701.069,363.071l-45.674,6.281c0,0-0.665,3.327,4.492,3.993c5.157,0.665,35.892-4.69,35.892-4.69
			L701.069,363.071z"/>
		<path style="opacity:0.3;" d="M220.34,381.946c1.127-0.236,15.214-8.4,32.118-8.544c16.904-0.144,246.568-12.37,244.878-10.635
			c-1.69,1.735-7.783,8.297-20.052,10.635C460.921,376.521,220.34,381.946,220.34,381.946z"/>
		<polygon style="fill:#263238;" points="287.183,262.771 298.026,280.638 258.359,280.638 		"/>
		<g>
			<path style="fill:#FF725E;" d="M273.971,274.184c-2.685,2.527-3.475,6.792,0,9.477s27.008,2.843,29.851,0
				c2.843-2.843,2.379-8.372-1.737-12.951c-2.623-2.918-10.74-6.16-14.215-5.844C284.395,265.182,276.665,271.648,273.971,274.184z"
				/>
			<g>
				<path style="fill:#263238;" d="M273.971,274.184c-0.006-0.007,0.044-0.065,0.149-0.174c0.129-0.128,0.285-0.283,0.475-0.472
					c0.427-0.405,1.062-0.997,1.909-1.726c1.706-1.439,4.162-3.567,7.609-5.638c0.87-0.501,1.8-1.013,2.88-1.332
					c1.106-0.356,2.299-0.176,3.457,0.018c2.335,0.449,4.722,1.322,7.116,2.477c1.191,0.59,2.386,1.262,3.504,2.12
					c1.134,0.865,2.032,2.015,2.827,3.23c0.782,1.231,1.403,2.608,1.743,4.09c0.328,1.475,0.361,3.083-0.136,4.59
					c-0.228,0.76-0.642,1.452-1.131,2.062c-0.132,0.147-0.253,0.298-0.395,0.44c-0.166,0.129-0.328,0.279-0.507,0.361
					c-0.348,0.205-0.711,0.338-1.072,0.461c-1.45,0.469-2.911,0.673-4.344,0.851c-2.87,0.329-5.65,0.426-8.295,0.431
					c-2.646,0.003-5.16-0.1-7.506-0.301c-2.344-0.208-4.529-0.486-6.476-1.034c-0.486-0.137-0.956-0.305-1.396-0.526
					c-0.456-0.224-0.8-0.563-1.14-0.866c-0.655-0.65-1.127-1.409-1.397-2.177c-0.556-1.555-0.284-3.023,0.117-4.064
					c0.416-1.056,0.96-1.765,1.358-2.198c0.186-0.23,0.369-0.368,0.474-0.476C273.905,274.227,273.965,274.178,273.971,274.184
					c0.018,0.018-0.204,0.235-0.572,0.688c-0.367,0.449-0.873,1.165-1.248,2.201c-0.362,1.023-0.587,2.435-0.034,3.894
					c0.548,1.418,1.803,2.92,3.762,3.315c1.905,0.513,4.081,0.77,6.41,0.958c2.333,0.181,4.836,0.267,7.468,0.251
					c2.631-0.018,5.399-0.125,8.236-0.458c1.413-0.178,2.863-0.387,4.239-0.836c0.339-0.115,0.681-0.243,0.976-0.418
					c0.165-0.074,0.273-0.189,0.407-0.285c0.122-0.122,0.237-0.266,0.356-0.398c0.446-0.558,0.828-1.189,1.037-1.893
					c0.46-1.392,0.436-2.908,0.125-4.314c-0.322-1.412-0.915-2.738-1.668-3.929c-0.77-1.181-1.633-2.292-2.7-3.11
					c-1.072-0.83-2.244-1.498-3.413-2.083c-2.348-1.148-4.708-2.027-6.983-2.482c-1.13-0.2-2.269-0.374-3.267-0.056
					c-1.019,0.289-1.945,0.781-2.805,1.265c-3.428,2.004-5.924,4.088-7.662,5.474c-0.828,0.693-1.484,1.243-1.969,1.649
					C274.22,273.999,273.984,274.198,273.971,274.184z"/>
			</g>
		</g>
		<path style="opacity:0.3;" d="M39.139,324.001c0,0,6.763-8.698,16.857-12.835c10.094-4.137,69.461-17.522,112.968-21.8
			c41.587-4.089,67.97-5.524,67.97-5.524l8.107,1.893c0,0-118.395,16.945-145.259,21.938c-20.093,3.734-62.063,25.712-62.063,25.712
			l0.998-2.688L39.139,324.001z"/>
		<path style="fill:#FFFFFF;" d="M57.65,312.028c-4.456,2.448-8.02,6.33-9.659,10.312c-1.827,4.438-1.436,7.571-0.131,7.832
			c1.305,0.261,25.192,1.436,29.369-0.914c4.177-2.35,20.754-21.145,20.754-21.145S65.469,307.732,57.65,312.028z"/>
		<g>
			<path style="fill:#263238;" d="M618.905,343.283c-0.004-0.017,0.291-0.1,0.856-0.241c0.61-0.146,1.436-0.343,2.477-0.592
				c2.153-0.504,5.274-1.207,9.137-2.05c7.725-1.685,18.422-3.914,30.301-6.042c11.884-2.123,22.703-3.688,30.555-4.632
				c3.926-0.474,7.107-0.82,9.31-1.02c1.066-0.094,1.911-0.169,2.536-0.225c0.58-0.046,0.886-0.061,0.888-0.043
				c0.002,0.018-0.3,0.068-0.877,0.147c-0.622,0.079-1.464,0.187-2.525,0.322c-2.195,0.261-5.368,0.663-9.285,1.184
				c-7.835,1.037-18.635,2.658-30.51,4.78c-11.87,2.126-22.573,4.296-30.316,5.889c-3.836,0.79-6.957,1.432-9.17,1.888
				c-1.049,0.208-1.882,0.374-2.498,0.496C619.211,343.253,618.909,343.301,618.905,343.283z"/>
		</g>
		<g>
			<path style="fill:#263238;" d="M693.237,311.166c-0.074,0-0.134-1.136-0.223-2.969c-0.098-1.998-0.217-4.451-0.35-7.164
				c-0.156-2.711-0.297-5.163-0.411-7.159c-0.066-0.914-0.116-1.655-0.168-2.162c-0.036-0.512-0.096-0.783-0.053-0.798
				c0.085-0.028,0.386,1.097,0.587,2.926c0.216,1.829,0.419,4.364,0.565,7.167c0.143,2.802,0.204,5.343,0.198,7.182
				C693.376,310.028,693.306,311.166,693.237,311.166z"/>
		</g>
	</g>
</g>
</svg>
