<?xml version="1.0" encoding="utf-8"?>
<!-- Generator: Adobe Illustrator 27.5.0, SVG Export Plug-In . SVG Version: 6.00 Build 0)  -->
<svg version="1.1" xmlns="http://www.w3.org/2000/svg" xmlns:xlink="http://www.w3.org/1999/xlink" x="0px" y="0px"
	 viewBox="0 0 750 500" style="enable-background:new 0 0 750 500;" xml:space="preserve">
<g id="Background_Complete">
	<g>
		<path style="fill:#F5F5F5;" d="M633.241,91.958c0.749-5.441-6.931-9.918-12.701-10.383c-2.752-0.222-5.61,0.199-8.217-0.71
			c-5.648-1.969-7.905-9.266-13.416-11.591c-4.121-1.738-8.864-0.191-12.859,1.82c-3.995,2.01-7.942,4.541-12.405,4.826
			c-3.882,0.248-8.098-1.191-11.494,0.705c-2.531,1.413-3.857,4.329-6.189,6.05c-2.282,1.683-5.259,2.04-8.091,2.194
			c-2.832,0.154-5.763,0.183-8.341,1.363c-2.578,1.181-4.711,3.907-4.176,6.692L633.241,91.958z"/>
	</g>
	<g>
		<path style="fill:#F5F5F5;" d="M186.389,106c0.749-5.441-6.931-9.918-12.701-10.383c-2.752-0.222-5.61,0.199-8.217-0.71
			c-5.648-1.969-7.905-9.266-13.416-11.591c-4.12-1.738-8.864-0.191-12.859,1.82c-3.995,2.01-7.942,4.541-12.405,4.826
			c-3.882,0.248-8.098-1.191-11.494,0.705c-2.531,1.413-3.857,4.329-6.189,6.05c-2.282,1.683-5.259,2.04-8.091,2.194
			c-2.832,0.154-5.763,0.183-8.341,1.363c-2.578,1.181-4.711,3.907-4.176,6.692L186.389,106z"/>
	</g>
	<g>
		<path style="fill:#F5F5F5;" d="M104.334,184.296c0.484-3.518-4.481-6.412-8.212-6.713c-1.779-0.144-3.627,0.128-5.313-0.459
			c-3.652-1.273-5.111-5.991-8.674-7.494c-2.664-1.124-5.731-0.123-8.314,1.177c-2.583,1.3-5.135,2.936-8.021,3.12
			c-2.51,0.161-5.235-0.77-7.431,0.456c-1.636,0.914-2.493,2.799-4.002,3.912c-1.476,1.088-3.4,1.319-5.231,1.418
			c-1.831,0.1-3.726,0.118-5.393,0.881c-1.667,0.763-3.046,2.526-2.7,4.326L104.334,184.296z"/>
	</g>
	<g>
		<path style="fill:#F5F5F5;" d="M344.396,46.805c0.484-3.518-4.481-6.413-8.212-6.713c-1.779-0.144-3.627,0.128-5.313-0.459
			c-3.652-1.273-5.111-5.991-8.674-7.494c-2.664-1.124-5.731-0.123-8.314,1.176c-2.583,1.3-5.135,2.936-8.021,3.12
			c-2.51,0.161-5.235-0.77-7.431,0.456c-1.636,0.914-2.493,2.799-4.002,3.911c-1.475,1.088-3.4,1.319-5.231,1.418
			c-1.831,0.1-3.726,0.118-5.393,0.881c-1.667,0.763-3.046,2.526-2.7,4.326L344.396,46.805z"/>
	</g>
	<g>
		<path style="fill:#F5F5F5;" d="M708.279,192.185c0.484-3.518-4.481-6.412-8.212-6.713c-1.779-0.144-3.627,0.128-5.313-0.459
			c-3.652-1.273-5.111-5.991-8.674-7.494c-2.664-1.124-5.731-0.123-8.314,1.177c-2.583,1.3-5.135,2.936-8.021,3.12
			c-2.51,0.161-5.235-0.77-7.431,0.456c-1.636,0.914-2.494,2.799-4.002,3.912c-1.476,1.088-3.4,1.319-5.231,1.418
			c-1.831,0.1-3.726,0.118-5.393,0.881c-1.667,0.763-3.046,2.526-2.7,4.326L708.279,192.185z"/>
	</g>
	<path style="fill:#F5F5F5;" d="M375,61.569c-150.426,0-272.37,121.944-272.37,272.37c0,49.397,13.15,95.723,36.14,135.668
		l471.538,1.585c25.22-41.295,37.063-85.324,37.063-137.253C647.37,183.513,525.426,61.569,375,61.569z"/>
	<g>
		<g>
			<g>
				<g>
					<g>
						<path style="fill:#EBEBEB;" d="M260.811,445.799l-3.72-137.434l19.359-14.512l-1.532-2.867l-18.078,11.573l-8.925-100.379
							h-4.449c0,0-3.172,224.146-8.466,231.839c-5.294,7.693-15.222,11.781-15.222,11.781H260.811z"/>
					</g>
				</g>
			</g>
			<g>
				<g>
					<g>
						<g>
							<path style="fill:#E0E0E0;" d="M255.305,438.714c-0.013-0.001-0.006-0.152,0.021-0.446c0.034-0.325,0.078-0.755,0.135-1.301
								c0.139-1.18,0.336-2.857,0.588-4.998c0.512-4.34,1.293-10.617,1.981-18.389c0.659-7.77,1.219-17.052,0.698-27.34
								c-0.265-5.14-0.815-10.53-1.827-16.063c-1.022-5.534-2.493-11.208-3.926-17.039c-1.438-5.831-2.693-11.569-3.306-17.178
								c-0.29-2.805-0.42-5.573-0.37-8.284c0.072-2.711,0.347-5.357,0.728-7.922c0.769-5.133,1.938-9.945,2.986-14.445
								c1.052-4.5,2.004-8.693,2.581-12.554c1.231-7.72,0.918-14.069,0.012-18.35c-0.413-2.149-0.96-3.779-1.324-4.884
								c-0.193-0.524-0.344-0.936-0.459-1.247c-0.099-0.283-0.144-0.429-0.132-0.433c0.012-0.004,0.082,0.135,0.206,0.412
								c0.132,0.307,0.308,0.715,0.531,1.232c0.413,1.096,1.009,2.725,1.469,4.879c1.001,4.291,1.399,10.686,0.23,18.447
								c-0.546,3.882-1.471,8.093-2.496,12.599c-1.021,4.505-2.164,9.311-2.91,14.416c-0.369,2.552-0.633,5.178-0.697,7.864
								c-0.042,2.687,0.092,5.431,0.386,8.217c0.619,5.571,1.873,11.283,3.309,17.108c1.431,5.824,2.901,11.512,3.918,17.072
								c1.006,5.561,1.544,10.973,1.79,16.132c0.484,10.324-0.133,19.622-0.862,27.397c-0.757,7.777-1.62,14.05-2.223,18.382
								c-0.313,2.136-0.558,3.809-0.73,4.986c-0.088,0.543-0.158,0.972-0.211,1.295
								C255.352,438.567,255.319,438.715,255.305,438.714z"/>
						</g>
					</g>
				</g>
			</g>
			<g>
				<g>
					<g>
						<g>
							<path style="fill:#E0E0E0;" d="M226.027,445.701c-0.016-0.122,2.568,0.363,6.945-0.642
								c4.292-0.977,10.348-3.871,14.693-9.563c2.166-2.824,3.875-6.249,5.1-10.058c1.242-3.81,2.01-7.998,2.661-12.414
								c1.288-8.826,1.873-18.657,0.619-28.872c-0.162-1.66-0.51-3.287-1.358-4.714c-0.417-0.708-1.008-1.332-1.75-1.747
								c-0.741-0.411-1.673-0.553-2.539-0.442c-1.779,0.261-3.109,1.552-4.069,2.83c-0.945,1.321-1.628,2.796-2.266,4.224
								c-2.47,5.784-2.871,11.776-1.761,17.068c0.314,1.311,0.504,2.677,1.328,3.68c0.401,0.498,0.998,0.833,1.656,0.809
								c0.65-0.007,1.236-0.374,1.682-0.816c0.454-0.45,0.787-0.974,1.077-1.523c0.316-0.535,0.562-1.089,0.806-1.633
								c0.469-1.095,0.771-2.203,0.98-3.285c0.811-4.362-0.319-8.291-2.026-11.139l0.343,0.017
								c-2.387,2.992-2.825,5.906-2.851,7.774c-0.008,0.95,0.101,1.673,0.171,2.159c0.092,0.483,0.137,0.734,0.118,0.737
								c0,0-0.426-0.969-0.499-2.895c-0.039-1.89,0.334-4.863,2.73-7.958l0.185-0.239l0.158,0.255
								c1.788,2.883,2.997,6.884,2.211,11.356c-0.431,2.217-1.17,4.551-2.937,6.697c-0.492,0.493-1.212,0.985-2.128,1.009
								c-0.908,0.044-1.743-0.447-2.198-1.024c-0.959-1.184-1.124-2.566-1.457-3.887c-1.16-5.376-0.779-11.471,1.719-17.366
								c0.652-1.465,1.321-2.934,2.322-4.343c0.516-0.69,1.107-1.359,1.855-1.929c0.739-0.569,1.661-1.041,2.724-1.195
								c1.051-0.139,2.179,0.035,3.08,0.533c0.895,0.5,1.557,1.22,2.012,1.989c0.92,1.544,1.272,3.262,1.438,4.935
								c1.26,10.276,0.65,20.154-0.681,29.007c-0.672,4.427-1.467,8.636-2.748,12.48c-1.263,3.842-3.025,7.308-5.255,10.161
								c-4.484,5.765-10.688,8.641-15.067,9.559c-2.215,0.486-4.005,0.557-5.203,0.542c-0.6-0.007-1.055-0.063-1.361-0.082
								C226.181,445.73,226.026,445.711,226.027,445.701z"/>
						</g>
					</g>
				</g>
			</g>
			<g>
				<g>
					<g>
						<g>
							<path style="fill:#E0E0E0;" d="M250.237,289.865c-0.012,0.011-0.216-0.125-0.631-0.421c-0.447-0.327-1.066-0.779-1.896-1.386
								l0.16-0.031c-0.402,0.924-0.814,2.182-0.905,3.745c-0.089,1.555,0.155,3.425,1.102,5.353
								c0.246,0.478,0.498,0.973,0.903,1.374c0.386,0.409,0.984,0.664,1.588,0.556c0.594-0.105,1.072-0.564,1.382-1.082
								c0.317-0.527,0.518-1.114,0.606-1.743c0.437-2.535,0.526-5.341,0.077-8.293c-0.226-1.474-0.586-2.984-1.1-4.503
								c-0.259-0.764-0.536-1.514-0.99-2.213c-0.443-0.689-1.021-1.359-1.817-1.737c-0.779-0.385-1.795-0.385-2.585,0.012
								c-0.802,0.395-1.385,1.109-1.816,1.868c-0.447,0.763-0.695,1.611-0.951,2.48c-0.287,0.858-0.46,1.748-0.684,2.637
								c-1.544,7.192-0.659,15.095,0.355,23.223c1.243,9.771,1.7,19.146,1.571,27.659c-0.122,8.516-0.801,16.172-1.649,22.57
								c-0.866,6.398-1.851,11.545-2.648,15.082c-0.367,1.773-0.735,3.138-0.959,4.066c-0.114,0.435-0.204,0.782-0.275,1.053
								c-0.067,0.236-0.107,0.357-0.12,0.354c-0.013-0.002,0.002-0.126,0.043-0.367c0.052-0.274,0.118-0.625,0.202-1.064
								c0.175-0.936,0.496-2.306,0.818-4.084c0.707-3.546,1.61-8.696,2.405-15.088c0.778-6.392,1.399-14.033,1.483-22.528
								c0.09-8.495-0.387-17.836-1.627-27.59c-1.012-8.125-1.898-16.094-0.306-23.39c0.23-0.902,0.41-1.804,0.705-2.676
								c0.262-0.871,0.524-1.76,1.009-2.584c0.471-0.813,1.104-1.618,2.1-2.111c0.989-0.497,2.302-0.488,3.263-0.004
								c0.971,0.474,1.586,1.225,2.061,1.966c0.48,0.748,0.77,1.554,1.024,2.322c0.512,1.548,0.867,3.085,1.084,4.584
								c0.432,3.002,0.313,5.849-0.16,8.417c-0.098,0.651-0.322,1.296-0.678,1.87c-0.35,0.561-0.901,1.13-1.726,1.277
								c-0.819,0.145-1.609-0.234-2.031-0.703c-0.455-0.465-0.705-0.989-0.95-1.479c-0.944-1.996-1.154-3.914-1.026-5.499
								c0.13-1.594,0.589-2.866,1.035-3.79l0.055-0.115l0.106,0.084c0.801,0.633,1.399,1.104,1.83,1.445
								C250.068,289.698,250.248,289.855,250.237,289.865z"/>
						</g>
					</g>
				</g>
			</g>
		</g>
		<g>
			<g>
				<g>
					<g>
						<g>
							<g>
								<g>
									<g>
										<path style="fill:#EBEBEB;" d="M248.406,106.974c0.347,2.389-34.647,86.015-34.647,86.015l17.497-13.488l-25.208,58.448
											l16.608-17.535l-26.532,73.963l16.448-8.321l-16.608,51.704l14.235-13.488l-14.235,38.666l112.694-6.295l-26.691-72.835
											l16.119,13.488l-20.864-53.053l10.676,4.496l-24.318-68.34l10.922,4.805L248.406,106.974z"/>
									</g>
								</g>
							</g>
						</g>
					</g>
				</g>
			</g>
		</g>
	</g>
	<g>
		<g>
			<g>
				<g>
					<g>
						<path style="fill:#EBEBEB;" d="M599.283,472.083l-2.93-108.231l15.246-11.428l-1.206-2.258l-14.236,9.114l-7.029-79.049
							h-3.504c0,0-2.498,176.517-6.667,182.575c-4.169,6.058-11.987,9.278-11.987,9.278H599.283z"/>
					</g>
				</g>
			</g>
			<g>
				<g>
					<g>
						<g>
							<path style="fill:#E0E0E0;" d="M594.947,466.503c-0.01-0.001-0.004-0.12,0.016-0.351c0.026-0.256,0.062-0.595,0.107-1.025
								c0.109-0.929,0.265-2.25,0.463-3.936c0.403-3.418,1.018-8.361,1.56-14.482c0.519-6.119,0.96-13.429,0.55-21.53
								c-0.208-4.048-0.642-8.292-1.438-12.65c-0.805-4.358-1.964-8.827-3.092-13.419c-1.132-4.592-2.121-9.111-2.604-13.528
								c-0.229-2.209-0.331-4.389-0.291-6.524c0.056-2.135,0.273-4.218,0.573-6.239c0.606-4.042,1.526-7.832,2.351-11.375
								c0.828-3.543,1.578-6.846,2.033-9.887c0.97-6.08,0.723-11.08,0.01-14.451c-0.325-1.692-0.756-2.976-1.043-3.846
								c-0.152-0.412-0.271-0.737-0.361-0.982c-0.078-0.222-0.114-0.338-0.104-0.341c0.01-0.003,0.064,0.107,0.162,0.324
								c0.104,0.242,0.243,0.563,0.419,0.97c0.325,0.863,0.795,2.146,1.157,3.842c0.789,3.379,1.102,8.416,0.181,14.527
								c-0.43,3.057-1.158,6.374-1.966,9.921c-0.804,3.548-1.704,7.333-2.291,11.353c-0.291,2.009-0.499,4.078-0.549,6.193
								c-0.033,2.116,0.073,4.277,0.304,6.471c0.487,4.387,1.475,8.885,2.606,13.473c1.127,4.587,2.285,9.066,3.085,13.445
								c0.792,4.379,1.216,8.642,1.41,12.704c0.381,8.13-0.105,15.453-0.679,21.576c-0.596,6.125-1.276,11.064-1.75,14.476
								c-0.246,1.682-0.439,3-0.575,3.926c-0.07,0.428-0.124,0.765-0.166,1.02C594.984,466.387,594.958,466.504,594.947,466.503z"/>
						</g>
					</g>
				</g>
			</g>
			<g>
				<g>
					<g>
						<g>
							<path style="fill:#E0E0E0;" d="M571.891,472.005c-0.013-0.096,2.022,0.286,5.469-0.505c3.38-0.77,8.149-3.048,11.571-7.531
								c1.706-2.224,3.052-4.922,4.016-7.921c0.978-3.001,1.583-6.298,2.096-9.776c1.014-6.951,1.475-14.693,0.488-22.737
								c-0.128-1.307-0.401-2.588-1.07-3.713c-0.329-0.558-0.794-1.049-1.378-1.376c-0.583-0.324-1.317-0.436-2-0.348
								c-1.401,0.206-2.448,1.222-3.205,2.229c-0.744,1.04-1.282,2.202-1.785,3.327c-1.945,4.555-2.261,9.273-1.387,13.441
								c0.247,1.033,0.397,2.108,1.046,2.898c0.316,0.392,0.786,0.656,1.304,0.637c0.512-0.006,0.974-0.295,1.325-0.642
								c0.357-0.354,0.62-0.767,0.849-1.199c0.249-0.422,0.443-0.858,0.635-1.286c0.37-0.862,0.607-1.735,0.772-2.587
								c0.639-3.435-0.251-6.529-1.595-8.772l0.27,0.013c-1.88,2.356-2.225,4.651-2.245,6.122c-0.006,0.748,0.079,1.318,0.134,1.7
								c0.072,0.381,0.108,0.578,0.093,0.581c0,0-0.335-0.763-0.393-2.28c-0.031-1.488,0.263-3.83,2.15-6.267l0.146-0.188
								l0.125,0.201c1.408,2.27,2.36,5.421,1.741,8.943c-0.339,1.746-0.922,3.584-2.313,5.274c-0.388,0.388-0.954,0.776-1.676,0.795
								c-0.715,0.034-1.373-0.352-1.731-0.806c-0.755-0.932-0.885-2.021-1.147-3.061c-0.913-4.234-0.614-9.034,1.354-13.676
								c0.514-1.154,1.041-2.31,1.828-3.42c0.407-0.543,0.872-1.071,1.461-1.519c0.582-0.448,1.308-0.82,2.145-0.941
								c0.828-0.11,1.716,0.028,2.425,0.419c0.705,0.394,1.226,0.961,1.585,1.566c0.724,1.216,1.001,2.569,1.132,3.886
								c0.993,8.092,0.512,15.871-0.536,22.843c-0.529,3.486-1.156,6.801-2.164,9.828c-0.995,3.025-2.382,5.755-4.138,8.002
								c-3.531,4.54-8.417,6.804-11.866,7.528c-1.744,0.382-3.154,0.439-4.097,0.427c-0.472-0.006-0.831-0.05-1.072-0.064
								C572.012,472.028,571.89,472.014,571.891,472.005z"/>
						</g>
					</g>
				</g>
			</g>
			<g>
				<g>
					<g>
						<g>
							<path style="fill:#E0E0E0;" d="M590.956,349.284c-0.009,0.008-0.17-0.099-0.497-0.332c-0.352-0.258-0.84-0.614-1.494-1.091
								l0.126-0.024c-0.316,0.728-0.641,1.719-0.712,2.949c-0.07,1.224,0.122,2.697,0.868,4.216
								c0.194,0.376,0.392,0.767,0.711,1.082c0.304,0.322,0.775,0.523,1.251,0.438c0.467-0.083,0.844-0.444,1.088-0.852
								c0.25-0.415,0.408-0.877,0.477-1.373c0.344-1.997,0.414-4.206,0.06-6.531c-0.178-1.161-0.462-2.35-0.867-3.546
								c-0.204-0.602-0.422-1.193-0.779-1.743c-0.349-0.542-0.804-1.07-1.43-1.368c-0.614-0.303-1.414-0.303-2.036,0.009
								c-0.632,0.311-1.091,0.874-1.43,1.471c-0.352,0.601-0.547,1.269-0.749,1.953c-0.226,0.676-0.362,1.377-0.539,2.076
								c-1.216,5.664-0.519,11.887,0.28,18.288c0.979,7.695,1.339,15.078,1.237,21.782c-0.096,6.706-0.631,12.735-1.298,17.774
								c-0.681,5.038-1.457,9.092-2.086,11.877c-0.289,1.397-0.579,2.471-0.755,3.202c-0.09,0.342-0.161,0.616-0.217,0.829
								c-0.052,0.186-0.084,0.281-0.094,0.279c-0.01-0.002,0.002-0.1,0.034-0.289c0.041-0.216,0.093-0.492,0.159-0.838
								c0.138-0.737,0.391-1.816,0.644-3.216c0.557-2.792,1.268-6.848,1.894-11.882c0.612-5.034,1.102-11.051,1.168-17.741
								c0.071-6.689-0.304-14.046-1.282-21.728c-0.797-6.398-1.495-12.674-0.241-18.42c0.182-0.71,0.323-1.421,0.556-2.107
								c0.206-0.686,0.413-1.386,0.794-2.035c0.371-0.64,0.869-1.274,1.653-1.662c0.779-0.392,1.813-0.384,2.57-0.003
								c0.765,0.373,1.249,0.965,1.623,1.548c0.378,0.589,0.607,1.224,0.807,1.828c0.403,1.219,0.683,2.429,0.854,3.61
								c0.34,2.364,0.247,4.606-0.126,6.628c-0.077,0.513-0.254,1.021-0.534,1.472c-0.275,0.442-0.71,0.89-1.359,1.006
								c-0.645,0.114-1.267-0.184-1.599-0.554c-0.358-0.366-0.555-0.779-0.748-1.165c-0.743-1.572-0.909-3.083-0.808-4.331
								c0.102-1.255,0.464-2.257,0.815-2.985l0.043-0.09l0.083,0.066c0.631,0.498,1.102,0.87,1.441,1.138
								C590.823,349.152,590.965,349.276,590.956,349.284z"/>
						</g>
					</g>
				</g>
			</g>
		</g>
		<g>
			<g>
				<g>
					<g>
						<g>
							<g>
								<g>
									<g>
										<path style="fill:#E0E0E0;" d="M589.787,206.075c0,1.062-27.558,66.918-27.558,66.918l13.779-10.622l-19.851,46.029
											l13.078-13.809l-20.894,58.246l12.953-6.553l-13.078,40.717l11.21-10.622l-11.21,30.449l88.747-4.957l-21.019-57.358
											l12.694,10.622l-16.431-41.78l8.408,3.541l-19.151-53.818l8.875,4.603L589.787,206.075z"/>
									</g>
								</g>
							</g>
						</g>
					</g>
				</g>
			</g>
		</g>
	</g>
	<g>
		<g>
			<g>
				<g>
					<g>
						<path style="fill:#EBEBEB;" d="M165.746,470.007l-3.029-111.888l15.761-11.815l-1.247-2.334l-14.717,9.421l-7.266-81.72
							h-3.622c0,0-2.582,182.482-6.893,188.745c-4.31,6.263-12.392,9.591-12.392,9.591H165.746z"/>
					</g>
				</g>
			</g>
			<g>
				<g>
					<g>
						<g>
							<path style="fill:#E0E0E0;" d="M161.263,464.239c-0.01-0.001-0.005-0.124,0.017-0.363c0.027-0.265,0.064-0.615,0.11-1.06
								c0.113-0.961,0.274-2.326,0.479-4.069c0.417-3.533,1.053-8.644,1.613-14.971c0.537-6.326,0.993-13.883,0.569-22.258
								c-0.216-4.185-0.664-8.572-1.487-13.078c-0.832-4.505-2.03-9.125-3.196-13.872c-1.171-4.747-2.192-9.418-2.691-13.985
								c-0.236-2.284-0.342-4.537-0.301-6.744c0.058-2.207,0.283-4.361,0.592-6.449c0.626-4.178,1.578-8.096,2.431-11.76
								c0.857-3.663,1.632-7.077,2.102-10.221c1.003-6.285,0.747-11.454,0.01-14.939c-0.336-1.749-0.782-3.077-1.078-3.976
								c-0.157-0.426-0.28-0.762-0.374-1.016c-0.081-0.23-0.117-0.349-0.107-0.352c0.01-0.003,0.066,0.11,0.167,0.335
								c0.108,0.25,0.251,0.582,0.433,1.003c0.336,0.892,0.822,2.218,1.196,3.972c0.815,3.494,1.139,8.7,0.187,15.018
								c-0.445,3.161-1.197,6.589-2.032,10.257c-0.831,3.668-1.762,7.581-2.369,11.737c-0.3,2.077-0.516,4.216-0.568,6.402
								c-0.034,2.187,0.075,4.422,0.314,6.689c0.504,4.535,1.525,9.186,2.694,13.928c1.165,4.742,2.362,9.372,3.189,13.899
								c0.819,4.527,1.257,8.934,1.457,13.133c0.394,8.405-0.109,15.975-0.702,22.305c-0.617,6.332-1.319,11.438-1.81,14.965
								c-0.255,1.739-0.454,3.101-0.594,4.059c-0.072,0.442-0.129,0.791-0.171,1.054
								C161.301,464.119,161.274,464.24,161.263,464.239z"/>
						</g>
					</g>
				</g>
			</g>
			<g>
				<g>
					<g>
						<g>
							<path style="fill:#E0E0E0;" d="M137.428,469.927c-0.013-0.099,2.09,0.296,5.654-0.522c3.494-0.796,8.424-3.151,11.962-7.785
								c1.763-2.299,3.155-5.088,4.152-8.189c1.011-3.102,1.637-6.511,2.167-10.106c1.048-7.186,1.525-15.189,0.504-23.506
								c-0.132-1.351-0.415-2.676-1.106-3.838c-0.34-0.577-0.821-1.084-1.424-1.423c-0.603-0.335-1.362-0.45-2.067-0.359
								c-1.448,0.213-2.531,1.263-3.313,2.304c-0.769,1.075-1.325,2.277-1.845,3.439c-2.011,4.708-2.337,9.587-1.434,13.896
								c0.255,1.068,0.41,2.179,1.081,2.996c0.326,0.405,0.813,0.678,1.348,0.659c0.529-0.006,1.007-0.305,1.37-0.664
								c0.37-0.366,0.64-0.793,0.877-1.24c0.258-0.436,0.458-0.887,0.656-1.329c0.382-0.892,0.628-1.793,0.798-2.674
								c0.66-3.551-0.26-6.75-1.649-9.069l0.279,0.014c-1.943,2.436-2.3,4.808-2.321,6.329c-0.007,0.773,0.082,1.362,0.139,1.758
								c0.075,0.394,0.111,0.597,0.096,0.6c0,0-0.346-0.789-0.406-2.357c-0.032-1.539,0.272-3.959,2.223-6.479l0.151-0.194
								l0.129,0.208c1.456,2.347,2.44,5.604,1.8,9.245c-0.351,1.805-0.952,3.705-2.391,5.452c-0.401,0.401-0.986,0.802-1.733,0.822
								c-0.739,0.035-1.419-0.364-1.789-0.833c-0.781-0.964-0.915-2.089-1.186-3.164c-0.944-4.377-0.634-9.339,1.4-14.138
								c0.531-1.193,1.076-2.389,1.89-3.536c0.42-0.562,0.901-1.107,1.51-1.571c0.601-0.464,1.353-0.848,2.217-0.973
								c0.856-0.114,1.774,0.029,2.507,0.434c0.729,0.407,1.268,0.993,1.638,1.619c0.749,1.257,1.035,2.656,1.171,4.017
								c1.026,8.366,0.529,16.407-0.554,23.615c-0.547,3.604-1.195,7.031-2.237,10.16c-1.028,3.128-2.463,5.95-4.278,8.272
								c-3.65,4.693-8.701,7.034-12.267,7.782c-1.803,0.395-3.261,0.454-4.236,0.441c-0.488-0.006-0.859-0.052-1.108-0.066
								C137.553,469.951,137.426,469.935,137.428,469.927z"/>
						</g>
					</g>
				</g>
			</g>
			<g>
				<g>
					<g>
						<g>
							<path style="fill:#E0E0E0;" d="M157.137,343.058c-0.009,0.009-0.176-0.102-0.513-0.343c-0.364-0.266-0.868-0.634-1.544-1.128
								l0.131-0.025c-0.327,0.752-0.663,1.777-0.737,3.049c-0.072,1.266,0.126,2.788,0.898,4.358c0.2,0.389,0.406,0.792,0.735,1.119
								c0.314,0.333,0.801,0.541,1.293,0.453c0.483-0.085,0.872-0.459,1.125-0.881c0.258-0.429,0.422-0.907,0.493-1.419
								c0.356-2.064,0.428-4.348,0.063-6.751c-0.184-1.201-0.477-2.429-0.896-3.666c-0.211-0.622-0.437-1.233-0.806-1.801
								c-0.361-0.561-0.831-1.106-1.479-1.414c-0.634-0.313-1.461-0.313-2.105,0.01c-0.653,0.322-1.128,0.903-1.478,1.521
								c-0.363,0.621-0.566,1.312-0.775,2.019c-0.234,0.699-0.375,1.423-0.557,2.147c-1.257,5.855-0.536,12.289,0.289,18.906
								c1.012,7.955,1.384,15.588,1.279,22.518c-0.1,6.933-0.652,13.165-1.342,18.374c-0.705,5.209-1.507,9.399-2.156,12.279
								c-0.299,1.444-0.599,2.554-0.781,3.31c-0.093,0.354-0.166,0.637-0.224,0.857c-0.054,0.192-0.087,0.29-0.097,0.289
								c-0.01-0.002,0.002-0.103,0.035-0.299c0.042-0.223,0.096-0.509,0.164-0.867c0.142-0.762,0.404-1.877,0.666-3.325
								c0.576-2.887,1.311-7.079,1.958-12.283c0.633-5.204,1.139-11.425,1.207-18.34c0.073-6.915-0.315-14.521-1.325-22.462
								c-0.824-6.615-1.545-13.103-0.249-19.042c0.188-0.734,0.334-1.469,0.574-2.178c0.213-0.709,0.427-1.433,0.821-2.103
								c0.384-0.662,0.899-1.317,1.709-1.718c0.805-0.405,1.874-0.397,2.657-0.003c0.791,0.386,1.291,0.998,1.678,1.601
								c0.391,0.609,0.627,1.265,0.834,1.89c0.417,1.26,0.706,2.511,0.883,3.732c0.351,2.444,0.255,4.762-0.13,6.852
								c-0.08,0.53-0.262,1.056-0.552,1.522c-0.285,0.457-0.733,0.92-1.405,1.04c-0.667,0.118-1.31-0.19-1.653-0.573
								c-0.37-0.378-0.574-0.805-0.773-1.204c-0.768-1.625-0.939-3.187-0.835-4.477c0.106-1.298,0.48-2.333,0.842-3.086l0.045-0.093
								l0.086,0.068c0.652,0.515,1.139,0.899,1.49,1.177C156.999,342.922,157.146,343.049,157.137,343.058z"/>
						</g>
					</g>
				</g>
			</g>
		</g>
		<g>
			<g>
				<g>
					<g>
						<g>
							<g>
								<g>
									<g>
										<path style="fill:#E0E0E0;" d="M155.929,195.009c0,1.098-28.49,69.18-28.49,69.18l14.245-10.981l-20.522,47.584
											l13.521-14.275l-21.6,60.215l13.391-6.775l-13.521,42.093l11.589-10.981l-11.589,31.478l91.747-5.124l-21.73-59.297
											l13.123,10.981l-16.986-43.191l8.692,3.66l-19.798-55.637l9.175,4.758L155.929,195.009z"/>
									</g>
								</g>
							</g>
						</g>
					</g>
				</g>
			</g>
		</g>
	</g>
	<g>
		<g>
			<g>
				<g>
					<g>
						<path style="fill:#EBEBEB;" d="M356.206,469.995l-4.199-155.129l21.852-16.381l-1.729-3.236l-20.405,13.063L341.65,195.009
							h-5.022c0,0-3.58,253.004-9.556,261.687c-5.976,8.683-17.182,13.298-17.182,13.298H356.206z"/>
					</g>
				</g>
			</g>
			<g>
				<g>
					<g>
						<g>
							<path style="fill:#E0E0E0;" d="M349.991,461.997c-0.015-0.001-0.006-0.172,0.023-0.503c0.038-0.367,0.089-0.853,0.153-1.469
								c0.157-1.332,0.379-3.224,0.664-5.642c0.578-4.899,1.46-11.984,2.236-20.757c0.744-8.77,1.376-19.248,0.788-30.859
								c-0.299-5.802-0.92-11.885-2.062-18.132c-1.154-6.246-2.814-12.651-4.431-19.233c-1.623-6.581-3.04-13.058-3.732-19.39
								c-0.328-3.166-0.474-6.29-0.417-9.351c0.081-3.06,0.392-6.046,0.822-8.942c0.868-5.793,2.187-11.225,3.37-16.304
								c1.188-5.079,2.262-9.812,2.914-14.171c1.39-8.714,1.036-15.881,0.014-20.713c-0.466-2.426-1.084-4.266-1.495-5.513
								c-0.217-0.591-0.388-1.057-0.518-1.408c-0.112-0.319-0.163-0.484-0.149-0.488c0.014-0.004,0.092,0.153,0.232,0.465
								c0.149,0.347,0.348,0.807,0.6,1.39c0.466,1.237,1.139,3.076,1.659,5.507c1.13,4.844,1.579,12.062,0.259,20.822
								c-0.616,4.382-1.66,9.135-2.818,14.22c-1.153,5.086-2.443,10.51-3.284,16.272c-0.416,2.88-0.715,5.845-0.787,8.877
								c-0.048,3.033,0.104,6.131,0.435,9.274c0.699,6.288,2.114,12.736,3.735,19.311c1.616,6.574,3.275,12.994,4.422,19.27
								c1.136,6.277,1.743,12.386,2.021,18.208c0.546,11.653-0.151,22.148-0.974,30.925c-0.855,8.779-1.829,15.858-2.509,20.749
								c-0.353,2.411-0.63,4.299-0.824,5.628c-0.1,0.613-0.178,1.097-0.238,1.462C350.043,461.831,350.006,461.999,349.991,461.997z
								"/>
						</g>
					</g>
				</g>
			</g>
			<g>
				<g>
					<g>
						<g>
							<path style="fill:#E0E0E0;" d="M316.943,469.883c-0.018-0.138,2.898,0.41,7.839-0.724c4.845-1.103,11.68-4.369,16.585-10.794
								c2.445-3.187,4.374-7.054,5.756-11.353c1.401-4.301,2.269-9.027,3.004-14.012c1.453-9.963,2.114-21.059,0.699-32.59
								c-0.184-1.873-0.575-3.71-1.533-5.321c-0.471-0.799-1.138-1.503-1.975-1.972c-0.836-0.464-1.888-0.624-2.866-0.498
								c-2.008,0.295-3.509,1.752-4.593,3.195c-1.066,1.491-1.837,3.157-2.558,4.768c-2.788,6.528-3.24,13.292-1.988,19.266
								c0.354,1.48,0.569,3.022,1.499,4.154c0.453,0.562,1.127,0.94,1.869,0.913c0.734-0.009,1.396-0.423,1.899-0.921
								c0.512-0.508,0.888-1.099,1.216-1.719c0.357-0.604,0.635-1.229,0.91-1.843c0.53-1.236,0.87-2.486,1.106-3.708
								c0.916-4.924-0.36-9.358-2.286-12.573l0.387,0.019c-2.694,3.377-3.189,6.667-3.218,8.774
								c-0.009,1.072,0.114,1.889,0.193,2.437c0.104,0.546,0.154,0.828,0.133,0.832c0,0-0.48-1.094-0.563-3.268
								c-0.044-2.133,0.377-5.489,3.082-8.982l0.209-0.269l0.179,0.288c2.018,3.254,3.383,7.77,2.496,12.818
								c-0.486,2.503-1.321,5.137-3.315,7.559c-0.556,0.557-1.368,1.112-2.402,1.139c-1.025,0.049-1.968-0.505-2.481-1.155
								c-1.083-1.336-1.269-2.896-1.645-4.387c-1.309-6.069-0.88-12.948,1.941-19.602c0.736-1.654,1.491-3.312,2.621-4.902
								c0.583-0.779,1.25-1.535,2.094-2.178c0.834-0.642,1.875-1.175,3.074-1.349c1.186-0.158,2.46,0.04,3.476,0.601
								c1.01,0.564,1.758,1.377,2.272,2.245c1.038,1.742,1.435,3.682,1.623,5.57c1.423,11.599,0.733,22.748-0.768,32.742
								c-0.759,4.996-1.656,9.748-3.102,14.087c-1.426,4.336-3.414,8.249-5.932,11.469c-5.061,6.507-12.064,9.753-17.007,10.79
								c-2.5,0.548-4.521,0.629-5.872,0.612c-0.677-0.008-1.191-0.071-1.536-0.092C317.117,469.917,316.942,469.896,316.943,469.883
								z"/>
						</g>
					</g>
				</g>
			</g>
			<g>
				<g>
					<g>
						<g>
							<path style="fill:#E0E0E0;" d="M344.27,293.985c-0.013,0.012-0.243-0.141-0.712-0.476c-0.505-0.369-1.204-0.88-2.141-1.564
								l0.181-0.035c-0.453,1.043-0.919,2.463-1.021,4.227c-0.1,1.755,0.175,3.866,1.245,6.042c0.277,0.539,0.562,1.099,1.019,1.551
								c0.436,0.462,1.111,0.75,1.792,0.627c0.67-0.118,1.21-0.636,1.56-1.221c0.358-0.595,0.585-1.257,0.684-1.968
								c0.493-2.862,0.594-6.029,0.087-9.36c-0.255-1.664-0.662-3.368-1.242-5.083c-0.293-0.863-0.605-1.709-1.117-2.497
								c-0.5-0.777-1.152-1.534-2.05-1.961c-0.879-0.434-2.026-0.434-2.918,0.013c-0.906,0.446-1.564,1.252-2.05,2.109
								c-0.504,0.861-0.784,1.819-1.074,2.799c-0.324,0.969-0.519,1.974-0.773,2.976c-1.743,8.118-0.743,17.038,0.401,26.213
								c1.403,11.029,1.919,21.611,1.773,31.22c-0.138,9.612-0.904,18.253-1.861,25.475c-0.977,7.221-2.089,13.032-2.989,17.024
								c-0.414,2.002-0.83,3.542-1.082,4.59c-0.129,0.491-0.231,0.882-0.311,1.189c-0.075,0.267-0.12,0.402-0.135,0.4
								c-0.014-0.002,0.002-0.143,0.049-0.414c0.059-0.31,0.134-0.706,0.228-1.202c0.197-1.056,0.56-2.603,0.923-4.61
								c0.798-4.003,1.817-9.815,2.715-17.03c0.878-7.215,1.579-15.84,1.674-25.428c0.102-9.588-0.436-20.132-1.837-31.142
								c-1.142-9.171-2.143-18.166-0.345-26.401c0.26-1.018,0.463-2.036,0.796-3.02c0.295-0.983,0.592-1.987,1.138-2.916
								c0.532-0.918,1.246-1.827,2.37-2.382c1.117-0.561,2.599-0.551,3.684-0.004c1.096,0.534,1.79,1.383,2.327,2.22
								c0.542,0.845,0.869,1.754,1.156,2.621c0.578,1.747,0.979,3.482,1.224,5.174c0.487,3.388,0.353,6.603-0.181,9.501
								c-0.111,0.734-0.364,1.463-0.766,2.11c-0.395,0.633-1.017,1.275-1.948,1.442c-0.924,0.163-1.816-0.264-2.292-0.794
								c-0.513-0.525-0.796-1.117-1.072-1.67c-1.065-2.253-1.302-4.418-1.158-6.208c0.147-1.799,0.665-3.235,1.168-4.278l0.062-0.13
								l0.119,0.094c0.904,0.714,1.579,1.247,2.066,1.631C344.079,293.796,344.283,293.973,344.27,293.985z"/>
						</g>
					</g>
				</g>
			</g>
		</g>
		<g>
			<g>
				<g>
					<g>
						<g>
							<g>
								<g>
									<g>
										<path style="fill:#E0E0E0;" d="M342.595,88.721c0,1.523-39.5,95.915-39.5,95.915l19.75-15.225l-28.453,65.973
											l18.746-19.792l-29.947,83.486l18.566-9.393l-18.746,58.361l16.068-15.225l-16.068,43.644l127.203-7.105l-30.127-82.212
											l18.195,15.225l-23.55-59.883l12.051,5.075l-27.449-77.138l12.72,6.597L342.595,88.721z"/>
									</g>
								</g>
							</g>
						</g>
					</g>
				</g>
			</g>
		</g>
	</g>
	<g>
		<g>
			<g>
				<g>
					<g>
						<path style="fill:#EBEBEB;" d="M459.731,471.192l-5.064-187.062l26.35-19.753l-2.085-3.902l-24.606,15.752l-12.148-136.626
							h-6.056c0,0-4.317,305.085-11.523,315.556c-7.206,10.471-20.719,16.035-20.719,16.035H459.731z"/>
					</g>
				</g>
			</g>
			<g>
				<g>
					<g>
						<g>
							<path style="fill:#E0E0E0;" d="M452.237,461.549c-0.018-0.002-0.008-0.207,0.028-0.607c0.046-0.442,0.107-1.028,0.184-1.771
								c0.189-1.606,0.457-3.888,0.8-6.803c0.697-5.907,1.76-14.451,2.697-25.03c0.898-10.576,1.659-23.21,0.951-37.212
								c-0.36-6.997-1.109-14.332-2.486-21.864c-1.391-7.532-3.394-15.256-5.344-23.192c-1.957-7.936-3.665-15.746-4.5-23.381
								c-0.395-3.818-0.572-7.585-0.503-11.275c0.097-3.69,0.472-7.291,0.991-10.783c1.047-6.986,2.638-13.536,4.064-19.661
								c1.432-6.124,2.728-11.832,3.514-17.088c1.676-10.508,1.249-19.15,0.016-24.977c-0.562-2.925-1.307-5.144-1.803-6.648
								c-0.262-0.713-0.468-1.274-0.624-1.698c-0.135-0.385-0.196-0.584-0.18-0.589c0.017-0.005,0.111,0.184,0.28,0.56
								c0.18,0.419,0.42,0.973,0.723,1.676c0.562,1.492,1.374,3.709,2,6.641c1.363,5.841,1.904,14.545,0.313,25.109
								c-0.743,5.284-2.002,11.016-3.398,17.148c-1.39,6.132-2.945,12.674-3.96,19.622c-0.502,3.473-0.862,7.048-0.949,10.704
								c-0.057,3.657,0.126,7.393,0.525,11.184c0.842,7.582,2.549,15.357,4.504,23.286c1.948,7.928,3.949,15.669,5.332,23.237
								c1.37,7.569,2.102,14.936,2.437,21.957c0.658,14.051-0.182,26.708-1.174,37.29c-1.031,10.586-2.205,19.123-3.025,25.02
								c-0.426,2.908-0.759,5.184-0.994,6.786c-0.12,0.74-0.215,1.323-0.287,1.762C452.3,461.348,452.255,461.55,452.237,461.549z"
								/>
						</g>
					</g>
				</g>
			</g>
			<g>
				<g>
					<g>
						<g>
							<path style="fill:#E0E0E0;" d="M412.387,471.058c-0.022-0.166,3.495,0.495,9.452-0.874
								c5.842-1.33,14.084-5.268,19.999-13.016c2.948-3.844,5.274-8.506,6.941-13.691c1.69-5.186,2.736-10.885,3.622-16.896
								c1.753-12.013,2.549-25.395,0.843-39.298c-0.221-2.259-0.694-4.474-1.848-6.417c-0.568-0.964-1.372-1.813-2.382-2.378
								c-1.008-0.56-2.277-0.753-3.456-0.601c-2.421,0.355-4.232,2.112-5.539,3.852c-1.286,1.798-2.216,3.806-3.084,5.75
								c-3.362,7.872-3.907,16.028-2.397,23.232c0.427,1.785,0.686,3.644,1.807,5.009c0.546,0.678,1.359,1.133,2.254,1.101
								c0.885-0.01,1.683-0.509,2.29-1.11c0.618-0.612,1.071-1.325,1.466-2.073c0.431-0.729,0.765-1.482,1.097-2.223
								c0.639-1.491,1.049-2.998,1.334-4.471c1.104-5.938-0.434-11.285-2.757-15.162l0.467,0.023
								c-3.249,4.072-3.846,8.039-3.881,10.581c-0.011,1.293,0.137,2.277,0.232,2.939c0.125,0.658,0.186,0.999,0.16,1.004
								c0,0-0.579-1.319-0.679-3.941c-0.054-2.573,0.454-6.619,3.716-10.831l0.252-0.325l0.216,0.348
								c2.433,3.924,4.079,9.369,3.009,15.456c-0.587,3.018-1.592,6.195-3.997,9.115c-0.67,0.671-1.649,1.341-2.897,1.373
								c-1.236,0.059-2.373-0.608-2.991-1.393c-1.305-1.612-1.53-3.492-1.983-5.29c-1.578-7.318-1.061-15.614,2.34-23.637
								c0.888-1.994,1.798-3.993,3.16-5.911c0.703-0.939,1.507-1.85,2.524-2.626c1.005-0.775,2.261-1.417,3.707-1.627
								c1.43-0.19,2.966,0.048,4.192,0.725c1.218,0.68,2.119,1.661,2.739,2.707c1.252,2.101,1.731,4.44,1.957,6.717
								c1.716,13.986,0.884,27.431-0.926,39.481c-0.915,6.025-1.997,11.754-3.741,16.987c-1.719,5.229-4.117,9.947-7.153,13.83
								c-6.103,7.846-14.547,11.76-20.508,13.011c-3.015,0.661-5.451,0.758-7.081,0.737c-0.816-0.01-1.436-0.086-1.852-0.111
								C412.596,471.098,412.385,471.073,412.387,471.058z"/>
						</g>
					</g>
				</g>
			</g>
			<g>
				<g>
					<g>
						<g>
							<path style="fill:#E0E0E0;" d="M445.338,258.951c-0.016,0.015-0.293-0.17-0.858-0.574c-0.609-0.445-1.452-1.061-2.581-1.886
								l0.218-0.042c-0.547,1.258-1.109,2.97-1.231,5.098c-0.121,2.116,0.211,4.662,1.501,7.286c0.334,0.65,0.678,1.325,1.229,1.871
								c0.525,0.557,1.339,0.904,2.161,0.757c0.808-0.143,1.458-0.767,1.881-1.473c0.432-0.717,0.706-1.516,0.825-2.373
								c0.595-3.451,0.716-7.27,0.105-11.287c-0.307-2.007-0.798-4.061-1.498-6.129c-0.353-1.04-0.73-2.061-1.347-3.012
								c-0.603-0.937-1.389-1.849-2.472-2.364c-1.06-0.523-2.443-0.524-3.519,0.016c-1.092,0.538-1.885,1.51-2.472,2.543
								c-0.608,1.038-0.946,2.193-1.295,3.376c-0.391,1.168-0.626,2.38-0.932,3.589c-2.102,9.789-0.897,20.546,0.484,31.609
								c1.691,13.3,2.314,26.06,2.139,37.647c-0.167,11.59-1.09,22.011-2.244,30.719c-1.178,8.708-2.519,15.714-3.605,20.528
								c-0.499,2.414-1.001,4.271-1.305,5.534c-0.155,0.592-0.278,1.064-0.375,1.433c-0.091,0.322-0.145,0.485-0.163,0.483
								c-0.017-0.003,0.003-0.172,0.059-0.499c0.071-0.374,0.161-0.851,0.274-1.449c0.238-1.274,0.675-3.139,1.113-5.559
								c0.963-4.827,2.191-11.836,3.274-20.536c1.058-8.7,1.904-19.101,2.019-30.663c0.122-11.562-0.526-24.276-2.215-37.553
								c-1.377-11.059-2.584-21.906-0.416-31.836c0.314-1.228,0.559-2.455,0.96-3.642c0.356-1.185,0.714-2.396,1.373-3.516
								c0.641-1.107,1.502-2.202,2.858-2.873c1.347-0.677,3.134-0.664,4.442-0.005c1.322,0.645,2.159,1.668,2.806,2.676
								c0.653,1.018,1.048,2.115,1.394,3.16c0.697,2.107,1.18,4.199,1.476,6.239c0.587,4.085,0.426,7.962-0.218,11.456
								c-0.133,0.886-0.438,1.765-0.923,2.545c-0.476,0.763-1.226,1.538-2.349,1.738c-1.114,0.197-2.19-0.318-2.764-0.957
								c-0.619-0.633-0.96-1.346-1.293-2.013c-1.285-2.716-1.571-5.328-1.397-7.486c0.177-2.169,0.802-3.9,1.408-5.159l0.075-0.156
								l0.144,0.114c1.09,0.861,1.904,1.503,2.491,1.967C445.108,258.723,445.354,258.936,445.338,258.951z"/>
						</g>
					</g>
				</g>
			</g>
		</g>
		<g>
			<g>
				<g>
					<g>
						<g>
							<g>
								<g>
									<g>
										<path style="fill:#E0E0E0;" d="M443.318,11.433c0,1.836-47.631,115.659-47.631,115.659l23.815-18.359l-34.31,79.554
											l22.604-23.866l-36.112,100.671l22.388-11.326l-22.604,70.375l19.375-18.359l-19.375,52.628l153.388-8.567l-36.329-99.136
											l21.94,18.359l-28.398-72.21l14.532,6.12l-33.099-93.017l15.339,7.955L443.318,11.433z"/>
									</g>
								</g>
							</g>
						</g>
					</g>
				</g>
			</g>
		</g>
	</g>
	<g>
		<g>
			<g>
				<g>
					<g>
						<path style="fill:#EBEBEB;" d="M538.573,468.407l-3.329-122.993l17.325-12.987l-1.371-2.566l-16.178,10.357l-7.987-89.831
							h-3.982c0,0-2.838,200.593-7.577,207.478c-4.738,6.884-13.622,10.543-13.622,10.543H538.573z"/>
					</g>
				</g>
			</g>
			<g>
				<g>
					<g>
						<g>
							<path style="fill:#E0E0E0;" d="M533.646,462.066c-0.012-0.001-0.005-0.136,0.018-0.399c0.03-0.291,0.07-0.676,0.121-1.165
								c0.124-1.056,0.301-2.556,0.526-4.473c0.458-3.884,1.157-9.501,1.773-16.457c0.59-6.953,1.091-15.26,0.625-24.467
								c-0.237-4.6-0.73-9.423-1.635-14.375c-0.915-4.952-2.231-10.031-3.514-15.249c-1.287-5.218-2.41-10.353-2.959-15.373
								c-0.26-2.51-0.376-4.987-0.331-7.414c0.064-2.426,0.31-4.794,0.651-7.09c0.688-4.593,1.734-8.9,2.672-12.927
								c0.942-4.027,1.793-7.78,2.31-11.235c1.102-6.909,0.821-12.591,0.011-16.422c-0.37-1.923-0.86-3.382-1.185-4.371
								c-0.172-0.469-0.308-0.838-0.411-1.116c-0.089-0.253-0.129-0.384-0.118-0.387c0.011-0.003,0.073,0.121,0.184,0.368
								c0.119,0.275,0.276,0.64,0.476,1.102c0.369,0.981,0.903,2.438,1.315,4.366c0.896,3.84,1.252,9.563,0.206,16.509
								c-0.489,3.474-1.316,7.243-2.234,11.275c-0.914,4.032-1.937,8.333-2.604,12.901c-0.33,2.284-0.567,4.634-0.624,7.038
								c-0.038,2.405,0.083,4.861,0.345,7.353c0.554,4.985,1.676,10.097,2.962,15.31c1.281,5.212,2.596,10.302,3.506,15.279
								c0.901,4.977,1.382,9.82,1.602,14.436c0.433,9.239-0.12,17.56-0.772,24.518c-0.678,6.96-1.45,12.573-1.989,16.451
								c-0.28,1.912-0.499,3.409-0.653,4.462c-0.079,0.486-0.141,0.87-0.188,1.159C533.687,461.934,533.657,462.067,533.646,462.066
								z"/>
						</g>
					</g>
				</g>
			</g>
			<g>
				<g>
					<g>
						<g>
							<path style="fill:#E0E0E0;" d="M507.444,468.319c-0.014-0.109,2.298,0.325,6.215-0.574c3.841-0.875,9.26-3.464,13.149-8.558
								c1.939-2.527,3.468-5.593,4.564-9.001c1.111-3.41,1.799-7.157,2.382-11.109c1.152-7.899,1.676-16.697,0.554-25.838
								c-0.146-1.485-0.456-2.941-1.215-4.219c-0.373-0.634-0.902-1.192-1.566-1.564c-0.663-0.368-1.497-0.495-2.273-0.395
								c-1.592,0.234-2.782,1.389-3.642,2.533c-0.845,1.182-1.457,2.503-2.028,3.78c-2.21,5.176-2.569,10.539-1.576,15.275
								c0.281,1.174,0.451,2.396,1.188,3.293c0.359,0.446,0.893,0.745,1.482,0.724c0.582-0.007,1.107-0.335,1.505-0.73
								c0.406-0.402,0.704-0.871,0.964-1.363c0.283-0.479,0.503-0.975,0.721-1.462c0.42-0.98,0.69-1.971,0.877-2.94
								c0.726-3.904-0.286-7.42-1.813-9.969l0.307,0.015c-2.136,2.678-2.529,5.286-2.552,6.957c-0.007,0.85,0.09,1.497,0.153,1.932
								c0.082,0.432,0.122,0.657,0.105,0.66c0,0-0.381-0.867-0.446-2.591c-0.035-1.692,0.299-4.352,2.443-7.122l0.166-0.214
								l0.142,0.229c1.6,2.58,2.682,6.16,1.979,10.163c-0.386,1.984-1.047,4.073-2.628,5.993c-0.441,0.441-1.084,0.882-1.905,0.903
								c-0.813,0.039-1.56-0.4-1.967-0.916c-0.858-1.06-1.006-2.296-1.304-3.478c-1.038-4.811-0.697-10.266,1.539-15.541
								c0.584-1.311,1.182-2.626,2.078-3.887c0.462-0.617,0.991-1.217,1.66-1.726c0.661-0.509,1.487-0.932,2.438-1.07
								c0.94-0.125,1.95,0.032,2.756,0.477c0.801,0.447,1.393,1.092,1.801,1.78c0.823,1.381,1.138,2.919,1.287,4.416
								c1.128,9.196,0.581,18.036-0.609,25.959c-0.602,3.961-1.313,7.728-2.459,11.169c-1.13,3.438-2.707,6.54-4.703,9.093
								c-4.013,5.159-9.565,7.732-13.484,8.555c-1.982,0.435-3.584,0.499-4.656,0.485c-0.537-0.006-0.944-0.057-1.218-0.073
								C507.582,468.345,507.443,468.328,507.444,468.319z"/>
						</g>
					</g>
				</g>
			</g>
			<g>
				<g>
					<g>
						<g>
							<path style="fill:#E0E0E0;" d="M529.11,328.858c-0.01,0.01-0.193-0.112-0.564-0.377c-0.4-0.293-0.955-0.697-1.697-1.24
								l0.144-0.028c-0.359,0.827-0.729,1.953-0.81,3.352c-0.079,1.391,0.139,3.065,0.987,4.79c0.22,0.427,0.446,0.871,0.808,1.23
								c0.345,0.366,0.881,0.594,1.421,0.497c0.531-0.094,0.959-0.505,1.237-0.968c0.284-0.472,0.464-0.997,0.542-1.56
								c0.391-2.269,0.471-4.78,0.069-7.422c-0.202-1.32-0.525-2.67-0.985-4.03c-0.232-0.684-0.48-1.355-0.886-1.98
								c-0.397-0.616-0.914-1.216-1.626-1.555c-0.697-0.344-1.607-0.344-2.313,0.011c-0.718,0.354-1.24,0.993-1.625,1.672
								c-0.4,0.683-0.622,1.442-0.852,2.22c-0.257,0.768-0.412,1.565-0.612,2.36c-1.382,6.436-0.589,13.509,0.318,20.783
								c1.112,8.745,1.522,17.134,1.406,24.753c-0.11,7.621-0.717,14.472-1.476,20.198c-0.774,5.726-1.656,10.332-2.37,13.497
								c-0.328,1.587-0.658,2.808-0.858,3.639c-0.102,0.389-0.183,0.7-0.247,0.943c-0.06,0.211-0.095,0.319-0.107,0.317
								c-0.011-0.002,0.002-0.113,0.039-0.328c0.046-0.246,0.106-0.56,0.18-0.953c0.156-0.837,0.444-2.064,0.732-3.655
								c0.633-3.174,1.441-7.782,2.153-13.502c0.696-5.72,1.252-12.559,1.327-20.161c0.081-7.602-0.346-15.962-1.456-24.691
								c-0.905-7.271-1.699-14.403-0.274-20.932c0.206-0.807,0.367-1.614,0.631-2.395c0.234-0.779,0.469-1.575,0.903-2.312
								c0.422-0.728,0.988-1.448,1.879-1.889c0.885-0.445,2.06-0.437,2.921-0.003c0.869,0.424,1.419,1.097,1.845,1.76
								c0.43,0.67,0.689,1.391,0.917,2.078c0.458,1.385,0.776,2.76,0.97,4.102c0.386,2.686,0.28,5.235-0.143,7.533
								c-0.088,0.582-0.288,1.16-0.607,1.673c-0.313,0.502-0.806,1.011-1.544,1.143c-0.733,0.129-1.44-0.209-1.818-0.629
								c-0.407-0.416-0.631-0.885-0.85-1.324c-0.845-1.786-1.033-3.503-0.918-4.922c0.116-1.426,0.527-2.565,0.926-3.392
								l0.049-0.103l0.095,0.075c0.717,0.566,1.252,0.988,1.638,1.293C528.958,328.708,529.12,328.849,529.11,328.858z"/>
						</g>
					</g>
				</g>
			</g>
		</g>
		<g>
			<g>
				<g>
					<g>
						<g>
							<g>
								<g>
									<g>
										<path style="fill:#EBEBEB;" d="M527.782,166.116c0,1.207-31.317,76.046-31.317,76.046l15.658-12.071l-22.559,52.307
											l14.862-15.692l-23.744,66.191l14.72-7.447L480.54,371.72l12.739-12.071l-12.739,34.603l100.852-5.633l-23.886-65.182
											l14.425,12.071L553.26,288.03l9.555,4.023l-21.763-61.158l10.085,5.231L527.782,166.116z"/>
									</g>
								</g>
							</g>
						</g>
					</g>
				</g>
			</g>
		</g>
	</g>
</g>
<g id="Background_Simple" style="display:none;">
	<path style="display:inline;fill:#F5F5F5;" d="M344.042,101.145l-0.908,2.693c-7.654,22.702-2.617,47.842,13.795,64.995
		c2.11,2.205,4.379,4.258,6.797,6.134c17.406,13.502,41.941,17.34,62.901,9.838c12.327-4.412,23.953-12.538,36.988-12.182
		c16.964,0.463,29.613,14.857,40.065,28.077c10.452,13.219,23.147,27.592,40.114,27.98c10.626,0.243,20.733-5.35,28.529-12.66
		c20.641-19.355,27.275-50.691,20.744-77.932c-6.531-27.24-24.667-50.511-46.55-67.908c-30.655-24.372-70.432-38.597-109.675-34.228
		C397.6,40.321,359.822,64.889,344.042,101.145z"/>
	<circle style="display:inline;fill:#F5F5F5;" cx="228.292" cy="182.98" r="79.523"/>
</g>
<g id="Floor">
	<g>
		<path style="fill:#263238;" d="M706.011,471.009c0,0.144-148.211,0.26-330.995,0.26c-182.848,0-331.027-0.117-331.027-0.26
			s148.179-0.26,331.027-0.26C557.8,470.749,706.011,470.866,706.011,471.009z"/>
	</g>
</g>
<g id="Plants">
	<g>
		<g>
			<g>
				<path style="fill:#FF725E;" d="M284.111,427.404c1.993,0.865,3.458,2.707,4.194,4.751c0.736,2.044,0.802,4.277,0.557,6.435
					c-0.473,4.176-2.846,8.392-5.401,11.729c-3.517-3.069-4.326-8.423-4.565-11.165C278.517,434.82,280.463,426.758,284.111,427.404
					"/>
			</g>
		</g>
		<g>
			<g>
				<path style="fill:#FF725E;" d="M287.549,457.211c-0.563-2.36,0.419-4.949,2.231-6.564c1.812-1.614,4.343-2.297,6.762-2.112
					c1.119,0.085,2.328,0.412,2.968,1.333c0.599,0.861,0.532,2.063,0.046,2.992c-0.486,0.93-1.327,1.625-2.215,2.182
					C294.294,456.954,290.994,458.245,287.549,457.211"/>
			</g>
		</g>
		<g>
			<g>
				<g>
					<path style="fill:#263238;" d="M283.039,470.016c-0.021-0.005,0.027-0.309,0.125-0.857c0.111-0.603,0.254-1.383,0.425-2.319
						c0.389-1.938,0.888-4.714,2.394-7.409c1.486-2.688,3.565-4.668,5.317-5.65c0.87-0.503,1.631-0.803,2.168-0.959
						c0.265-0.089,0.482-0.123,0.624-0.159c0.144-0.03,0.22-0.041,0.223-0.031c0.025,0.068-1.218,0.292-2.904,1.333
						c-1.691,1.011-3.7,2.971-5.162,5.614c-1.477,2.639-2.007,5.376-2.449,7.304c-0.213,0.972-0.386,1.759-0.52,2.3
						C283.146,469.724,283.059,470.02,283.039,470.016z"/>
				</g>
			</g>
		</g>
		<g>
			<g>
				<g>
					<path style="fill:#263238;" d="M283.172,433.674c0.01,0,0.025,0.128,0.043,0.374c0.016,0.278,0.038,0.635,0.064,1.076
						c0.05,0.935,0.105,2.289,0.159,3.962c0.108,3.346,0.193,7.971,0.172,13.08c-0.023,5.11-0.148,9.735-0.285,13.08
						c-0.068,1.673-0.135,3.026-0.193,3.96c-0.03,0.441-0.054,0.798-0.073,1.076c-0.02,0.246-0.036,0.375-0.046,0.374
						s-0.015-0.13-0.015-0.377c0.004-0.278,0.009-0.636,0.016-1.078c0.023-0.974,0.056-2.318,0.096-3.962
						c0.082-3.345,0.173-7.968,0.196-13.075c0.021-5.105-0.029-9.727-0.083-13.073c-0.026-1.645-0.047-2.989-0.062-3.963
						c-0.003-0.442-0.005-0.8-0.007-1.078C283.155,433.805,283.161,433.675,283.172,433.674z"/>
				</g>
			</g>
		</g>
		<g>
			<g>
				<path style="fill:#FF725E;" d="M281.465,459.753c-0.8-5.053-4.205-9.621-8.819-11.831c-1.175-0.563-2.71-0.931-3.676-0.057
					c-0.967,0.876-0.751,2.447-0.277,3.663c1.97,5.06,7.26,8.632,12.689,8.568"/>
			</g>
		</g>
		<g>
			<g>
				<g>
					<path style="fill:#263238;" d="M273.215,451.883c0.009-0.019,0.274,0.098,0.746,0.325c0.237,0.112,0.527,0.251,0.843,0.449
						c0.316,0.197,0.698,0.39,1.073,0.673c0.384,0.271,0.812,0.559,1.228,0.924c0.437,0.341,0.862,0.752,1.307,1.188
						c0.866,0.893,1.738,1.959,2.484,3.191c0.734,1.239,1.265,2.511,1.636,3.699c0.167,0.6,0.328,1.17,0.413,1.718
						c0.119,0.541,0.163,1.056,0.211,1.523c0.065,0.466,0.043,0.894,0.059,1.266c0.017,0.373-0.007,0.694-0.028,0.955
						c-0.038,0.523-0.069,0.811-0.09,0.809c-0.069-0.003,0.051-1.161-0.154-3.008c-0.061-0.46-0.117-0.966-0.245-1.496
						c-0.094-0.538-0.262-1.096-0.434-1.684c-0.38-1.164-0.909-2.408-1.629-3.626c-0.732-1.21-1.582-2.262-2.423-3.152
						c-0.432-0.434-0.844-0.846-1.269-1.19c-0.403-0.368-0.819-0.663-1.19-0.942C274.243,452.424,273.184,451.942,273.215,451.883z"
						/>
				</g>
			</g>
		</g>
	</g>
</g>
<g id="Birds">
	<g>
		<g>
			<g>
				<path style="fill:#263238;" d="M584.115,142.367c-0.02,0.056-0.988-0.341-2.817-0.747c-1.819-0.4-4.55-0.753-7.862-0.303
					c-3.288,0.44-7.184,1.762-10.594,4.569c-3.403,2.755-6.315,6.926-7.478,11.873c-0.012,0.045-0.023,0.09-0.034,0.132
					l-0.218,0.848l-0.326-0.805c-1.903-4.701-5.285-8.436-8.953-10.81c-3.678-2.418-7.633-3.42-10.934-3.646
					c-3.321-0.232-6.016,0.245-7.812,0.715c-1.803,0.476-2.756,0.895-2.777,0.841c-0.008-0.018,0.226-0.13,0.68-0.328
					c0.452-0.2,1.136-0.461,2.038-0.727c1.794-0.54,4.515-1.087,7.897-0.904c3.357,0.177,7.414,1.157,11.193,3.606
					c3.767,2.404,7.244,6.216,9.198,11.038l-0.544,0.044c0.011-0.043,0.023-0.089,0.035-0.135c1.196-5.087,4.198-9.352,7.703-12.152
					c3.514-2.855,7.521-4.165,10.873-4.56c3.379-0.406,6.143,0.017,7.965,0.487c0.917,0.231,1.613,0.469,2.073,0.656
					C583.884,142.243,584.122,142.348,584.115,142.367z"/>
			</g>
		</g>
		<g>
			<g>
				<path style="fill:#263238;" d="M662.719,99.234c-0.017,0.047-0.556-0.155-1.56-0.362c-1-0.204-2.495-0.382-4.301-0.125
					c-1.794,0.252-3.912,0.982-5.764,2.515c-1.849,1.505-3.43,3.778-4.062,6.467l-0.018,0.072l-0.218,0.848l-0.326-0.804
					c-1.036-2.558-2.874-4.595-4.869-5.895c-2-1.323-4.153-1.879-5.955-2.014c-1.813-0.138-3.289,0.108-4.278,0.351
					c-0.992,0.246-1.522,0.46-1.541,0.414c-0.008-0.018,0.117-0.088,0.365-0.204c0.246-0.118,0.621-0.27,1.117-0.424
					c0.987-0.313,2.489-0.63,4.362-0.539c1.859,0.086,4.114,0.62,6.215,1.975c2.094,1.329,4.028,3.443,5.114,6.123l-0.544,0.044
					l0.019-0.075c0.665-2.829,2.337-5.196,4.287-6.747c1.956-1.581,4.185-2.299,6.043-2.506c1.874-0.214,3.401,0.035,4.404,0.309
					c0.505,0.135,0.886,0.274,1.137,0.385C662.598,99.15,662.726,99.215,662.719,99.234z"/>
			</g>
		</g>
		<g>
			<g>
				<path style="fill:#263238;" d="M611.326,81.58c0.035,0.036-0.538,0.617-1.511,1.714c-0.974,1.096-2.303,2.76-3.689,4.98
					c-2.786,4.383-5.574,11.369-5.478,19.384c-0.001,0.084-0.001,0.167-0.002,0.244l-0.568,0.047
					c-0.592-3.91-1.897-7.499-3.544-10.498c-1.643-3.008-3.573-5.451-5.396-7.29c-1.821-1.844-3.482-3.145-4.678-3.967
					c-1.194-0.825-1.885-1.242-1.859-1.286c0.01-0.017,0.191,0.07,0.529,0.253c0.331,0.193,0.848,0.438,1.453,0.849
					c1.242,0.771,2.959,2.035,4.84,3.866c1.883,1.825,3.876,4.278,5.572,7.321c1.7,3.033,3.045,6.683,3.65,10.669l-0.568,0.047
					c0.001-0.078,0.001-0.163,0.002-0.248c-0.098-8.155,2.803-15.232,5.708-19.608c1.445-2.218,2.835-3.858,3.866-4.914
					c0.497-0.546,0.94-0.915,1.218-1.185C611.156,81.697,611.313,81.566,611.326,81.58z"/>
			</g>
		</g>
	</g>
</g>
<g id="Pick_up_Truck">
	<g>
		<g>
			<path style="fill:#FFFFFF;" d="M313.095,406.812c0,0.144-13.118,0.26-29.297,0.26c-16.184,0-29.3-0.116-29.3-0.26
				c0-0.144,13.116-0.26,29.3-0.26C299.977,406.551,313.095,406.668,313.095,406.812z"/>
		</g>
		<g>
			<g>
				<g>
					<rect x="86.432" y="403.099" style="fill:#E0E0E0;" width="65.67" height="7.426"/>
					<path style="fill:#263238;" d="M88.143,406.812c0,2.051-0.766,3.713-1.711,3.713c-0.945,0-1.711-1.662-1.711-3.713
						c0-2.051,0.766-3.713,1.711-3.713C87.377,403.099,88.143,404.761,88.143,406.812z"/>
				</g>
				<g style="opacity:0.3;">
					<path d="M119.902,403.099c-1.074,2.308-1.21,5.024-0.373,7.426h7.285v-7.426H119.902z"/>
				</g>
			</g>
			<rect x="104.367" y="346.213" style="fill:#FF725E;" width="157.297" height="51.644"/>
			<rect x="104.367" y="346.213" style="opacity:0.3;" width="157.297" height="51.644"/>
			<path style="fill:#FF725E;" d="M325.009,307.857v89.85c0,6.785-5.5,12.285-12.285,12.285h-67.467
				c-4.029,0-7.439-2.943-8.054-6.926c-2.385-15.455-12.98-51.427-59.941-51.659c-42.556-0.21-57.299,28.524-61.654,40.803
				c-1.158,3.266-4.242,5.446-7.707,5.435l-45.371-0.145c-8.088-0.026-14.636-6.581-14.652-14.669l-0.159-77.704
				c-0.009-4.539,3.694-8.211,8.233-8.163l260.996,2.745C321.413,299.758,325.009,303.391,325.009,307.857z"/>
			<path style="fill:#E0E0E0;" d="M113.778,398.228l-56.537-0.371c-3.212,0.01-9.54-2.409-9.54-13.181v-11.908l78.393,0.729
				C120.127,381.601,115.86,390.219,113.778,398.228z"/>
			<path style="opacity:0.3;fill:#FFFFFF;" d="M59.448,365.349H50.4c-1.49,0-2.698-1.208-2.698-2.698v-23.677
				c0-1.49,1.208-2.698,2.698-2.698h9.048c1.49,0,2.698,1.208,2.698,2.698v23.677C62.146,364.14,60.938,365.349,59.448,365.349z"/>
			<path style="opacity:0.3;" d="M57.109,329.272h264.638c1.69,0,3.06-1.37,3.06-3.06l0,0c0-1.69-1.37-3.06-3.06-3.06H57.109
				c-1.69,0-3.06,1.37-3.06,3.06l0,0C54.05,327.902,55.419,329.272,57.109,329.272z"/>
			<g>
				<path style="fill:#E0E0E0;" d="M324.413,301.969l-276.672-1.59c-1.172-0.007-2.116-0.962-2.109-2.133l0,0
					c0.007-1.172,0.962-2.116,2.133-2.109l276.672,1.59c1.171,0.007,2.116,0.962,2.109,2.133l0,0
					C326.54,301.031,325.585,301.976,324.413,301.969z"/>
				<g>
					<path style="fill:#263238;" d="M324.413,301.969c-0.024-0.044,0.56,0.097,1.336-0.498c0.364-0.299,0.733-0.834,0.754-1.547
						c0.039-0.693-0.356-1.564-1.211-1.953c-0.42-0.212-0.92-0.193-1.449-0.189c-0.528-0.001-1.083-0.002-1.665-0.003
						c-1.165-0.003-2.439-0.006-3.818-0.01c-2.761-0.009-5.945-0.019-9.528-0.031c-14.346-0.063-35.091-0.154-60.722-0.266
						c-51.28-0.275-122.106-0.655-200.332-1.075c-1.106-0.046-2.06,1.044-1.863,2.128c0.073,0.529,0.389,1.021,0.844,1.303
						c0.458,0.315,0.99,0.3,1.623,0.294c2.431,0.014,4.854,0.028,7.269,0.042c4.83,0.028,9.628,0.056,14.391,0.084
						c9.526,0.056,18.913,0.111,28.137,0.166c18.447,0.111,36.24,0.219,53.19,0.321c33.899,0.216,64.425,0.41,90.064,0.573
						c25.631,0.182,46.373,0.33,60.718,0.432c7.162,0.062,12.725,0.111,16.508,0.144c1.881,0.022,3.317,0.039,4.293,0.051
						C323.918,301.948,324.413,301.969,324.413,301.969s-0.496,0.015-1.463,0.018c-0.976,0-2.412,0.001-4.293,0.001
						c-3.783-0.01-9.346-0.026-16.508-0.046c-14.345-0.063-35.087-0.154-60.719-0.266c-25.639-0.131-56.166-0.288-90.065-0.462
						c-16.951-0.092-34.744-0.19-53.19-0.29c-9.224-0.052-18.61-0.104-28.137-0.158c-4.763-0.027-9.561-0.054-14.391-0.082
						c-2.415-0.014-4.838-0.028-7.269-0.042c-0.311-0.008-0.588,0.013-0.944-0.027c-0.338-0.045-0.667-0.165-0.955-0.348
						c-0.581-0.361-0.986-0.989-1.081-1.668c-0.1-0.675,0.103-1.397,0.563-1.909c0.449-0.517,1.134-0.827,1.818-0.815
						c78.226,0.479,149.051,0.913,200.331,1.227c25.631,0.182,46.375,0.33,60.721,0.432c3.583,0.03,6.767,0.056,9.528,0.079
						c1.379,0.012,2.653,0.024,3.818,0.034c0.582,0.005,1.137,0.011,1.665,0.016c0.518,0,1.053-0.016,1.492,0.211
						c0.895,0.418,1.295,1.333,1.247,2.052c-0.031,0.74-0.421,1.286-0.8,1.585C324.975,302.107,324.389,301.941,324.413,301.969z"/>
				</g>
			</g>
			<path style="fill:#E0E0E0;" d="M321.231,409.992h-83.337c0.039-7.331-4.079-20.792-9.318-31.032h96.433v27.254
				C325.009,408.301,323.317,409.992,321.231,409.992z"/>
			<g>
				<path style="fill:#263238;" d="M228.292,353.544c-0.005,0.008-0.091-0.034-0.254-0.122c-0.187-0.105-0.423-0.237-0.716-0.401
					c-0.634-0.345-1.529-0.921-2.742-1.558c-2.389-1.335-5.929-3.129-10.46-4.97c-4.527-1.847-10.088-3.649-16.421-4.949
					c-6.327-1.307-13.436-2.038-20.892-1.874c-7.457,0.216-14.521,1.309-20.774,2.937c-6.259,1.621-11.721,3.704-16.148,5.78
					c-4.432,2.07-7.875,4.042-10.192,5.497c-1.178,0.698-2.043,1.318-2.658,1.695c-0.284,0.179-0.513,0.323-0.695,0.438
					c-0.158,0.096-0.242,0.142-0.247,0.134c-0.005-0.007,0.068-0.068,0.216-0.178c0.174-0.126,0.393-0.284,0.666-0.48
					c0.597-0.405,1.445-1.054,2.609-1.78c2.289-1.51,5.715-3.538,10.145-5.659c4.424-2.126,9.899-4.256,16.184-5.911
					c6.279-1.662,13.381-2.776,20.882-2.993c7.499-0.165,14.647,0.586,21.002,1.925c6.36,1.332,11.936,3.18,16.463,5.078
					c4.532,1.892,8.057,3.743,10.42,5.135c1.2,0.665,2.08,1.27,2.697,1.645c0.282,0.183,0.509,0.329,0.69,0.446
					C228.221,353.48,228.297,353.537,228.292,353.544z"/>
			</g>
			<g>
				<path style="fill:#263238;" d="M229.317,417.642c0.001-0.047-0.005-0.092-0.005-0.139h-0.001
					c0.14-29.577-23.567-53.812-53.208-54.24c-29.641-0.428-54.037,23.113-54.75,52.683l-0.012,0
					c-0.001,0.047-0.009,0.092-0.009,0.139c-0.001,0.103,0.004,0.205,0.003,0.308c0,0.028-0.003,0.056-0.003,0.084
					c-0.43,29.819,23.395,54.341,53.214,54.771c29.82,0.43,54.341-23.395,54.772-53.213c0.001-0.103-0.004-0.204-0.003-0.308
					C229.314,417.698,229.317,417.671,229.317,417.642z"/>
				<g>
					<g>
						<g>
							<g>
								<g>
									<g>
										<g>
											<g>
												<path style="fill:#E0E0E0;" d="M141.602,416.769c-0.268,18.623,14.61,33.937,33.232,34.206
													c18.623,0.269,33.938-14.61,34.206-33.233c0.268-18.623-14.61-33.937-33.234-34.206
													C157.185,383.267,141.871,398.146,141.602,416.769z"/>
											</g>
										</g>
									</g>
								</g>
							</g>
						</g>
						<g>
							<g>
								<g>
									<g>
										<g>
											<g>
												<path style="fill:#E0E0E0;" d="M175.806,383.536c-18.623-0.269-33.936,14.61-34.205,33.233l67.439,0.973
													C209.308,399.119,194.429,383.804,175.806,383.536z"/>
											</g>
										</g>
									</g>
								</g>
							</g>
						</g>
						<g>
							<g>
								<g>
									<g>
										<g>
											<g>
												<path style="fill:#263238;" d="M147.597,416.855c-0.221,15.312,12.013,27.904,27.324,28.124
													c15.312,0.221,27.904-12.013,28.125-27.324c0.221-15.312-12.014-27.904-27.326-28.125
													C160.41,389.31,147.818,401.543,147.597,416.855z"/>
											</g>
										</g>
									</g>
								</g>
							</g>
						</g>
					</g>
				</g>
				<path style="fill:#E0E0E0;" d="M162.837,389.314c0.289,0.433,10.536,12.845,10.536,12.845h5.34l10.103-11.691l9.67,6.639
					l-8.083,13.567l0.722,4.041l15.299,7.794l-5.629,11.691l-13.856-5.485l-4.186,2.454l-1.588,17.32l-12.701-0.866l-0.144-16.31
					l-4.041-3.608l-16.021,4.474l-4.041-12.124l16.454-5.052l1.732-4.474l-9.67-15.732L162.837,389.314z"/>
				<circle style="fill:#263238;" cx="175.322" cy="417.741" r="4.942"/>
			</g>
			<g>
				<path style="fill:#263238;" d="M286.441,328.856c0,0.144-50.508,0.26-112.799,0.26c-62.312,0-112.81-0.117-112.81-0.26
					s50.497-0.26,112.81-0.26C235.933,328.596,286.441,328.712,286.441,328.856z"/>
			</g>
			<g>
				<path style="fill:#263238;" d="M319.195,394.806c0,0.144-18.408,0.26-41.11,0.26c-22.71,0-41.114-0.116-41.114-0.26
					c0-0.144,18.404-0.26,41.114-0.26C300.787,394.546,319.195,394.662,319.195,394.806z"/>
			</g>
			<g>
				<path style="fill:#263238;" d="M52.26,385.489c0-0.144,14.81-0.26,33.074-0.26c18.271,0,33.077,0.117,33.077,0.26
					c0,0.144-14.807,0.26-33.077,0.26C67.07,385.749,52.26,385.633,52.26,385.489z"/>
			</g>
			<path style="opacity:0.4;fill:#FFFFFF;" d="M317.417,407.474h-73.153c-1.432,0-2.593-1.161-2.593-2.593v-4.283
				c0-1.432,1.161-2.593,2.593-2.593h73.153c1.432,0,2.593,1.161,2.593,2.593v4.283C320.01,406.314,318.849,407.474,317.417,407.474
				z"/>
			<path style="opacity:0.4;fill:#FFFFFF;" d="M108.723,396.111H59.316c-1.432,0-2.593-1.161-2.593-2.593v-4.283
				c0-1.432,1.161-2.593,2.593-2.593h49.408c1.432,0,2.593,1.161,2.593,2.593v4.283C111.317,394.95,110.156,396.111,108.723,396.111
				z"/>
			<g>
				<path style="fill:#FFFFFF;" d="M106.267,395.448c0,0.144-9.579,0.26-21.393,0.26c-11.818,0-21.395-0.116-21.395-0.26
					c0-0.144,9.577-0.26,21.395-0.26C96.688,395.187,106.267,395.304,106.267,395.448z"/>
			</g>
			<g style="opacity:0.4;">
				<path style="fill:#FFFFFF;" d="M175.662,343.624c-18.005-0.327-36.062,5.672-50.292,16.707c-0.663,0.514-1.336,1.06-1.732,1.799
					c-0.397,0.739-0.452,1.726,0.088,2.368c0.54,0.642,1.854,1.215,4.05-0.464c16.113-13.942,29.96-17.173,47.817-17.309
					c1.157-0.009,2.702-0.343,2.735-1.5C178.361,344.066,176.822,343.645,175.662,343.624z"/>
			</g>
			<circle style="opacity:0.4;fill:#FFFFFF;" cx="184.671" cy="345.05" r="1.684"/>
			<g>
				<path style="fill:#FFFFFF;" d="M234.955,322.418c0,0.144-35.035,0.26-78.242,0.26c-43.223,0-78.25-0.117-78.25-0.26
					s35.027-0.26,78.25-0.26C199.92,322.157,234.955,322.274,234.955,322.418z"/>
			</g>
			<g>
				<path style="fill:#FFFFFF;" d="M270.508,322.697c0,0.144-4.074,0.26-9.098,0.26c-5.026,0-9.099-0.116-9.099-0.26
					c0-0.144,4.073-0.26,9.099-0.26C266.435,322.437,270.508,322.554,270.508,322.697z"/>
			</g>
			<g>
				<path style="fill:#263238;" d="M59.448,365.349c-0.003-0.03,0.295-0.009,0.808-0.179c0.494-0.17,1.248-0.623,1.611-1.579
					c0.199-0.47,0.164-1.034,0.155-1.675c-0.007-0.638-0.014-1.326-0.022-2.064c-0.011-1.489-0.024-3.174-0.038-5.031
					c-0.016-3.744-0.035-8.177-0.056-13.095c-0.002-0.616-0.003-1.24-0.005-1.871c-0.016-0.646,0.061-1.264-0.183-1.796
					c-0.22-0.542-0.645-1.007-1.18-1.271c-0.536-0.296-1.145-0.263-1.835-0.257c-2.682,0.002-5.458,0.004-8.302,0.005
					c-1.314-0.033-2.466,1.139-2.44,2.414c-0.002,1.384-0.004,2.748-0.005,4.089c-0.005,2.681-0.01,5.268-0.015,7.734
					c-0.008,2.462-0.016,4.804-0.024,6.999c-0.005,1.095-0.01,2.153-0.015,3.172c-0.003,0.508-0.006,1.007-0.008,1.495
					c-0.016,0.482,0.05,0.912,0.246,1.309c0.371,0.792,1.144,1.309,1.923,1.411c0.793,0.056,1.618,0.027,2.348,0.045
					c1.467,0.017,2.739,0.032,3.798,0.044c1.005,0.021,1.805,0.037,2.4,0.049C59.159,365.313,59.448,365.331,59.448,365.349
					c0,0.018-0.288,0.035-0.837,0.052c-0.596,0.012-1.395,0.028-2.4,0.049c-1.06,0.012-2.331,0.027-3.798,0.044
					c-0.749-0.005-1.512,0.042-2.392-0.008c-0.883-0.102-1.774-0.676-2.211-1.578c-0.23-0.438-0.314-0.978-0.3-1.47
					c-0.003-0.488-0.005-0.987-0.008-1.495c-0.005-1.018-0.01-2.077-0.015-3.172c-0.007-2.195-0.016-4.536-0.024-6.999
					c-0.005-2.466-0.01-5.053-0.015-7.734c-0.001-1.342-0.002-2.708-0.003-4.094c0-0.76,0.318-1.52,0.864-2.063
					c0.542-0.547,1.313-0.87,2.094-0.867c2.844,0.002,5.62,0.004,8.302,0.005c0.345,0.006,0.647-0.012,1.025,0.016
					c0.362,0.036,0.715,0.138,1.036,0.3c0.644,0.322,1.153,0.882,1.415,1.536c0.133,0.326,0.203,0.676,0.209,1.024
					c0,0.321,0.001,0.641,0.001,0.958c-0.002,0.631-0.003,1.255-0.005,1.871c-0.021,4.918-0.04,9.351-0.056,13.095
					c-0.014,1.857-0.027,3.542-0.038,5.031c-0.008,0.737-0.015,1.426-0.021,2.064c-0.005,0.62,0.015,1.246-0.215,1.749
					c-0.424,1.019-1.246,1.462-1.768,1.606C59.743,365.413,59.448,365.349,59.448,365.349z"/>
			</g>
			<g>
				<path style="fill:#263238;" d="M113.778,398.228c0,0.018-0.303,0.036-0.88,0.053c-0.623,0.012-1.464,0.028-2.524,0.049
					c-2.241,0.02-5.4,0.048-9.282,0.083c-7.88,0.02-18.686,0.047-30.623,0.076c-2.99-0.002-5.91-0.004-8.73-0.005
					c-1.408-0.019-2.791,0.055-4.179-0.126c-1.371-0.188-2.687-0.601-3.85-1.234c-2.328-1.257-4.117-3.199-5.087-5.337
					c-1.06-2.113-1.169-4.405-1.107-6.334c0.035-3.882,0.063-7.04,0.083-9.281c0.021-1.06,0.037-1.901,0.049-2.523
					c0.017-0.577,0.035-0.88,0.052-0.88c0.018,0,0.036,0.303,0.053,0.88c0.012,0.622,0.028,1.464,0.049,2.523
					c0.02,2.241,0.048,5.399,0.083,9.281c-0.035,1.956,0.091,4.104,1.129,6.148c0.949,2.051,2.683,3.904,4.92,5.098
					c1.118,0.602,2.38,0.991,3.693,1.166c1.305,0.168,2.703,0.095,4.112,0.108c2.82-0.002,5.74-0.004,8.73-0.005
					c11.937,0.03,22.743,0.057,30.623,0.076c3.882,0.035,7.041,0.063,9.282,0.083c1.06,0.021,1.901,0.037,2.524,0.049
					C113.475,398.192,113.778,398.21,113.778,398.228z"/>
			</g>
		</g>
		<g>
			<path style="fill:#263238;" d="M325.52,379.214c0.009,0,0.018,0.101,0.027,0.299c0.007,0.227,0.015,0.517,0.026,0.879
				c0.012,0.809,0.028,1.94,0.049,3.379c0.02,2.972,0.048,7.208,0.083,12.426c0.01,2.627,0.02,5.499,0.032,8.581
				c0.048,1.593-0.632,3.281-1.926,4.411c-0.636,0.572-1.416,1.005-2.268,1.233c-0.857,0.252-1.762,0.209-2.612,0.214
				c-6.94,0.006-14.564,0.013-22.567,0.021c-15.999-0.03-30.479-0.057-41.004-0.076c-5.219-0.035-9.454-0.063-12.426-0.083
				c-1.438-0.021-2.569-0.037-3.378-0.049c-0.362-0.011-0.652-0.019-0.879-0.026c-0.198-0.009-0.299-0.018-0.299-0.027
				c0-0.009,0.101-0.018,0.299-0.027c0.227-0.007,0.516-0.015,0.879-0.026c0.809-0.012,1.94-0.028,3.378-0.049
				c2.971-0.02,7.207-0.048,12.426-0.083c10.525-0.02,25.005-0.047,41.004-0.076c8.003,0.007,15.627,0.014,22.567,0.02
				c0.878-0.001,1.711,0.04,2.488-0.187c0.783-0.205,1.501-0.599,2.089-1.124c1.196-1.04,1.832-2.575,1.797-4.068
				c0.012-3.082,0.022-5.955,0.032-8.581c0.035-5.219,0.063-9.455,0.083-12.426c0.021-1.439,0.037-2.57,0.049-3.379
				c0.011-0.362,0.019-0.652,0.026-0.879C325.502,379.316,325.511,379.214,325.52,379.214z"/>
		</g>
		<g>
			<rect x="513.719" y="351.499" style="fill:#FF725E;" width="157.297" height="51.644"/>
			<rect x="513.719" y="351.499" style="opacity:0.3;" width="157.297" height="51.644"/>
			<path style="fill:#FF725E;" d="M342.813,228.688l119.364,1.093c0,0,13.835-1.211,22.058,11.225
				c4.602,6.96,51.683,53.789,51.683,53.789s78.537,5.519,103.496,10.078c24.96,4.559,48.198,11.038,50.78,22.075
				c2.582,11.038,0,50.629,0,50.629h-31.332c0,0-9.21-22.873-49.967-20.033c-40.757,2.841-51.73,53.754-51.73,53.754l-228.737-0.917
				v-99.649l7.879-76.229C336.649,231.177,339.468,228.658,342.813,228.688z"/>
			<polygon style="fill:#263238;" points="674.186,415.4 674.186,426.791 693.308,426.791 695.197,415.4 			"/>
			<path style="fill:#E0E0E0;" d="M661.317,376.222l-3.06,2.474c0.449-0.554,9.986,14.334,10.978,23.342
				c0.638,5.794,1.717,11.506,1.896,14.435c0.067,1.087,0.984,1.923,2.073,1.896l25.459-0.626c0,0,3.203,0.603,3.819-5.473
				s2.64-26.059,1.587-28.844c-1.76-4.651-12.978-3.707-12.978-3.707l-0.167-3.497H661.317z"/>
			<path style="fill:#E0E0E0;" d="M690.823,331.07c0,0-12.586,0.011-13.854-0.014c-1.903-0.038-6.147,0.229-6.035,7.592
				c0.145,9.491,0.019,22.257,0.019,22.257s-1,6.897,6.179,6.897c6.357,0,13.596-0.031,13.596-0.031s0.708-15.829,0.614-21.259
				c-0.066-3.827-0.192-9.843-0.323-13.113C690.964,332.029,690.823,331.07,690.823,331.07z"/>
			<path style="fill:#FF725E;" d="M691.07,334.204h-12.698c0,0-3.859,0.259-4.11,4.732c-0.152,2.704-0.028,14.51-0.028,14.51h17.043
				c0,0,0.076-7.463,0-11.349C691.202,338.212,691.07,334.204,691.07,334.204z"/>
			<path style="fill:#FFFFFF;" d="M674.234,353.447l0.058,6.625c0,0-0.058,4.551,4.859,4.472c4.854-0.078,11.711,0.014,11.711,0.014
				l0.414-11.111H674.234z"/>
			<g>
				<path style="fill:#263238;" d="M500.352,285.347l-2.66,15.426h10.06c1.414,0,2.559-1.146,2.559-2.559l0,0
					c0-0.596-0.207-1.173-0.587-1.632C507.844,294.311,501.997,287.26,500.352,285.347z"/>
			</g>
			<g>
				<path style="fill:#455A64;" d="M407.221,239.888c0,0-6.375-0.797-6.773,7.57c-0.34,7.134-0.969,40.193-1.147,49.779
					c-0.027,1.441,1.129,2.621,2.57,2.631l95.676,0.689c1.816,0.013,3.283-1.478,3.239-3.293l-0.25-10.515
					c-0.017-0.708-0.267-1.392-0.712-1.943l-34.67-42.979c-0.482-0.597-1.203-0.95-1.97-0.963L407.221,239.888z"/>
				<g>
					<path style="fill:#263238;" d="M407.221,239.888c0,0,0.257-0.013,0.756-0.013c0.515,0.003,1.253,0.007,2.216,0.013
						c1.964,0.023,4.83,0.056,8.517,0.099c7.41,0.11,18.104,0.268,31.315,0.463c3.305,0.052,6.768,0.107,10.375,0.164
						c0.902,0.014,1.813,0.029,2.733,0.044c0.488-0.001,0.994,0.131,1.424,0.386c0.444,0.24,0.776,0.663,1.053,1.017
						c1.179,1.458,2.381,2.944,3.603,4.455c4.888,6.047,10.109,12.508,15.604,19.305c2.746,3.4,5.561,6.885,8.436,10.444
						c1.437,1.78,2.89,3.579,4.357,5.395c0.733,0.908,1.47,1.821,2.21,2.738c0.39,0.435,0.749,1.027,0.881,1.646
						c0.141,0.646,0.08,1.232,0.116,1.824c0.057,2.377,0.115,4.776,0.174,7.194l0.044,1.817c0.033,0.59-0.009,1.311-0.303,1.896
						c-0.533,1.209-1.812,2.053-3.149,2.04c-4.913-0.034-9.898-0.069-14.943-0.104c-20.181-0.152-39.405-0.298-56.892-0.43
						c-4.371-0.035-8.634-0.069-12.775-0.103c-2.071-0.017-4.111-0.034-6.12-0.05c-1.004-0.008-2.001-0.017-2.989-0.025
						c-0.494-0.004-0.986-0.008-1.476-0.012c-0.469,0.001-1.029,0.012-1.518-0.199c-0.99-0.376-1.7-1.345-1.772-2.382
						c-0.006-0.996,0.038-1.913,0.054-2.859c0.046-1.875,0.091-3.716,0.135-5.52c0.089-3.608,0.174-7.071,0.256-10.376
						c0.34-13.209,0.615-23.901,0.805-31.31c0.102-1.855,0.521-3.506,1.265-4.745c0.752-1.24,1.793-1.985,2.691-2.362
						c0.907-0.384,1.665-0.461,2.162-0.483C406.968,239.835,407.221,239.888,407.221,239.888s-0.256-0.016-0.752,0.018
						c-0.492,0.039-1.239,0.134-2.123,0.526c-0.876,0.387-1.879,1.126-2.6,2.345c-0.713,1.219-1.11,2.843-1.196,4.676
						c-0.151,7.409-0.37,18.101-0.639,31.311c-0.071,3.305-0.145,6.767-0.222,10.375c-0.039,1.804-0.079,3.644-0.12,5.519
						c-0.014,0.928-0.054,1.904-0.048,2.818c0.063,0.878,0.667,1.697,1.505,2.013c0.418,0.177,0.86,0.167,1.365,0.166
						c0.49,0.003,0.982,0.006,1.476,0.009c0.988,0.006,1.985,0.012,2.989,0.018c2.009,0.012,4.049,0.025,6.12,0.038
						c4.142,0.026,8.404,0.053,12.776,0.081c17.487,0.12,36.711,0.251,56.892,0.389c5.043,0.036,10.026,0.072,14.937,0.107
						c1.138,0.012,2.226-0.706,2.681-1.736c0.25-0.521,0.286-1.055,0.257-1.67l-0.043-1.817c-0.057-2.418-0.113-4.816-0.169-7.194
						c-0.032-0.591,0.017-1.207-0.102-1.722c-0.125-0.544-0.389-0.997-0.78-1.441c-0.739-0.917-1.475-1.831-2.208-2.74
						c-1.465-1.818-2.915-3.618-4.351-5.399c-2.87-3.563-5.681-7.051-8.423-10.455c-5.481-6.809-10.691-13.279-15.567-19.336
						c-1.218-1.514-2.416-3.003-3.592-4.464c-0.989-1.759-3.146-1.147-4.893-1.307c-3.608-0.069-7.072-0.135-10.378-0.198
						c-13.211-0.265-23.906-0.48-31.316-0.629c-3.685-0.085-6.55-0.152-8.512-0.197c-0.961-0.028-1.698-0.049-2.213-0.064
						C407.476,239.91,407.221,239.888,407.221,239.888z"/>
				</g>
			</g>
			<polygon style="fill:#263238;" points="468.387,245.835 467.559,299.978 474.236,300.672 474.236,253.085 			"/>
			<g>
				<path style="fill:#455A64;" d="M380.551,239.867l-3.987,59.186c0,0-12.938-0.983-23.134-3.273
					c-1.175-0.264-5.381-1.462-8.001-2.649c-4.41-1.997-7.064-6.578-6.622-11.399l3.293-35.851c0.139-3.364,2.733-6.015,5.886-6.015
					H380.551z"/>
				<g>
					<path style="fill:#263238;" d="M380.551,239.867c0,0-0.173,0.012-0.492,0.018c-0.339,0.005-0.806,0.011-1.405,0.019
						c-1.25,0.01-3.05,0.025-5.358,0.043c-4.647,0.024-11.331,0.059-19.579,0.102c-2.05,0.031-4.247-0.04-6.445,0.072
						c-2.18,0.266-4.139,2.048-4.729,4.336c-0.17,0.568-0.204,1.157-0.255,1.776c-0.056,0.617-0.112,1.238-0.168,1.865
						c-0.113,1.253-0.228,2.526-0.344,3.818c-0.234,2.584-0.474,5.243-0.721,7.969c-0.496,5.454-1.017,11.178-1.556,17.111
						c-0.135,1.483-0.272,2.98-0.41,4.489c-0.168,1.485-0.027,2.989,0.388,4.436c0.849,2.88,2.926,5.453,5.716,6.8
						c2.538,1.185,5.263,1.995,7.918,2.715c2.688,0.621,5.388,1.108,8.042,1.53c5.314,0.836,10.49,1.426,15.43,1.843l-0.262,0.227
						c1.212-17.267,2.248-32.024,2.982-42.491c0.38-5.225,0.682-9.378,0.892-12.251c0.108-1.413,0.191-2.509,0.25-3.278
						c0.03-0.359,0.054-0.639,0.072-0.852C380.534,239.973,380.546,239.872,380.551,239.867c0.005-0.005,0.004,0.086-0.004,0.27
						c-0.01,0.206-0.024,0.477-0.041,0.825c-0.044,0.757-0.107,1.838-0.188,3.23c-0.177,2.861-0.433,6.997-0.756,12.202
						c-0.678,10.512-1.635,25.332-2.754,42.675l-0.016,0.247l-0.246-0.02c-4.959-0.408-10.139-0.991-15.473-1.823
						c-2.667-0.423-5.363-0.905-8.088-1.533c-1.356-0.348-2.697-0.753-4.039-1.196c-1.339-0.453-2.682-0.914-3.985-1.555
						c-2.921-1.411-5.096-4.105-5.982-7.12c-0.435-1.509-0.578-3.102-0.404-4.63c0.139-1.508,0.277-3.004,0.414-4.487
						c0.55-5.931,1.08-11.652,1.586-17.103c0.254-2.725,0.502-5.382,0.742-7.965c0.121-1.291,0.24-2.563,0.357-3.816
						c0.059-0.626,0.117-1.247,0.174-1.864c0.053-0.613,0.094-1.258,0.276-1.86c0.638-2.44,2.743-4.344,5.092-4.621
						c2.311-0.109,4.46-0.02,6.548-0.038c8.279,0.043,14.987,0.077,19.652,0.102c2.286,0.019,4.071,0.033,5.309,0.044
						c0.584,0.008,1.039,0.014,1.37,0.019C380.404,239.855,380.551,239.867,380.551,239.867z"/>
				</g>
			</g>
			<g>
				<path style="fill:#455A64;" d="M481.156,237.205c-0.242-0.252-0.584-0.379-0.932-0.341c-1.355,0.148-4.746,0.591-4.825,1.319
					c-0.085,0.776,36.006,43.871,46.685,56.603c1.769,2.109,4.662,2.882,7.249,1.944l6.59-2.389L481.156,237.205z"/>
				<g>
					<path style="fill:#263238;" d="M481.156,237.205c0.006-0.006,0.106,0.086,0.296,0.272c0.204,0.204,0.48,0.48,0.833,0.834
						c0.743,0.759,1.809,1.849,3.176,3.246c2.765,2.857,6.744,6.969,11.68,12.07c9.88,10.277,23.586,24.534,38.969,40.535
						l0.279,0.29l-0.377,0.134c-2.319,0.822-4.715,1.753-7.266,2.592c-1.512,0.379-3.144,0.225-4.534-0.439
						c-0.696-0.327-1.335-0.771-1.88-1.307c-0.546-0.554-0.972-1.123-1.454-1.68c-1.874-2.239-3.721-4.445-5.535-6.613
						c-3.622-4.341-7.115-8.528-10.444-12.518c-6.62-8.002-12.582-15.21-17.595-21.27c-4.97-6.087-9.006-10.998-11.63-14.536
						l-0.232-0.34c-0.065-0.12-0.198-0.303-0.078-0.457c0.187-0.265,0.447-0.332,0.672-0.436c0.466-0.174,0.914-0.273,1.33-0.36
						c0.833-0.165,1.545-0.255,2.12-0.321c0.564-0.063,1.035-0.141,1.315,0.027C481.076,237.063,481.156,237.205,481.156,237.205
						c-0.01,0.013-0.107-0.117-0.376-0.23c-0.269-0.144-0.707-0.052-1.28,0.028c-0.571,0.083-1.279,0.19-2.102,0.369
						c-0.409,0.094-0.852,0.2-1.296,0.375c-0.207,0.092-0.466,0.194-0.575,0.368c-0.069,0.141,0.177,0.349,0.311,0.58
						c2.661,3.483,6.745,8.365,11.75,14.419c5.037,6.04,11.028,13.223,17.679,21.197c3.336,3.983,6.837,8.164,10.466,12.498
						c1.816,2.166,3.665,4.37,5.541,6.607c0.472,0.547,0.933,1.151,1.421,1.643c0.504,0.494,1.093,0.904,1.736,1.206
						c1.284,0.614,2.792,0.755,4.188,0.405c2.449-0.807,4.919-1.761,7.215-2.574l-0.099,0.423
						c-15.336-16.046-28.999-30.344-38.849-40.65c-4.887-5.148-8.827-9.298-11.565-12.18c-1.338-1.425-2.382-2.536-3.109-3.311
						c-0.338-0.368-0.603-0.655-0.798-0.867C481.238,237.315,481.15,237.211,481.156,237.205z"/>
				</g>
			</g>
			<path style="fill:#E0E0E0;" d="M392.685,321.549L392.685,321.549c-2.19,0-3.965-1.775-3.965-3.965l0,0
				c0-2.19,1.775-3.965,3.965-3.965l0,0c2.19,0,3.965,1.775,3.965,3.965l0,0C396.651,319.773,394.875,321.549,392.685,321.549z"/>
			<path style="opacity:0.3;" d="M415.181,322.458v-6.218c0-2.199-1.782-3.981-3.98-3.981h-9.259c-2.198,0-3.98,1.782-3.98,3.98
				v6.218h-69.456v7.114h335.853c1.964,0,3.557-1.592,3.557-3.557l0,0c0-1.964-1.593-3.557-3.557-3.557H415.181z"/>
			<circle style="fill:#E0E0E0;" cx="391.141" cy="334.809" r="2.854"/>
			<path style="fill:#E0E0E0;" d="M574.71,349.715h-18.568c-1.367,0-2.476-1.108-2.476-2.475v-2.49c0-1.367,1.108-2.475,2.476-2.475
				h18.568c1.367,0,2.475,1.108,2.475,2.475v2.49C577.186,348.606,576.077,349.715,574.71,349.715z"/>
			<rect x="266.125" y="409.54" style="fill:#263238;" width="278.842" height="9.998"/>
			<path style="fill:#E0E0E0;" d="M555.55,411.954l-227.123-1.573v-33.395l242.764,0.16l-13.147,33.126
				C557.639,411.294,556.648,411.962,555.55,411.954z"/>
			<g>
				<path style="fill:#263238;" d="M559.78,397.597c0,0.144-51.048,0.26-114.004,0.26c-62.978,0-114.014-0.117-114.014-0.26
					s51.037-0.26,114.014-0.26C508.733,397.337,559.78,397.453,559.78,397.597z"/>
			</g>
			<g>
				<path style="fill:#263238;" d="M664.748,358.227c-0.006,0.007-0.096-0.051-0.267-0.17c-0.192-0.138-0.44-0.316-0.751-0.54
					c-0.671-0.459-1.587-1.236-2.886-2.068c-2.528-1.761-6.36-4.083-11.386-6.336c-2.508-1.137-5.345-2.173-8.431-3.146
					c-3.111-0.887-6.467-1.751-10.07-2.271c-7.184-1.122-15.286-1.187-23.549,0.318c-8.249,1.594-15.778,4.593-22.066,8.245
					c-3.17,1.792-5.985,3.814-8.562,5.769c-2.523,2.027-4.791,4.021-6.716,5.99c-3.867,3.922-6.596,7.475-8.313,10.033
					c-0.909,1.247-1.481,2.303-1.939,2.974c-0.209,0.321-0.375,0.577-0.504,0.775c-0.116,0.173-0.18,0.26-0.187,0.255
					c-0.008-0.004,0.04-0.1,0.141-0.282c0.118-0.205,0.269-0.47,0.46-0.802c0.43-0.689,0.975-1.765,1.861-3.033
					c1.67-2.6,4.365-6.203,8.218-10.179c1.918-1.996,4.184-4.018,6.711-6.071c2.581-1.981,5.405-4.03,8.589-5.845
					c6.317-3.699,13.897-6.736,22.211-8.342c8.327-1.518,16.491-1.436,23.718-0.28c3.625,0.537,6.999,1.421,10.123,2.332
					c3.099,0.997,5.944,2.059,8.455,3.223c5.033,2.307,8.852,4.688,11.351,6.505c1.285,0.86,2.184,1.665,2.835,2.152
					c0.298,0.241,0.536,0.432,0.72,0.581C664.674,358.148,664.754,358.22,664.748,358.227z"/>
			</g>
			<g>
				<path style="fill:#263238;" d="M669.941,418.094c0.001-0.047-0.005-0.093-0.005-0.139h-0.001
					c0.14-29.577-23.567-53.812-53.208-54.24c-29.641-0.428-54.037,23.114-54.75,52.683l-0.012,0
					c-0.001,0.047-0.009,0.092-0.01,0.139c-0.001,0.103,0.004,0.205,0.003,0.308c0,0.028-0.003,0.056-0.003,0.084
					c-0.43,29.819,23.395,54.341,53.214,54.771c29.82,0.43,54.341-23.394,54.772-53.213c0.001-0.103-0.004-0.205-0.003-0.308
					C669.938,418.15,669.94,418.123,669.941,418.094z"/>
				<g>
					<g>
						<g>
							<g>
								<g>
									<g>
										<g>
											<g>
												<path style="fill:#E0E0E0;" d="M582.226,417.221c-0.268,18.623,14.61,33.937,33.232,34.206
													c18.623,0.269,33.938-14.61,34.206-33.233c0.269-18.623-14.61-33.937-33.234-34.206
													C597.809,383.719,582.495,398.598,582.226,417.221z"/>
											</g>
										</g>
									</g>
								</g>
							</g>
						</g>
						<g>
							<g>
								<g>
									<g>
										<g>
											<g>
												<path style="fill:#E0E0E0;" d="M616.43,383.988c-18.623-0.269-33.937,14.61-34.205,33.233l67.439,0.973
													C649.932,399.571,635.053,384.256,616.43,383.988z"/>
											</g>
										</g>
									</g>
								</g>
							</g>
						</g>
						<g>
							<g>
								<g>
									<g>
										<g>
											<g>
												<path style="fill:#263238;" d="M588.221,417.308c-0.221,15.312,12.013,27.904,27.324,28.124
													c15.312,0.221,27.904-12.013,28.125-27.324c0.221-15.312-12.014-27.904-27.326-28.125
													C601.033,389.762,588.442,401.995,588.221,417.308z"/>
											</g>
										</g>
									</g>
								</g>
							</g>
						</g>
					</g>
				</g>
				<path style="fill:#E0E0E0;" d="M603.461,389.766c0.289,0.433,10.536,12.846,10.536,12.846h5.34l10.103-11.691l9.67,6.639
					l-8.083,13.567l0.722,4.041l15.299,7.794l-5.629,11.691l-13.856-5.485l-4.186,2.454l-1.588,17.32l-12.701-0.866l-0.144-16.31
					l-4.041-3.608l-16.021,4.474l-4.041-12.124l16.454-5.052l1.732-4.474l-9.67-15.732L603.461,389.766z"/>
				<circle style="fill:#263238;" cx="615.945" cy="418.194" r="4.942"/>
			</g>
			<g>
				<path style="fill:#263238;" d="M565.19,392.967c0,0-0.135,0.326-0.421,0.952c-0.282,0.641-0.692,1.574-1.229,2.796
					c-1.061,2.466-2.562,6.131-4.394,10.89c-0.228,0.595-0.462,1.207-0.702,1.836c-0.238,0.609-0.43,1.339-0.996,1.846
					c-0.53,0.512-1.29,0.813-2.059,0.788c-0.742-0.002-1.501-0.005-2.277-0.007c-3.104-0.01-6.475-0.022-10.097-0.034
					c-7.247-0.028-15.497-0.06-24.615-0.096c-36.488-0.18-86.877-0.428-142.529-0.703c-16.373-0.092-32.289-0.181-47.444-0.266
					l-0.252-0.001l0-0.252c0.03-39.575,0.057-74.454,0.077-100.707v-0.009l0.001-0.009c1.772-16.585,3.19-29.866,4.167-39.014
					c0.498-4.559,0.883-8.086,1.145-10.486c0.135-1.186,0.238-2.09,0.309-2.712c0.072-0.61,0.122-0.92,0.122-0.92
					s-0.016,0.314-0.072,0.925c-0.06,0.623-0.146,1.53-0.26,2.717c-0.241,2.403-0.595,5.933-1.053,10.496
					c-0.94,9.152-2.305,22.438-4.009,39.031l0.001-0.018c0.02,26.253,0.047,61.133,0.077,100.707l-0.252-0.253
					c15.155,0.08,31.072,0.165,47.444,0.252c55.652,0.334,106.04,0.636,142.528,0.855c9.118,0.064,17.368,0.122,24.615,0.173
					c3.622,0.027,6.993,0.053,10.097,0.077c1.516-0.074,3.166,0.357,4.179-0.696c0.521-0.458,0.703-1.13,0.951-1.759
					c0.244-0.627,0.482-1.238,0.713-1.832c1.862-4.75,3.394-8.404,4.487-10.858C564.53,394.216,565.19,392.967,565.19,392.967z"/>
			</g>
			<g>
				<path style="fill:#263238;" d="M636.519,329.572c0,0.144-50.508,0.26-112.799,0.26c-62.312,0-112.81-0.117-112.81-0.26
					s50.497-0.26,112.81-0.26C586.011,329.312,636.519,329.428,636.519,329.572z"/>
			</g>
			<g>
				<path style="fill:#FFFFFF;" d="M372.141,322.615c0,0.144-6.986,0.26-15.602,0.26c-8.619,0-15.604-0.116-15.604-0.26
					c0-0.144,6.985-0.26,15.604-0.26C365.155,322.355,372.141,322.471,372.141,322.615z"/>
			</g>
			<g>
				<path style="fill:#FFFFFF;" d="M492.622,322.615c0,0.144-12.94,0.26-28.898,0.26c-15.964,0-28.9-0.116-28.9-0.26
					c0-0.144,12.937-0.26,28.9-0.26C479.682,322.355,492.622,322.471,492.622,322.615z"/>
			</g>
			<g>
				<path style="fill:#FFFFFF;" d="M661.403,321.801c0,0.144-24.725,0.26-55.218,0.26c-30.503,0-55.223-0.117-55.223-0.26
					c0-0.144,24.72-0.26,55.223-0.26C636.678,321.541,661.403,321.657,661.403,321.801z"/>
			</g>
			<g>
				<path style="fill:#263238;" d="M690.863,364.558c0,0.018-0.211,0.035-0.612,0.052c-0.457,0.013-1.039,0.029-1.756,0.049
					c-1.593,0.02-3.782,0.048-6.457,0.083c-0.683,0.005-1.397,0.011-2.14,0.017c-0.744-0.017-1.508,0.07-2.357-0.075
					c-1.658-0.298-3.229-1.732-3.53-3.642c-0.089-0.477-0.064-0.952-0.07-1.404c-0.001-0.462-0.003-0.928-0.004-1.4
					c-0.002-0.944-0.004-1.907-0.006-2.887c-0.002-1.962-0.003-3.992-0.005-6.072c0.002-2.08,0.004-4.111,0.005-6.073
					c0.002-0.98,0.004-1.944,0.006-2.888c0.033-0.947-0.071-1.851,0.112-2.812c0.403-1.89,2.038-3.246,3.708-3.46
					c0.855-0.103,1.595-0.026,2.349-0.042c0.742,0.006,1.456,0.012,2.14,0.017c2.676,0.034,4.864,0.062,6.457,0.083
					c0.717,0.02,1.298,0.036,1.756,0.049c0.401,0.017,0.612,0.034,0.612,0.052s-0.211,0.035-0.612,0.052
					c-0.457,0.013-1.039,0.029-1.756,0.049c-1.593,0.02-3.782,0.048-6.457,0.083c-0.683,0.005-1.397,0.011-2.14,0.017
					c-0.732,0.025-1.548-0.035-2.284,0.067c-1.505,0.211-2.957,1.446-3.304,3.134c-0.156,0.815-0.06,1.776-0.083,2.711
					c0.002,0.944,0.004,1.907,0.006,2.888c0.002,1.963,0.003,3.993,0.005,6.073c-0.002,2.079-0.003,4.109-0.005,6.072
					c-0.002,0.98-0.004,1.944-0.006,2.887c-0.001,0.472-0.003,0.938-0.004,1.4c0.002,0.469-0.022,0.914,0.054,1.326
					c0.254,1.706,1.649,3.01,3.142,3.297c0.734,0.139,1.531,0.072,2.271,0.096c0.742,0.006,1.456,0.012,2.14,0.017
					c2.675,0.034,4.865,0.062,6.457,0.083c0.717,0.02,1.298,0.036,1.756,0.049C690.652,364.522,690.863,364.54,690.863,364.558z"/>
			</g>
			<g>
				<path style="fill:#263238;" d="M691.011,367.845c0,0.018-0.254,0.035-0.738,0.052c-0.534,0.012-1.238,0.029-2.116,0.049
					c-1.895,0.02-4.539,0.048-7.781,0.083c-0.823,0.005-1.683,0.011-2.578,0.017c-0.892-0.025-1.826,0.093-2.833-0.113
					c-1.979-0.391-3.803-2.157-4.125-4.435c-0.091-0.571-0.064-1.132-0.07-1.68c-0.001-0.556-0.003-1.119-0.004-1.687
					c-0.002-1.137-0.004-2.298-0.006-3.479c-0.002-2.364-0.004-4.81-0.005-7.316c0.002-2.507,0.004-4.954,0.005-7.318
					c0.002-1.182,0.004-2.342,0.006-3.48c0.001-0.568,0.003-1.131,0.004-1.687c0.001-0.545-0.005-1.13,0.109-1.689
					c0.436-2.263,2.349-3.93,4.341-4.225c1.017-0.141,1.924-0.045,2.827-0.066c0.895,0.006,1.755,0.012,2.578,0.017
					c3.242,0.034,5.885,0.063,7.78,0.083c0.878,0.02,1.581,0.036,2.115,0.049c0.484,0.017,0.738,0.035,0.738,0.053
					s-0.254,0.035-0.738,0.052c-0.534,0.012-1.237,0.029-2.115,0.049c-1.895,0.02-4.538,0.048-7.78,0.083
					c-0.823,0.005-1.683,0.011-2.578,0.017c-0.886,0.029-1.857-0.049-2.754,0.09c-1.824,0.288-3.56,1.829-3.943,3.893
					c-0.165,1.002-0.06,2.157-0.087,3.283c0.002,1.137,0.004,2.298,0.006,3.48c0.002,2.365,0.004,4.811,0.005,7.318
					c-0.002,2.506-0.004,4.952-0.005,7.316c-0.002,1.181-0.004,2.342-0.006,3.479c-0.001,0.568-0.003,1.131-0.004,1.687
					c0.002,0.562-0.024,1.106,0.055,1.61c0.28,2.077,1.932,3.709,3.744,4.084c0.891,0.198,1.845,0.101,2.739,0.133
					c0.895,0.006,1.755,0.011,2.578,0.017c3.242,0.035,5.886,0.063,7.781,0.083c0.878,0.02,1.581,0.037,2.116,0.049
					C690.757,367.809,691.011,367.827,691.011,367.845z"/>
			</g>
			<g>
				<path style="fill:#263238;" d="M691.26,353.389c0,0.144-3.771,0.26-8.421,0.26c-4.652,0-8.422-0.117-8.422-0.26
					s3.77-0.26,8.422-0.26C687.489,353.129,691.26,353.245,691.26,353.389z"/>
			</g>
			<path style="opacity:0.3;fill:#FFFFFF;" d="M675.187,352.556l14.915-17.461h-10.421c-2.505,0-4.533,2.034-4.527,4.538
				L675.187,352.556z"/>
			<g>
				<path style="fill:#263238;" d="M660.182,379.642c0-0.144,7.361-0.26,16.439-0.26c9.082,0,16.441,0.117,16.441,0.26
					c0,0.144-7.359,0.26-16.441,0.26C667.543,379.902,660.182,379.786,660.182,379.642z"/>
			</g>
			<path style="fill:#E0E0E0;" d="M556.791,410.665c5.068-13.158,14.044-29.676,24.987-38.569
				c10.943-8.893,24.922-14.318,39.015-13.87c14.094,0.448,27.939,7.714,36.263,19.095c0.559,0.765,0.869,1.189,1.705,1.636
				c0.835,0.448,2.473,0.154,2.997-0.636c0.489-0.737,0.205-1.722-0.129-2.542c-3.785-9.291-13.587-15.951-22.984-19.463
				c-9.398-3.512-21.87-4.592-31.753-2.871c-23.1,4.024-40.924,20.03-49.519,41.846"/>
			<g>
				<path style="fill:#263238;" d="M468.723,236.708c0,0-0.42,0.006-1.234-0.006c-0.821-0.014-2.028-0.034-3.611-0.061
					c-3.181-0.063-7.865-0.156-13.915-0.276c-12.104-0.252-29.667-0.618-51.545-1.075c-2.68,0.104-5.369,1.558-6.916,3.92
					c-0.794,1.162-1.292,2.538-1.439,3.969c-0.129,1.445-0.192,2.94-0.293,4.432c-0.369,5.986-0.754,12.223-1.154,18.693
					c-0.794,12.941-1.646,26.816-2.546,41.48c0.009,29.386,0.019,61.936,0.029,96.494l-0.257-0.258
					c12.669,0.034,25.988,0.07,39.529,0.107c33.252,0.097,65.168,0.191,94.659,0.277l-0.23,0.157
					c3.684-9.792,5.981-19.761,7.392-29.495c1.369-9.747,2.011-19.259,2.094-28.4c0.068-4.571-0.009-9.051-0.158-13.43
					c-0.217-4.375-0.154-8.684-1.026-12.765c-0.805-4.089-2.029-7.989-3.458-11.685c-1.428-3.697-3.017-7.226-4.773-10.526
					l0.019,0.028C488.201,260.149,469.62,237.787,468.723,236.708c0,0,0.328,0.337,0.943,1.038c0.609,0.711,1.505,1.758,2.68,3.13
					c2.34,2.779,5.785,6.868,10.228,12.143c8.852,10.604,21.677,25.969,37.595,45.038l0.012,0.014l0.008,0.014
					c1.776,3.322,3.372,6.852,4.813,10.563c1.442,3.709,2.679,7.625,3.496,11.746c0.236,1.024,0.339,2.08,0.511,3.129
					c0.099,1.057,0.209,2.13,0.259,3.199c0.104,2.14,0.208,4.307,0.281,6.499c0.156,4.384,0.238,8.871,0.175,13.449
					c-0.073,9.157-0.705,18.689-2.069,28.462c-1.406,9.761-3.702,19.766-7.396,29.605l-0.059,0.158l-0.171,0
					c-29.491-0.077-61.407-0.16-94.659-0.247c-13.54-0.038-26.859-0.076-39.529-0.112l-0.257-0.001l0-0.257
					c0.01-34.563,0.02-67.117,0.029-96.508c0.918-14.666,1.787-28.543,2.597-41.487c0.41-6.471,0.805-12.709,1.184-18.695
					c0.104-1.499,0.168-2.971,0.303-4.449c0.155-1.489,0.677-2.922,1.506-4.13c1.615-2.453,4.413-3.959,7.198-4.062
					c21.906,0.526,39.493,0.948,51.613,1.238c6.042,0.159,10.719,0.281,13.896,0.365c1.576,0.046,2.777,0.081,3.595,0.105
					C468.314,236.683,468.723,236.708,468.723,236.708z"/>
			</g>
			<g>
				<path style="fill:#E0E0E0;" d="M415.835,318.527h-25.227c-0.751,0-1.359-0.609-1.359-1.36l0,0c0-0.751,0.609-1.359,1.359-1.359
					h25.227c0.751,0,1.36,0.609,1.36,1.359l0,0C417.194,317.918,416.586,318.527,415.835,318.527z"/>
				<g>
					<path style="fill:#263238;" d="M415.835,318.527c-0.004-0.028,0.217-0.007,0.557-0.179c0.325-0.152,0.792-0.638,0.688-1.35
						c-0.051-0.339-0.264-0.701-0.63-0.901c-0.179-0.103-0.394-0.154-0.616-0.154c-0.247,0.003-0.503,0.007-0.767,0.01
						c-1.072,0.012-2.277,0.024-3.602,0.039c-5.4,0.02-12.742,0.047-20.855,0.076c-0.415-0.004-0.812,0.248-0.988,0.617
						c-0.184,0.364-0.138,0.828,0.11,1.145c0.26,0.331,0.62,0.478,1.098,0.439c0.488,0.001,0.973,0.001,1.453,0.002
						c1.919,0.005,3.771,0.01,5.537,0.015c3.513,0.021,6.686,0.04,9.376,0.056c2.617,0.034,4.759,0.062,6.321,0.083
						c0.7,0.02,1.269,0.036,1.719,0.049C415.628,318.492,415.835,318.509,415.835,318.527s-0.206,0.036-0.599,0.053
						c-0.449,0.013-1.018,0.029-1.719,0.049c-1.562,0.02-3.704,0.048-6.321,0.083c-2.69,0.016-5.863,0.035-9.376,0.056
						c-1.767,0.005-3.619,0.01-5.537,0.015c-0.48,0.001-0.964,0.002-1.453,0.002c-0.492,0.059-1.177-0.156-1.511-0.641
						c-0.365-0.468-0.435-1.148-0.164-1.687c0.258-0.543,0.845-0.915,1.455-0.909c8.113,0.03,15.456,0.057,20.855,0.076
						c1.325,0.014,2.53,0.027,3.602,0.039c0.264,0.004,0.52,0.007,0.767,0.011c0.27,0.007,0.529,0.08,0.74,0.21
						c0.431,0.255,0.665,0.693,0.707,1.089c0.083,0.831-0.483,1.34-0.844,1.472C416.053,318.596,415.835,318.527,415.835,318.527z"
						/>
				</g>
			</g>
			<g>
				<path style="fill:#263238;" d="M413.818,323.206c0.031,0.049-0.622,0.545-1.825,1.089c-1.198,0.545-2.972,1.077-4.991,1.204
					c-2.02,0.12-3.846-0.193-5.101-0.587c-1.26-0.392-1.968-0.806-1.944-0.858c0.044-0.168,3.066,1.197,7.013,0.926
					C410.92,324.768,413.754,323.045,413.818,323.206z"/>
			</g>
			<g>
				<path style="fill:#263238;" d="M341.156,236.721c0-0.144,11.614-0.26,25.937-0.26c14.328,0,25.94,0.116,25.94,0.26
					c0,0.144-11.611,0.26-25.94,0.26C352.77,236.982,341.156,236.865,341.156,236.721z"/>
			</g>
			<g>
				<path style="fill:#FFFFFF;" d="M451.169,269.511c0.082,0.118-5.295,3.977-12.008,8.618c-6.715,4.643-12.223,8.309-12.305,8.191
					c-0.082-0.118,5.294-3.977,12.009-8.619C445.578,273.06,451.087,269.392,451.169,269.511z"/>
			</g>
			<g>
				<path style="fill:#FFFFFF;" d="M452.153,257.832c0.085,0.116-7.491,5.828-16.92,12.757c-9.432,6.931-17.145,12.455-17.23,12.339
					c-0.085-0.116,7.489-5.827,16.921-12.759C444.353,263.241,452.068,257.717,452.153,257.832z"/>
			</g>
			<g>
				<path style="fill:#FFFFFF;" d="M369.784,269.787c0.077,0.121-4.507,3.183-10.239,6.839c-5.734,3.657-10.443,6.522-10.52,6.4
					c-0.077-0.121,4.507-3.183,10.24-6.839C364.997,272.531,369.707,269.665,369.784,269.787z"/>
			</g>
			<g>
				<path style="fill:#FFFFFF;" d="M368.067,262.504c0.081,0.119-3.748,2.852-8.551,6.104c-4.804,3.253-8.763,5.792-8.844,5.673
					c-0.081-0.119,3.747-2.851,8.552-6.104C364.027,264.924,367.987,262.385,368.067,262.504z"/>
			</g>
			<path style="fill:#263238;" d="M496.087,287.148c0.016,0.091,9.574,8.696,9.574,8.696l-2.486,4.129l-10.565-6.412
				L496.087,287.148z"/>
			<g>
				<path style="fill:#FF725E;" d="M490.056,299.053h-8.598c-5.014,0-9.08-4.065-9.08-9.08v0c0-5.014,4.065-9.08,9.08-9.08h8.598
					c5.014,0,9.08,4.065,9.08,9.08v0C499.136,294.988,495.071,299.053,490.056,299.053z"/>
				<g>
					<path style="fill:#263238;" d="M490.056,299.053c-0.01-0.079,1.066,0.032,2.834-0.565c0.876-0.298,1.912-0.815,2.908-1.674
						c0.981-0.861,1.954-2.055,2.536-3.599c0.593-1.529,0.793-3.398,0.342-5.277c-0.423-1.879-1.587-3.726-3.315-5.024
						c-0.864-0.647-1.871-1.151-2.961-1.447c-1.096-0.316-2.24-0.338-3.46-0.318c-2.417,0.002-4.917,0.004-7.479,0.005
						c-2.502-0.012-4.884,1.102-6.47,2.831c-1.612,1.721-2.407,4.013-2.362,6.171c0.011,2.175,0.898,4.169,2.145,5.625
						c1.255,1.468,2.896,2.399,4.484,2.802c1.587,0.444,3.129,0.267,4.461,0.325c1.319,0.017,2.464,0.032,3.422,0.044
						c0.899,0.02,1.618,0.036,2.162,0.049C489.797,299.017,490.056,299.035,490.056,299.053s-0.26,0.035-0.754,0.052
						c-0.545,0.012-1.264,0.029-2.162,0.049c-0.958,0.012-2.103,0.027-3.422,0.044c-0.669,0.006-1.382,0.013-2.137,0.02
						c-0.764-0.009-1.588-0.055-2.416-0.279c-1.66-0.396-3.387-1.349-4.718-2.875c-1.323-1.513-2.273-3.607-2.299-5.898
						c-0.063-2.273,0.768-4.704,2.467-6.528c1.67-1.833,4.197-3.019,6.845-3.006c2.562,0.002,5.062,0.004,7.479,0.005
						c1.19-0.018,2.447,0.01,3.592,0.349c1.151,0.318,2.211,0.856,3.117,1.543c1.815,1.379,3.022,3.332,3.447,5.308
						c0.455,1.975,0.221,3.925-0.419,5.51c-0.629,1.6-1.66,2.821-2.691,3.688c-1.046,0.865-2.125,1.368-3.031,1.643
						c-0.909,0.277-1.645,0.364-2.141,0.387C490.316,299.076,490.056,299.071,490.056,299.053z"/>
				</g>
			</g>
			<g>
				<path style="fill:#263238;" d="M684.857,418.187c0.002,0.036-0.506,0.08-1.427,0.128c-1.021,0.041-2.332,0.093-3.904,0.156
					c-1.683,0.048-3.641,0.103-5.796,0.164c-0.273,0.007-0.549,0.013-0.828,0.02c-0.26,0.002-0.586,0.041-0.919-0.073
					c-0.646-0.198-1.14-0.851-1.149-1.544c-0.064-1.181-0.133-2.405-0.244-3.654c-0.416-5.005-1.191-9.492-1.868-12.713
					c-0.333-1.612-0.646-2.908-0.848-3.807c-0.213-0.897-0.317-1.397-0.282-1.407c0.034-0.01,0.204,0.472,0.478,1.355
					c0.263,0.885,0.63,2.171,1.011,3.78c0.771,3.212,1.609,7.717,2.027,12.75c0.111,1.257,0.177,2.487,0.234,3.675
					c0.004,0.506,0.346,0.949,0.795,1.095c0.212,0.082,0.465,0.057,0.759,0.056c0.279-0.004,0.554-0.007,0.827-0.011
					c2.153-0.019,4.107-0.037,5.788-0.052c1.574,0.004,2.886,0.007,3.907,0.01C684.343,418.126,684.855,418.151,684.857,418.187z"/>
			</g>
		</g>
	</g>
</g>
</svg>
